<svg width="154" height="131" viewBox="0 0 154 131" fill="none" xmlns="http://www.w3.org/2000/svg">
<mask id="mask0_52_199" style="mask-type:luminance" maskUnits="userSpaceOnUse" x="23" y="0" width="108" height="107">
<path d="M23.4169 0H130.577V106.757H23.4169V0Z" fill="white"/>
</mask>
<g mask="url(#mask0_52_199)">
<mask id="mask1_52_199" style="mask-type:luminance" maskUnits="userSpaceOnUse" x="23" y="0" width="108" height="107">
<path d="M76.997 0C47.405 0 23.4169 23.8995 23.4169 53.3785C23.4169 82.8592 47.405 106.757 76.997 106.757C106.589 106.757 130.577 82.8592 130.577 53.3785C130.577 23.8995 106.589 0 76.997 0Z" fill="white"/>
</mask>
<g mask="url(#mask1_52_199)">
<path d="M23.4169 0V106.757H130.577V0H23.4169Z" fill="url(#paint0_linear_52_199)"/>
</g>
</g>
<mask id="mask2_52_199" style="mask-type:luminance" maskUnits="userSpaceOnUse" x="29" y="31" width="95" height="53">
<path d="M29.865 31.3848H123.268V83.1263H29.865V31.3848Z" fill="white"/>
</mask>
<g mask="url(#mask2_52_199)">
<path d="M30.2178 43.1002C30.2178 42.821 30.2351 42.5401 30.2109 42.2644C30.197 42.1076 30.242 42.0163 30.37 41.9543C30.5481 41.8681 30.7298 41.7889 30.9096 41.7062C32.2414 41.0841 33.5715 40.4586 34.9068 39.8435C35.123 39.7435 35.251 39.6057 35.3253 39.3713C35.4983 38.8217 35.8477 38.3909 36.3147 38.0532C37.0325 37.5328 37.8506 37.2847 38.7206 37.1727C39.1962 37.1106 39.6719 37.0848 40.1492 37.1623C40.3983 37.2037 40.6318 37.1571 40.8618 37.0486C42.2438 36.3938 43.624 35.7407 45.0112 35.0998C45.2741 34.9791 45.4055 34.8206 45.4384 34.5277C45.511 33.885 45.6875 33.2733 46.1458 32.7787C46.5678 32.3238 47.0833 32.0068 47.6627 31.8069C49.4061 31.2072 51.1115 31.3244 52.7529 32.1567C53.4431 32.5047 54.0121 32.9993 54.3598 33.7092C54.4428 33.8763 54.5241 34.0487 54.5483 34.233C54.576 34.4519 54.6988 34.5811 54.8752 34.6948C56.1932 35.5357 57.4713 36.4334 58.7668 37.3071C58.9899 37.457 59.2217 37.5965 59.4258 37.7688C59.7389 38.0308 60.1004 38.11 60.4913 38.1428C61.4495 38.2238 62.3471 38.4994 63.1566 39.025C63.7862 39.4334 64.2912 39.9538 64.542 40.6809C64.5956 40.836 64.6527 40.9928 64.6475 41.1565C64.6371 41.4218 64.7755 41.5821 64.9779 41.7268C66.0623 42.4971 67.1191 43.3035 68.1379 44.1581C68.4319 44.4045 68.726 44.6527 69.0269 44.8922C69.1826 45.0145 69.2206 45.1748 69.2102 45.3557C69.1757 45.9588 69.1393 46.5636 69.1013 47.165C69.0684 47.6647 69.0252 48.1627 69.001 48.6606C68.9871 48.926 69.0096 48.9449 69.2777 48.9036C69.6478 48.8485 70.018 48.8123 70.3933 48.8174C70.5611 48.8192 70.7133 48.7606 70.862 48.6917C72.5726 47.887 74.2797 47.0805 75.9938 46.2862C76.2429 46.1707 76.3622 46.0122 76.4124 45.7417C76.5542 44.9835 76.9779 44.4046 77.6179 43.9738C78.3011 43.5137 79.0673 43.2949 79.8733 43.1742C80.5894 43.0691 81.2951 43.1191 81.9956 43.2656C82.2031 43.3087 82.3813 43.2845 82.5681 43.1966C83.4554 42.7779 84.3444 42.3678 85.2317 41.9526C86.4044 41.4029 87.5736 40.848 88.7497 40.307C89.0195 40.1829 89.1942 40.0244 89.2894 39.7246C89.4537 39.199 89.8065 38.7941 90.2528 38.4702C90.9705 37.9498 91.7887 37.7034 92.6586 37.5896C93.1343 37.5276 93.6099 37.5018 94.0873 37.581C94.3364 37.6224 94.5699 37.5741 94.7999 37.4656C96.1801 36.8108 97.5621 36.1577 98.9493 35.5167C99.2122 35.3961 99.3436 35.2376 99.3765 34.9464C99.4474 34.314 99.6169 33.7144 100.061 33.2233C100.47 32.7718 100.969 32.4496 101.535 32.2497C103.413 31.5881 105.233 31.738 106.964 32.7322C107.539 33.0613 108.004 33.5179 108.298 34.1262C108.379 34.2951 108.462 34.4656 108.486 34.65C108.514 34.8706 108.637 34.9981 108.813 35.1135C110.351 36.106 111.863 37.1399 113.362 38.1893C113.694 38.4219 114.038 38.5287 114.429 38.5615C115.388 38.6425 116.285 38.9182 117.095 39.442C117.724 39.8504 118.229 40.3725 118.48 41.0996C118.534 41.253 118.591 41.4115 118.586 41.5735C118.575 41.8406 118.712 41.9991 118.916 42.1456C119.999 42.9158 121.057 43.7205 122.074 44.5751C122.37 44.8215 122.662 45.0697 122.963 45.3092C123.121 45.4332 123.157 45.5935 123.147 45.7744C123.117 46.3431 123.088 46.9117 123.051 47.4803C123.022 47.9438 122.974 48.4073 122.944 48.8709C122.863 50.1339 122.794 51.3987 122.709 52.6634C122.607 54.2159 122.495 55.7702 122.386 57.3227C122.361 57.6708 122.361 58.0189 122.322 58.3669C122.294 58.6133 122.188 58.7684 121.974 58.8873C120.787 59.5386 119.608 60.1986 118.425 60.8551C116.18 62.0975 113.935 63.3398 111.691 64.5822C109.517 65.7866 107.343 66.9894 105.171 68.1921C102.763 69.5258 100.357 70.8612 97.9495 72.1949C95.9795 73.2839 94.0095 74.3729 92.0412 75.4636C89.1839 77.0437 86.3283 78.6273 83.4709 80.2091C81.9419 81.0568 80.4112 81.9046 78.8805 82.7507C78.737 82.8282 78.5882 82.8971 78.436 82.9574C78.2164 83.0453 78.0105 82.9884 77.8601 82.8213C77.0229 81.8943 76.0751 81.081 75.1497 80.2487C73.1987 78.4946 71.2806 76.7112 69.461 74.8209C68.6533 73.9818 67.8438 73.1443 67.0067 72.3327C65.0989 70.4838 63.1566 68.6728 61.1952 66.8808C60.4791 66.226 60.5968 66.3208 60.5552 65.5058C60.512 64.6701 60.4618 63.8361 60.4117 63.0004C60.3961 62.7574 60.3546 62.7298 60.1332 62.8505C59.3756 63.2623 58.6215 63.681 57.8657 64.0997C55.6622 65.3197 53.4586 66.5414 51.2551 67.7613C49.6742 68.6367 48.0916 69.5103 46.5108 70.3856C46.0334 70.651 45.8656 70.6269 45.4557 70.2495C43.4736 68.4299 41.4862 66.6137 39.5041 64.7941C38.4905 63.8636 37.4822 62.9297 36.4686 62.001C34.8289 60.4967 33.1875 58.9941 31.5461 57.4916C31.0653 57.0505 30.5914 56.6025 30.1071 56.1648C29.9359 56.0114 29.8649 55.8426 29.8805 55.6117C29.9722 54.2883 29.9272 52.9615 29.9756 51.6382C30.0154 50.5561 29.9999 49.4757 30.0344 48.3953C30.076 47.0581 30.1157 45.7227 30.1797 44.3873C30.1988 43.9583 30.223 43.5292 30.2178 43.1002ZM77.8722 70.7992C77.8895 71.1369 77.9258 71.4712 77.9448 71.8072C78.0071 72.9324 78.0434 74.061 78.1143 75.1862C78.1454 75.6842 78.161 76.1839 78.1887 76.6819C78.2492 77.7502 78.3149 78.8168 78.3737 79.8834C78.4083 80.5106 78.4291 81.1378 78.462 81.765C78.4758 82.0356 78.5363 82.0631 78.7889 81.9374C78.8113 81.927 78.8304 81.915 78.8511 81.9029C80.7174 80.869 82.5836 79.8334 84.4499 78.7996C86.6638 77.5727 88.8777 76.3459 91.0916 75.1207C93.2848 73.9077 95.4779 72.6946 97.6711 71.4798C100.11 70.1289 102.549 68.7797 104.986 67.4288C107.2 66.2036 109.413 64.9768 111.627 63.7516C113.789 62.5541 115.953 61.3548 118.115 60.1572C119.175 59.5697 120.236 58.9821 121.299 58.3962C121.448 58.3152 121.566 58.2308 121.578 58.0344C121.616 57.3279 121.669 56.6197 121.716 55.9132C121.768 55.1016 121.817 54.29 121.87 53.4785C121.958 52.1448 122.05 50.8111 122.138 49.4774C122.19 48.6779 122.239 47.8783 122.29 47.0771C122.304 46.8807 122.334 46.6842 122.339 46.4878C122.344 46.2224 122.299 46.2 122.059 46.3275C121.183 46.7945 120.31 47.2632 119.437 47.7319C116.91 49.0897 114.384 50.4509 111.857 51.8088C109.925 52.8461 107.992 53.8799 106.061 54.919C102.991 56.5697 99.9213 58.2239 96.8495 59.8746C94.601 61.0843 92.349 62.2887 90.0988 63.4983C86.9042 65.2146 83.7096 66.9325 80.5167 68.6504C79.7142 69.0812 78.9168 69.5154 78.1126 69.9411C77.9223 70.041 77.8307 70.1599 77.8687 70.3822C77.8912 70.5166 77.8722 70.6596 77.8722 70.7992ZM112.653 38.6115C111.275 37.6741 109.979 36.7746 108.595 35.8786C108.564 36.6643 108.459 37.3605 108.379 38.0618C108.331 38.477 108.182 38.8199 107.919 39.1284C107.604 39.4954 107.219 39.7728 106.791 39.9986C106.068 40.3776 105.29 40.581 104.484 40.6602C103.32 40.774 102.175 40.6895 101.073 40.2605C100.613 40.0813 100.179 39.8538 99.8141 39.5195C99.3419 39.087 99.015 38.5873 99.0859 37.8998C99.1413 37.3725 99.1568 36.8401 99.1949 36.2422C98.0014 36.8005 96.8478 37.3398 95.6388 37.905C96.0176 38.0842 96.3427 38.2117 96.6385 38.3978C97.6866 39.056 98.3093 39.952 98.2903 41.2392C98.2782 42.0198 98.228 42.7952 98.1 43.5637C98.0551 43.8256 98.0723 44.0944 97.9392 44.3425C97.7593 44.6768 97.5293 44.9628 97.2369 45.2024C96.8339 45.5297 96.3842 45.771 95.8982 45.9485C94.7134 46.3775 93.4923 46.5033 92.2453 46.3241C91.5015 46.219 90.7837 46.0174 90.1265 45.64C89.6111 45.3419 89.1804 44.9628 88.9175 44.4166C88.8241 44.2236 88.7739 44.0255 88.7808 43.8101C88.8068 43.0312 88.8777 42.2558 88.9625 41.4822C88.9763 41.3581 89.0524 41.203 88.9486 41.1169C88.8362 41.0255 88.7117 41.1565 88.601 41.2082C87.1325 41.8923 85.6641 42.5798 84.1956 43.269C83.9362 43.3914 83.6785 43.5206 83.355 43.6791C83.5643 43.7963 83.7165 43.8738 83.8601 43.9634C84.9255 44.6217 85.562 45.5211 85.543 46.8238C85.5309 47.6044 85.479 48.3798 85.351 49.1483C85.3078 49.4102 85.3233 49.679 85.1902 49.9271C85.0103 50.2614 84.7802 50.5474 84.4862 50.787C84.0849 51.1126 83.6335 51.3556 83.1475 51.5313C81.9627 51.9604 80.7433 52.0862 79.4945 51.907C78.7508 51.8001 78.033 51.6003 77.3758 51.2212C76.8621 50.9231 76.4297 50.544 76.1685 49.9978C76.0699 49.7927 76.0249 49.5825 76.0336 49.3568C76.0578 48.764 76.101 48.173 76.1616 47.5837C76.1771 47.4303 76.2723 47.2253 76.1201 47.1288C75.9973 47.0495 75.8399 47.1925 75.705 47.2546C74.553 47.7905 73.4028 48.3315 72.2526 48.8726C72.1921 48.9019 72.1143 48.9105 72.0901 49.0208C72.2803 49.088 72.474 49.1534 72.6677 49.2258C73.1832 49.4205 73.6623 49.6755 74.0947 50.0271C74.8505 50.6388 75.2258 51.4228 75.2397 52.3912C75.2518 53.2424 75.1376 54.0815 75.0512 54.9259C74.9872 55.5617 74.6931 56.0166 74.2486 56.4146C73.8249 56.792 73.3319 57.0556 72.7975 57.24C71.2512 57.7759 69.6859 57.8069 68.1171 57.3537C67.5187 57.1797 66.9583 56.9092 66.4896 56.4922C66.0001 56.0579 65.6887 55.5479 65.7406 54.8466C65.8046 53.9764 65.879 53.1097 65.9724 52.243C65.9862 52.1189 66.052 51.9966 65.9638 51.8277C65.1543 52.2068 64.3414 52.5773 63.5354 52.9615C62.7346 53.344 61.9165 53.6973 61.0932 54.1315C61.8369 54.6984 62.4993 55.2653 63.1722 55.8219C65.5348 57.7793 67.7885 59.8505 69.9661 62.0096C70.9087 62.9452 71.8289 63.9033 72.7767 64.8338C73.9062 65.9434 75.084 67.0049 76.1927 68.1387C76.5006 68.4557 76.8015 68.7814 77.1077 69.1002C77.4709 69.4775 77.4155 69.45 77.8341 69.2277C78.3098 68.9761 78.7785 68.7159 79.2507 68.4626C81.8088 67.0893 84.3686 65.7194 86.9267 64.3444C90.3064 62.5282 93.6843 60.7086 97.0622 58.8907C99.3125 57.6828 101.564 56.4784 103.815 55.2688C107.184 53.4578 110.55 51.6433 113.919 49.8323C116.477 48.4573 119.037 47.0874 121.595 45.7141C121.687 45.6659 121.777 45.6107 121.865 45.5556C121.953 45.4987 121.964 45.4281 121.889 45.354C121.839 45.3057 121.782 45.2627 121.727 45.2213C120.941 44.6182 120.156 44.0134 119.369 43.412C119.201 43.2845 119.034 43.1605 118.859 43.0433C118.7 42.9365 118.613 42.9692 118.608 43.157C118.591 43.6584 118.477 44.1495 118.447 44.6475C118.42 45.1317 118.215 45.516 117.906 45.864C117.518 46.2982 117.039 46.6067 116.503 46.8238C114.972 47.4441 113.402 47.5389 111.802 47.1426C111.172 46.9875 110.579 46.748 110.066 46.3431C109.441 45.8502 109.061 45.2782 109.145 44.4063C109.246 43.4 109.301 42.3902 109.455 41.3908C109.503 41.0789 109.585 40.7774 109.72 40.4896C110.053 39.7728 110.648 39.3421 111.339 39.0164C111.729 38.8337 112.145 38.7166 112.653 38.6115ZM41.7007 37.4863C42.0743 37.6637 42.3891 37.7861 42.6762 37.9636C43.7399 38.6252 44.3747 39.5247 44.3539 40.8256C44.3418 41.6062 44.2899 42.3816 44.1619 43.1518C44.1187 43.412 44.1343 43.6826 43.9994 43.9307C43.8195 44.2633 43.5894 44.5493 43.2954 44.7871C42.8924 45.1127 42.4427 45.3557 41.955 45.5315C40.7702 45.9588 39.5508 46.0846 38.3037 45.9054C37.56 45.7985 36.8422 45.5969 36.185 45.2179C35.6695 44.9198 35.2389 44.5407 34.9777 43.9927C34.8912 43.8118 34.8376 43.6257 34.8428 43.4224C34.8618 42.8296 34.9137 42.2403 34.9639 41.6493C34.9915 41.3288 35.0676 41.0117 35.04 40.6809C34.8912 40.6516 34.7926 40.7274 34.6906 40.774C33.9935 41.0996 33.2965 41.4253 32.5995 41.7527C32.2726 41.906 31.9474 42.0646 31.6188 42.2162C31.4873 42.2782 31.47 42.3523 31.5738 42.454C31.7433 42.6142 31.9111 42.7762 32.0823 42.933C33.6338 44.3442 35.187 45.7537 36.7384 47.1633C37.6084 47.9542 38.4784 48.7468 39.3484 49.5377C40.7892 50.8455 42.23 52.1517 43.6725 53.4595C44.6722 54.3676 45.6719 55.2757 46.6751 56.182C46.9484 56.4301 46.9518 56.4233 47.2718 56.2492C48.2456 55.7202 49.2107 55.1792 50.1948 54.6708C51.8951 53.7921 53.5624 52.8599 55.2505 51.9604C57.8225 50.5888 60.3857 49.2017 62.9542 47.8232C64.5455 46.9668 66.1402 46.1139 67.7297 45.2558C68.0895 45.0628 68.0877 45.0387 67.7799 44.794C67.7245 44.7509 67.6709 44.7061 67.6155 44.663C66.7438 43.9807 65.8652 43.3069 64.9675 42.659C64.753 42.5057 64.6735 42.535 64.6665 42.7883C64.6492 43.2656 64.5368 43.7343 64.5126 44.2081C64.4867 44.7319 64.2566 45.1386 63.9124 45.5056C63.5388 45.9037 63.0874 46.1897 62.5875 46.3965C61.3301 46.9186 60.0225 47.0685 58.6752 46.8858C57.8709 46.7756 57.0926 46.5653 56.4059 46.119C55.6241 45.6125 55.1 44.987 55.209 43.9428C55.3145 42.9382 55.3699 41.9267 55.5255 40.9273C55.5722 40.6292 55.6552 40.338 55.785 40.0623C56.1222 39.3472 56.7207 38.9199 57.4108 38.5942C57.8 38.4116 58.2151 38.3013 58.6371 38.2048C58.6198 38.1652 58.6163 38.1359 58.6008 38.1255C57.3779 37.2933 56.1516 36.461 54.9271 35.6305C54.87 35.5926 54.806 35.5633 54.7437 35.5323C54.7351 35.5271 54.7213 35.5271 54.7091 35.5305C54.6988 35.5323 54.6901 35.5409 54.6538 35.5615C54.6244 36.2405 54.5189 36.928 54.4445 37.6172C54.3944 38.0876 54.211 38.4598 53.9049 38.7941C53.4361 39.3041 52.8498 39.6384 52.2047 39.8624C50.6584 40.4018 49.0931 40.4311 47.5243 39.9779C46.9259 39.8056 46.3655 39.5333 45.8968 39.1163C45.4073 38.6838 45.07 38.1738 45.1496 37.4742C45.1755 37.2312 45.172 36.9866 45.1997 36.7436C45.2308 36.4593 45.2378 36.1715 45.2585 35.8235C44.0685 36.38 42.9218 36.9159 41.7007 37.4863ZM45.7394 69.4586C45.8345 69.2122 45.8362 69.014 45.8414 68.8176C45.8725 67.8888 45.8985 66.9601 45.9383 66.0296C45.9936 64.7545 46.0645 63.4777 46.1199 62.2008C46.1579 61.2962 46.1821 60.3899 46.2133 59.4835C46.215 59.4146 46.2219 59.3439 46.2288 59.275C46.2998 58.5806 46.2479 57.881 46.3309 57.1866C46.3551 56.985 46.2652 56.8351 46.1164 56.6989C44.9991 55.6944 43.8852 54.6864 42.7731 53.6766C40.8774 51.9535 38.9817 50.2287 37.0861 48.5038C35.1316 46.7239 33.1772 44.9439 31.221 43.1639C31.1552 43.1053 31.1085 43.0123 30.9996 43.0192C30.946 43.064 30.9563 43.1243 30.9563 43.1811C30.9581 44.5993 30.8802 46.0139 30.8335 47.4321C30.7834 48.9536 30.7592 50.4751 30.7505 51.9983C30.7453 53.0787 30.7003 54.1591 30.6675 55.2395C30.6588 55.5341 30.7298 55.7616 30.9702 55.9339C31.0169 55.9683 31.0566 56.0131 31.0982 56.0528C32.2155 57.0763 33.3311 58.0981 34.4467 59.1216C35.417 60.0125 36.3839 60.9033 37.3542 61.7925C38.9437 63.2485 40.5349 64.7011 42.1227 66.1571C43.1882 67.1341 44.2467 68.1146 45.3104 69.0916C45.4367 69.2087 45.5716 69.3156 45.7394 69.4586ZM46.5921 69.3966C46.7322 69.4224 46.7979 69.3655 46.8671 69.3276C47.7042 68.8658 48.5396 68.4023 49.3767 67.9388C52.4468 66.2381 55.5169 64.5374 58.5852 62.8367C59.0954 62.5541 59.604 62.268 60.1142 61.9855C60.2405 61.9148 60.3581 61.839 60.3287 61.6667C60.2664 61.2859 60.2889 60.8999 60.2647 60.5174C60.173 59.0441 60.0865 57.5726 59.9966 56.0993C59.962 55.5324 59.9309 54.9621 59.8842 54.3951C59.8617 54.1263 59.9412 53.923 60.1557 53.7576C60.4203 53.556 60.7265 53.4423 61.0205 53.3044C62.7 52.5152 64.3794 51.7312 66.0589 50.9455C66.1765 50.8903 66.2872 50.83 66.3529 50.7094C66.7127 50.046 67.2765 49.6118 67.9528 49.3102C68.124 49.2327 68.195 49.119 68.2071 48.9346C68.2641 48.0179 68.3351 47.1029 68.3973 46.188C68.4042 46.076 68.4579 45.9312 68.3541 45.8589C68.2417 45.7796 68.1396 45.9037 68.0428 45.9554C66.1108 46.9909 64.1788 48.0265 62.2468 49.0638C60.5725 49.9633 58.9 50.8645 57.2257 51.7657C55.4823 52.7048 53.7371 53.6473 51.9919 54.5864C50.4526 55.4135 48.9115 56.2406 47.3652 57.0608C47.168 57.1659 47.0729 57.2882 47.0694 57.5191C47.0539 58.3083 47.0331 59.0992 46.9847 59.8884C46.9449 60.5036 46.9363 61.1187 46.9103 61.7339C46.8515 63.1038 46.7858 64.4736 46.7235 65.8435C46.6785 66.8291 46.6336 67.8165 46.5921 68.8021C46.5834 68.9985 46.5921 69.1932 46.5921 69.3966ZM77.6093 81.4738C77.6957 81.3963 77.6594 81.2981 77.6594 81.2102C77.6525 80.8035 77.6248 80.3969 77.6006 79.992C77.5314 78.8668 77.4986 77.7399 77.4294 76.6164C77.3982 76.1167 77.381 75.617 77.355 75.119C77.2703 73.5889 77.1734 72.057 77.1025 70.5269C77.0886 70.215 77.0056 69.9807 76.7773 69.7619C75.8589 68.8848 74.9681 67.9802 74.048 67.1048C72.9358 66.0451 71.8272 64.9802 70.7548 63.8774C69.551 62.6437 68.3005 61.4582 67.0655 60.2554C66.7317 59.9298 66.3841 59.6179 66.0381 59.3077C64.8603 58.248 63.6513 57.2245 62.444 56.1992C61.9545 55.7857 61.4546 55.3842 60.9531 54.9862C60.7905 54.8569 60.7317 54.888 60.7196 55.0878C60.7144 55.1688 60.7178 55.2498 60.723 55.3308C60.7472 55.7943 60.7697 56.2596 60.7991 56.7231C60.8856 58.1377 60.9755 59.5507 61.0603 60.9654C61.1191 61.9631 61.1675 62.9607 61.2246 63.9584C61.2557 64.5029 61.3094 65.0474 61.3232 65.5919C61.3318 65.9141 61.4789 66.1278 61.7089 66.3329C62.8193 67.3271 63.9124 68.342 64.99 69.3707C65.4777 69.8377 65.9724 70.2995 66.4653 70.7595C67.5308 71.752 68.5564 72.7859 69.5665 73.8353C70.9381 75.262 72.3374 76.6612 73.7972 78C74.982 79.0873 76.2048 80.1315 77.3394 81.2705C77.4173 81.3498 77.4761 81.4618 77.6093 81.4738ZM114.481 43.8876C114.841 43.9048 115.313 43.848 115.778 43.7205C116.313 43.574 116.811 43.3552 117.235 42.9899C117.863 42.4454 118.003 41.6665 117.591 40.9807C117.428 40.7102 117.226 40.4707 116.96 40.2898C115.334 39.1921 113.594 39.0233 111.759 39.6643C111.347 39.809 110.996 40.0623 110.7 40.3845C110.199 40.9308 110.131 41.6148 110.527 42.2438C110.73 42.5643 110.998 42.821 111.311 43.0312C112.231 43.6533 113.26 43.8945 114.481 43.8876ZM103.631 32.6547C103.062 32.6271 102.455 32.7201 101.869 32.939C101.416 33.1078 101.004 33.3422 100.669 33.6971C100.151 34.2485 100.077 34.9429 100.483 35.5839C100.752 36.0061 101.125 36.318 101.561 36.5558C102.765 37.2088 104.046 37.3777 105.389 37.133C106.016 37.0176 106.599 36.7901 107.104 36.3921C107.867 35.7907 107.987 34.9292 107.424 34.1417C107.16 33.7712 106.8 33.5162 106.409 33.3025C105.563 32.8373 104.652 32.6305 103.631 32.6547ZM70.3604 49.6083C69.589 49.6083 69.0805 49.6859 68.5063 49.903C68.067 50.0701 67.6657 50.2993 67.3371 50.6439C66.8026 51.2057 66.73 51.9053 67.1503 52.5566C67.4149 52.9684 67.7799 53.2734 68.2036 53.5043C69.4195 54.1677 70.7116 54.3383 72.0658 54.085C72.6695 53.973 73.2299 53.7542 73.7228 53.3802C74.5236 52.772 74.6568 51.8915 74.0687 51.0833C73.9442 50.9127 73.8006 50.7628 73.6329 50.6353C72.666 49.8961 71.5608 49.6032 70.3604 49.6083ZM40.0645 42.4867C40.8238 42.5195 41.571 42.3678 42.2801 42.0335C42.633 41.8681 42.9408 41.6407 43.1882 41.3374C43.6137 40.8153 43.6604 40.1967 43.3214 39.616C43.1501 39.3196 42.9253 39.0664 42.6433 38.8751C41.085 37.824 39.4038 37.6465 37.6344 38.2082C37.1657 38.3564 36.7419 38.608 36.4064 38.9836C35.9151 39.5316 35.8581 40.2277 36.2455 40.848C36.5188 41.2874 36.9097 41.5942 37.3524 41.8371C38.1879 42.2972 39.0855 42.5126 40.0645 42.4867ZM60.5258 43.4689C60.8856 43.4861 61.3716 43.4327 61.8473 43.3C62.3817 43.1518 62.8798 42.933 63.3019 42.566C63.9176 42.0301 64.0612 41.2668 63.6686 40.5879C63.5094 40.3139 63.3105 40.0692 63.0459 39.8883C61.4149 38.7717 59.6628 38.6011 57.8155 39.2473C57.4039 39.392 57.0545 39.647 56.7587 39.971C56.2675 40.5069 56.1966 41.1806 56.5754 41.8009C56.7795 42.1335 57.0562 42.3988 57.3779 42.616C58.2894 43.2294 59.3065 43.4723 60.5258 43.4689ZM93.9109 42.9089C94.8656 42.9123 95.5609 42.771 96.2113 42.4557C96.552 42.2903 96.853 42.0749 97.0986 41.7871C97.5535 41.2547 97.6071 40.612 97.2456 40.0106C97.0692 39.716 96.8409 39.4678 96.5572 39.2783C95.0057 38.2444 93.3349 38.0687 91.5776 38.6252C91.0985 38.7769 90.6627 39.0353 90.3237 39.423C89.8532 39.9641 89.8031 40.6551 90.1784 41.2616C90.4517 41.7027 90.8408 42.0094 91.2836 42.2541C92.119 42.7142 93.0167 42.9296 93.9109 42.9089ZM50.411 36.8263C51.3156 36.7936 52.2237 36.6333 53.0228 36.0802C53.9983 35.4013 54.109 34.3433 53.2909 33.4835C53.2182 33.4094 53.1369 33.3422 53.0574 33.275C51.6616 32.117 49.2124 31.9534 47.7405 32.5943C47.341 32.7684 46.983 32.9993 46.6872 33.3267C46.2461 33.816 46.1614 34.457 46.4727 35.0394C46.6457 35.3634 46.8896 35.627 47.1819 35.8441C48.1262 36.5472 49.2142 36.7953 50.411 36.8263ZM81.2518 48.4883C82.0129 48.5211 82.7601 48.3694 83.4692 48.0351C83.822 47.868 84.1299 47.6406 84.3772 47.339C84.801 46.8169 84.8494 46.1983 84.5104 45.6176C84.3375 45.3212 84.1143 45.0679 83.8307 44.8767C82.274 43.8239 80.5911 43.6481 78.8217 44.2098C78.353 44.358 77.9292 44.6113 77.5937 44.9852C77.1025 45.5349 77.0454 46.231 77.4328 46.8514C77.7061 47.2908 78.097 47.5958 78.5415 47.8404C79.3769 48.2988 80.2746 48.5142 81.2518 48.4883ZM63.8813 43.145C63.7654 43.1381 63.7135 43.2104 63.653 43.2587C63.1964 43.6136 62.6809 43.8497 62.1292 44.0151C60.1401 44.6079 57.461 44.0341 56.2762 42.659C56.2329 42.6091 56.1862 42.5401 56.1032 42.5832C56.0444 42.6142 56.0496 42.6814 56.0461 42.7383C56.0219 43.2018 56.0081 43.6653 55.97 44.1289C55.9268 44.651 56.1741 45.0163 56.5685 45.3109C56.9749 45.6159 57.4298 45.8227 57.9176 45.9536C58.9588 46.231 60.0104 46.2603 61.0689 46.0622C61.7279 45.9398 62.354 45.7296 62.9179 45.3574C63.2016 45.1696 63.4973 44.9611 63.6046 44.6372C63.7637 44.1581 63.8467 43.655 63.8813 43.145ZM110.086 42.9709C109.993 43.0261 109.988 43.0846 109.984 43.1432C109.958 43.6067 109.946 44.072 109.906 44.5338C109.861 45.0697 110.112 45.4436 110.522 45.7434C110.941 46.0501 111.408 46.2552 111.908 46.3861C112.906 46.6463 113.912 46.6739 114.924 46.4981C115.607 46.381 116.259 46.1707 116.842 45.7848C117.273 45.5004 117.62 45.1575 117.66 44.5975C117.674 44.4149 117.736 44.234 117.766 44.0513C117.792 43.8893 117.806 43.7256 117.833 43.4999C117.451 43.7842 117.129 44.0117 116.766 44.1754C116.392 44.3442 116.005 44.4631 115.604 44.5441C115.215 44.6217 114.822 44.663 114.424 44.6682C114.014 44.6734 113.609 44.6337 113.206 44.5648C112.816 44.4976 112.432 44.4028 112.06 44.2633C111.676 44.1185 111.311 43.941 110.965 43.7222C110.635 43.5103 110.372 43.2156 110.086 42.9709ZM107.703 36.8987C106.551 37.8274 105.202 38.079 103.766 37.9722C102.317 37.8636 101.027 37.3708 99.9836 36.2439C99.8902 36.878 99.8919 37.4466 99.8711 38.0118C99.8573 38.3995 100.015 38.6855 100.288 38.9285C100.551 39.1628 100.845 39.3541 101.174 39.4816C102.811 40.1209 104.455 40.1054 106.093 39.4833C106.565 39.3041 106.992 39.0405 107.329 38.6528C107.456 38.5081 107.54 38.3547 107.568 38.16C107.613 37.8378 107.684 37.519 107.741 37.1985C107.756 37.1123 107.796 37.0193 107.703 36.8987ZM74.4164 53.8145C73.1918 54.7863 71.841 55.0413 70.4037 54.9293C68.9646 54.8156 67.683 54.3279 66.6937 53.2544C66.6089 53.2941 66.6124 53.344 66.6089 53.3889C66.5553 53.8972 66.5518 54.4089 66.5276 54.9207C66.5051 55.3756 66.7023 55.6978 67.0396 55.9666C67.4374 56.2854 67.8888 56.4973 68.3748 56.6386C69.3313 56.9143 70.3034 56.9764 71.2858 56.8351C71.9586 56.7369 72.6089 56.5577 73.2091 56.2216C73.792 55.896 74.2538 55.4876 74.297 54.7553C74.3126 54.471 74.4147 54.1918 74.4164 53.8145ZM46.0455 35.8183C45.9521 36.4662 45.9538 37.0348 45.9331 37.6034C45.921 37.9911 46.0853 38.2754 46.3568 38.5167C46.6215 38.7493 46.9172 38.9388 47.2459 39.0664C48.8855 39.7056 50.5287 39.6849 52.1649 39.0595C52.625 38.8837 53.0435 38.6287 53.3739 38.2513C53.4828 38.129 53.5849 38.0032 53.6143 37.8343C53.6783 37.4673 53.7492 37.102 53.8115 36.7367C53.8253 36.6626 53.8634 36.5765 53.7561 36.492C52.6042 37.4053 51.2551 37.6655 49.8178 37.5535C48.3787 37.4397 47.0936 36.9573 46.0455 35.8183ZM89.6803 41.9457C89.5972 42.5781 89.5817 43.1674 89.5765 43.7601C89.573 44.0461 89.6751 44.2788 89.8636 44.4838C90.1196 44.7612 90.4257 44.9766 90.7716 45.1214C92.3957 45.802 94.0372 45.7917 95.6837 45.2179C96.0919 45.0748 96.4725 44.8663 96.7993 44.5786C96.9948 44.408 97.1851 44.2253 97.2421 43.9669C97.3321 43.5585 97.3943 43.145 97.4635 42.7331C97.4722 42.6832 97.4929 42.6142 97.4134 42.5901C95.4347 44.2426 91.5673 44.0324 89.6803 41.9457ZM35.7456 41.5132C35.6609 42.149 35.6453 42.7383 35.6384 43.3276C35.6349 43.6274 35.7404 43.8704 35.9411 44.0806C36.2109 44.3632 36.5292 44.5734 36.8872 44.725C38.1394 45.2609 39.4384 45.3195 40.7615 45.0783C41.4914 44.9439 42.1763 44.6906 42.7713 44.2322C43.0844 43.991 43.3248 43.705 43.3542 43.2863C43.3646 43.1484 43.4269 43.014 43.439 42.8779C43.4597 42.6435 43.5583 42.4144 43.5082 42.1559C41.3496 43.9255 37.4735 43.4879 35.7456 41.5132ZM84.7163 48.1144C83.49 49.1052 82.1253 49.3654 80.6793 49.2465C79.242 49.1293 77.9552 48.6279 76.9347 47.513C76.8482 48.1627 76.8327 48.752 76.8275 49.3447C76.824 49.6307 76.9261 49.8634 77.1163 50.0667C77.3827 50.3527 77.7009 50.5629 78.0572 50.7198C79.1313 51.1936 80.259 51.2867 81.4127 51.1643C82.1478 51.0868 82.8535 50.8955 83.5072 50.5354C83.7632 50.3924 84.0019 50.2287 84.2043 50.015C84.3738 49.8358 84.4914 49.6359 84.5294 49.3774C84.5865 48.9777 84.7041 48.5883 84.7163 48.1144Z" fill="white"/>
</g>
<path d="M123.776 60.2916C123.923 60.2916 124.018 60.3278 124.07 60.4329C124.126 60.5432 124.082 60.638 124.01 60.7207C123.909 60.8361 123.778 60.9137 123.652 60.9964C122.719 61.596 121.744 62.1164 120.772 62.6471C119.872 63.1382 118.961 63.6103 118.056 64.0894C117.973 64.1324 117.89 64.1772 117.806 64.2134C117.572 64.3099 117.434 64.2944 117.366 64.1703C117.302 64.0515 117.359 63.9222 117.563 63.7706C117.683 63.681 117.812 63.6 117.942 63.5242C118.779 63.0383 119.615 62.5506 120.454 62.0716C121.272 61.6029 122.093 61.1394 122.917 60.6793C123.11 60.5708 123.309 60.4743 123.51 60.3812C123.605 60.3364 123.709 60.314 123.776 60.2916Z" fill="white"/>
<path d="M71.3014 44.8818C71.1924 44.8766 71.099 44.8301 71.0125 44.7698C70.8395 44.6509 70.6804 44.5131 70.5334 44.3649C69.5648 43.3913 68.6222 42.3954 67.7245 41.3563C67.6398 41.2598 67.555 41.1633 67.5152 41.0393C67.4841 40.9462 67.4875 40.8532 67.5619 40.7808C67.6467 40.6947 67.7556 40.6895 67.8508 40.7481C67.958 40.8153 68.0566 40.8997 68.1517 40.9841C68.9456 41.6872 69.6669 42.4608 70.4002 43.2242C70.715 43.5516 71.0333 43.8755 71.3221 44.2236C71.412 44.3321 71.5037 44.439 71.5452 44.5751C71.6058 44.775 71.5106 44.8939 71.3014 44.8818Z" fill="white"/>
<path d="M62.5028 70.7336C62.3731 70.7216 62.2503 70.6888 62.1344 70.632C61.702 70.4218 61.2886 70.1823 60.9427 69.8445C60.2076 69.1294 59.5175 68.373 58.8326 67.6114C58.7547 67.5252 58.6786 67.4356 58.6389 67.3236C58.6043 67.2288 58.6077 67.1392 58.6786 67.0617C58.7582 66.9738 58.8637 66.9549 58.9658 67.0048C59.0574 67.0514 59.1422 67.1151 59.2235 67.1823C59.7441 67.6148 60.2145 68.1007 60.6833 68.5849C61.2125 69.1294 61.7435 69.6653 62.3731 70.0978C62.4994 70.184 62.6135 70.2839 62.6879 70.42C62.7969 70.6165 62.7259 70.7354 62.5028 70.7336Z" fill="white"/>
<path d="M79.2161 64.8303C78.2371 64.789 77.1907 64.6339 76.2342 64.1118C75.6928 63.8171 75.2276 63.4363 74.956 62.866C74.8332 62.6092 74.7762 62.3525 74.8177 62.0578C74.8799 61.6219 74.8592 61.1773 74.9041 60.7362C74.9664 60.1228 75.0408 59.5128 75.1186 58.9011C75.2691 57.7414 75.909 56.9436 76.9572 56.4956C78.9757 55.6306 80.9474 55.7943 82.8189 56.9264C83.4796 57.3279 83.9864 57.9 84.1904 58.6719C84.3375 59.2268 84.3651 59.7971 84.3098 60.3675C84.2475 61.0033 84.1749 61.6391 84.1074 62.2732C84.0642 62.6747 83.8584 62.9952 83.6024 63.2881C83.2184 63.7275 82.7358 64.0291 82.2083 64.26C81.3245 64.6477 80.3057 64.8096 79.2161 64.8303ZM80.1449 61.3341C80.5046 61.3514 80.9889 61.2962 81.4646 61.1653C81.9869 61.0188 82.4747 60.8051 82.8915 60.4519C83.547 59.8953 83.6871 59.0872 83.2443 58.3893C83.0818 58.1326 82.8846 57.9034 82.6286 57.7311C81.0114 56.6421 79.2818 56.4732 77.4571 57.1022C77.0333 57.2486 76.6735 57.5071 76.3691 57.8397C75.8796 58.3756 75.8122 59.051 76.191 59.6696C76.3899 59.9918 76.6562 60.252 76.9658 60.464C77.8843 61.0912 78.9117 61.3376 80.1449 61.3341ZM83.4951 61.0102C83.3706 61.0033 83.3135 61.0877 83.2426 61.1411C82.8206 61.4634 82.3501 61.6856 81.8468 61.8476C79.8405 62.4921 77.1025 61.9217 75.8935 60.5277C75.8502 60.4777 75.8018 60.4071 75.7223 60.445C75.6479 60.4812 75.6617 60.5656 75.6583 60.6328C75.634 61.0843 75.6219 61.5375 75.5839 61.9889C75.5389 62.511 75.7828 62.878 76.1771 63.1727C76.5248 63.4346 76.9088 63.631 77.3256 63.7551C78.8892 64.2135 80.432 64.1687 81.9437 63.5414C82.3571 63.3709 82.7272 63.1313 83.0264 62.7953C83.1215 62.6902 83.2184 62.5851 83.2478 62.4438C83.3499 61.9717 83.4675 61.4996 83.4951 61.0102Z" fill="white"/>
<path d="M90.6212 58.634C89.6751 58.6478 88.7636 58.4893 87.8901 58.1188C87.4145 57.9155 86.9786 57.6467 86.6275 57.2607C86.247 56.8403 86.036 56.3837 86.0982 55.7771C86.1657 55.1086 86.1847 54.4331 86.2643 53.7628C86.3144 53.3493 86.3715 52.934 86.4372 52.5205C86.6119 51.428 87.302 50.7405 88.2654 50.3011C89.298 49.8307 90.3911 49.7083 91.5154 49.8427C92.4805 49.9582 93.3886 50.2408 94.1859 50.8077C94.8587 51.2884 95.3759 51.8915 95.5246 52.7358C95.599 53.1597 95.6405 53.5905 95.6007 54.0213C95.5316 54.7502 95.4641 55.4773 95.3707 56.2045C95.3188 56.5973 95.0767 56.9092 94.8138 57.1935C94.4592 57.5743 94.0251 57.8466 93.5511 58.0534C92.6172 58.4583 91.6399 58.6513 90.6212 58.634ZM90.5987 50.5888C90.1974 50.5751 89.7218 50.6164 89.2582 50.7456C88.7584 50.8852 88.2914 51.092 87.8867 51.4211C87.1187 52.0449 87.0149 52.9202 87.6151 53.6973C88.0129 54.2108 88.5474 54.5365 89.1424 54.7674C90.1525 55.1585 91.1989 55.2774 92.2695 55.0931C93.0409 54.9604 93.7604 54.6967 94.3208 54.1212C94.8778 53.5526 94.9366 52.8082 94.4834 52.15C94.2551 51.8191 93.9559 51.5641 93.6151 51.3539C92.714 50.7956 91.7281 50.5716 90.5987 50.5888ZM94.7757 54.7898C92.8489 56.4595 88.8604 56.3113 87.0167 54.2418C86.9561 54.2729 86.944 54.3297 86.9423 54.3883C86.9146 54.9087 86.8904 55.4308 86.8645 55.9529C86.8472 56.2751 86.9769 56.5353 87.1965 56.7645C87.5459 57.1263 87.9731 57.3572 88.4401 57.5192C89.8774 58.0137 91.3217 57.9948 92.7659 57.5468C93.2588 57.3934 93.7155 57.1591 94.1098 56.8213C94.2793 56.6766 94.4557 56.5215 94.5111 56.3044C94.6391 55.815 94.7429 55.3188 94.7757 54.7898Z" fill="white"/>
<path d="M102.391 53.5405C101.447 53.5543 100.532 53.3958 99.6601 53.0253C99.1828 52.822 98.7486 52.5532 98.3975 52.1672C98.0153 51.7485 97.8146 51.2919 97.8648 50.6853C97.9374 49.8169 97.9945 48.9467 98.1035 48.0834C98.1294 47.8749 98.164 47.6682 98.1969 47.4631C98.3699 46.3569 99.0548 45.6521 100.032 45.2076C101.065 44.7354 102.158 44.6148 103.282 44.7475C104.247 44.863 105.155 45.1455 105.952 45.7124C106.617 46.1846 107.129 46.7773 107.286 47.6061C107.371 48.0524 107.409 48.5056 107.367 48.9588C107.3 49.6756 107.231 50.3941 107.139 51.1075C107.089 51.5021 106.845 51.8123 106.584 52.0966C106.229 52.4791 105.795 52.7514 105.321 52.9581C104.387 53.3648 103.41 53.556 102.391 53.5405ZM102.367 45.4936C101.966 45.4798 101.49 45.5212 101.025 45.6521C100.527 45.7917 100.06 45.9985 99.655 46.3276C98.887 46.9514 98.7815 47.8267 99.3834 48.6038C99.7812 49.1173 100.316 49.443 100.911 49.6739C101.921 50.065 102.967 50.1822 104.038 49.9978C104.809 49.8651 105.529 49.6032 106.089 49.0277C106.646 48.4591 106.705 47.713 106.252 47.0565C106.023 46.7256 105.722 46.4689 105.382 46.2587C104.482 45.7021 103.496 45.4764 102.367 45.4936ZM106.551 49.6756C105.354 50.6474 104.001 50.9231 102.55 50.8129C101.101 50.7026 99.8072 50.2218 98.804 49.1363C98.7227 49.1811 98.7123 49.2379 98.7089 49.2965C98.6829 49.8169 98.6587 50.339 98.631 50.8611C98.6155 51.185 98.7469 51.4435 98.9666 51.6727C99.316 52.0328 99.7432 52.2637 100.21 52.4257C101.647 52.9202 103.093 52.9013 104.536 52.4515C105.031 52.2982 105.487 52.0638 105.88 51.7261C106.124 51.5159 106.298 51.2712 106.352 50.9369C106.418 50.5372 106.511 50.1426 106.551 49.6756Z" fill="white"/>
<path d="M48.5068 53.1201C47.4967 53.1356 46.5834 52.9736 45.7117 52.6015C45.2568 52.4085 44.8417 52.1517 44.4992 51.7916C44.0928 51.3591 43.8748 50.887 43.9285 50.2529C44.0011 49.3861 44.0599 48.516 44.1671 47.651C44.1914 47.4442 44.2294 47.2374 44.2623 47.0306C44.4387 45.9261 45.1184 45.2007 46.1078 44.7871C48.0363 43.9807 49.9337 44.1203 51.7636 45.1266C52.1562 45.342 52.4762 45.6504 52.7685 45.9864C53.2701 46.5619 53.4189 47.2598 53.4362 47.9956C53.4517 48.6831 53.3652 49.3637 53.2753 50.0426C53.2615 50.1357 53.2338 50.227 53.2355 50.3183C53.2459 51.0403 52.8498 51.5452 52.3292 51.9691C51.6616 52.5118 50.8711 52.7893 50.0409 52.9685C49.5151 53.0805 48.9824 53.1408 48.5068 53.1201ZM49.0014 49.6635C49.6483 49.6618 50.181 49.5981 50.6964 49.4413C51.2603 49.269 51.7809 49.0139 52.1891 48.5711C52.6855 48.0352 52.7512 47.3287 52.3621 46.7101C52.1476 46.369 51.8622 46.0933 51.5163 45.8882C49.9095 44.9336 48.2248 44.8078 46.4796 45.4523C46.1268 45.5815 45.8155 45.7934 45.5508 46.0622C44.9507 46.6688 44.8953 47.4269 45.3917 48.1162C45.6131 48.4246 45.895 48.6641 46.2116 48.8657C47.0954 49.4292 48.0795 49.6274 49.0014 49.6635ZM52.6094 49.2569C51.4281 50.2287 50.0772 50.501 48.6278 50.3941C47.168 50.289 45.8708 49.798 44.859 48.7158C44.7864 48.771 44.776 48.8175 44.7725 48.864C44.7466 49.3844 44.7224 49.9065 44.6947 50.4286C44.6774 50.7508 44.8002 51.0127 45.0199 51.2436C45.3762 51.6158 45.8137 51.8502 46.2928 52.0139C47.7198 52.4998 49.1536 52.4791 50.5858 52.0363C51.0908 51.8795 51.5595 51.6434 51.9591 51.2919C52.1338 51.1368 52.3067 50.9714 52.3603 50.7353C52.4693 50.2615 52.5765 49.7876 52.6094 49.2569Z" fill="white"/>
<path d="M32.5683 48.4245C32.5424 49.7927 32.5182 51.1625 32.4871 52.5307C32.4819 52.7513 32.449 52.9701 32.4265 53.1889C32.4144 53.3061 32.3798 53.4181 32.3193 53.518C32.2155 53.6904 32.1152 53.6886 32.0166 53.5111C31.9526 53.3974 31.9232 53.2734 31.9111 53.1441C31.8298 52.3222 31.8333 51.5003 31.8886 50.6766C31.9007 50.4802 31.9042 50.282 31.9076 50.0856C31.9232 48.9828 31.9941 47.8817 32.0581 46.7824C32.065 46.6446 32.0962 46.5067 32.129 46.3706C32.1532 46.2672 32.1999 46.1621 32.3279 46.1604C32.4628 46.1569 32.4974 46.2655 32.513 46.3723C32.5355 46.5205 32.5562 46.6721 32.558 46.822C32.5649 47.3562 32.5614 47.8904 32.5614 48.4228C32.5632 48.4245 32.5666 48.4245 32.5683 48.4245Z" fill="white"/>
<path d="M31.8384 54.7415C31.8402 54.6157 31.8523 54.4882 31.9145 54.3745C32.0131 54.1988 32.1896 54.1919 32.2951 54.3573C32.4109 54.5417 32.3487 54.9879 32.1844 55.131C32.0875 55.2154 31.9958 55.2102 31.9197 55.1051C31.8402 54.9966 31.8384 54.869 31.8384 54.7415Z" fill="white"/>
<path d="M62.1603 62.0974C62.1707 61.0429 62.1742 59.9866 62.2468 58.9321C62.2676 58.6202 62.2987 58.3083 62.3298 57.9964C62.3402 57.9051 62.3644 57.8138 62.3921 57.7259C62.4284 57.6122 62.4838 57.5002 62.6256 57.5036C62.7674 57.5053 62.8159 57.6156 62.8453 57.7345C62.8799 57.8827 62.885 58.0326 62.8868 58.1842C62.9058 59.9952 62.8332 61.8045 62.8228 63.6138C62.8211 63.8671 62.7709 64.1204 62.738 64.3737C62.7277 64.4529 62.7034 64.5339 62.6706 64.6063C62.6187 64.7252 62.5564 64.8527 62.4025 64.8441C62.2434 64.8337 62.207 64.6924 62.1846 64.5684C62.1638 64.4546 62.1621 64.3375 62.1621 64.222C62.1603 63.5138 62.1603 62.8056 62.1603 62.0974Z" fill="white"/>
<path d="M62.6723 65.7764C62.6481 65.8901 62.6619 66.0314 62.5201 66.09C62.425 66.1279 62.3212 66.0021 62.2762 65.8108C62.2468 65.6816 62.2468 65.5592 62.3541 65.4645C62.4008 65.4231 62.4596 65.4162 62.5149 65.4455C62.6464 65.5144 62.6533 65.6454 62.6723 65.7764Z" fill="white"/>
<path d="M113.668 43.4051C113.284 43.3724 112.9 43.3551 112.525 43.2638C112.108 43.1622 111.74 42.9743 111.451 42.6469C111.103 42.2524 111.013 41.7871 111.072 41.2805C111.077 41.2357 111.093 41.1909 111.112 41.1496C111.143 41.0824 111.191 41.0324 111.273 41.041C111.339 41.0462 111.382 41.0893 111.401 41.1461C111.439 41.2547 111.475 41.3667 111.496 41.4804C111.61 42.1438 112.03 42.5108 112.656 42.6849C112.983 42.7745 113.314 42.8451 113.648 42.8968C113.867 42.9313 114.082 42.9864 114.284 43.0794C114.336 43.1036 114.393 43.1329 114.395 43.2001C114.396 43.2897 114.32 43.3121 114.256 43.3293C114.063 43.381 113.869 43.4172 113.668 43.4051Z" fill="white"/>
<path d="M103.405 36.3455C103.052 36.299 102.689 36.3059 102.338 36.2077C101.424 35.9544 100.959 34.8378 101.423 34.0124C101.462 33.9401 101.507 33.8729 101.575 33.8246C101.656 33.7695 101.744 33.7316 101.834 33.7936C101.919 33.8505 101.89 33.9349 101.865 34.0142C101.798 34.2278 101.767 34.4432 101.781 34.6672C101.815 35.2186 102.057 35.527 102.592 35.6563C102.908 35.7321 103.232 35.7821 103.554 35.8389C103.749 35.8734 103.939 35.9251 104.124 35.9992C104.178 36.0199 104.24 36.0526 104.242 36.1129C104.244 36.1973 104.168 36.2215 104.1 36.2421C103.875 36.3111 103.642 36.3197 103.405 36.3455Z" fill="white"/>
<path d="M70.3916 53.2682C69.9436 53.2424 69.5406 53.1958 69.1497 53.0614C68.9283 52.9839 68.7242 52.8753 68.534 52.7375C67.7626 52.1792 67.7643 51.4314 68.1448 50.7025C68.1725 50.6525 68.2105 50.606 68.2503 50.5629C68.2987 50.5078 68.3627 50.4785 68.4371 50.5078C68.5132 50.5371 68.534 50.6077 68.5271 50.6784C68.5115 50.8059 68.4907 50.9317 68.4665 51.0574C68.3351 51.7346 68.4769 52.0345 69.0805 52.3774C69.4299 52.5755 69.8173 52.6651 70.1996 52.7616C70.4262 52.8202 70.651 52.8839 70.8517 53.0063C70.9035 53.039 70.9537 53.0787 70.9399 53.1424C70.926 53.2044 70.8655 53.2303 70.8067 53.2372C70.6545 53.251 70.504 53.2596 70.3916 53.2682Z" fill="white"/>
<path d="M39.1686 41.782C38.4162 41.7596 37.7831 41.4994 37.3334 40.874C36.8682 40.2278 37.0325 39.2594 37.6863 38.8028C37.7416 38.7631 37.8074 38.7356 37.8731 38.7149C37.9284 38.6977 37.989 38.708 38.0322 38.758C38.0755 38.8114 38.0582 38.8683 38.0288 38.9182C37.9544 39.0492 37.8679 39.175 37.8004 39.3076C37.4597 39.9866 37.5687 40.4208 38.1896 40.8705C38.4387 41.0497 38.7206 41.1531 39.0146 41.2306C39.2274 41.2875 39.447 41.334 39.6321 41.4633C39.7705 41.558 39.7636 41.6545 39.6114 41.7114C39.4695 41.7648 39.3208 41.7906 39.1686 41.782Z" fill="white"/>
<path d="M59.7544 42.8641C59.0159 42.8934 58.4174 42.597 57.9297 42.0646C57.4748 41.5683 57.4091 40.7085 57.774 40.1467C57.8 40.1071 57.8259 40.0675 57.8588 40.0347C57.9331 39.9606 58.0162 39.8796 58.132 39.9468C58.2306 40.0037 58.2099 40.1054 58.1857 40.1967C58.1303 40.4104 58.0715 40.6206 58.0611 40.8446C58.0404 41.3047 58.2272 41.6544 58.6042 41.9095C58.9467 42.1404 59.3238 42.2886 59.7371 42.3385C59.9793 42.3678 60.2249 42.3902 60.4515 42.4936C60.5137 42.5229 60.5881 42.5505 60.5829 42.6366C60.5795 42.7211 60.5051 42.7452 60.4428 42.7745C60.2232 42.8744 59.9879 42.8624 59.7544 42.8641Z" fill="white"/>
<path d="M93.4162 42.3644C92.5912 42.4109 91.9011 42.1059 91.3666 41.4649C91.0086 41.0358 90.8841 40.5448 91.0501 40.0003C91.0916 39.8641 91.1522 39.7401 91.2663 39.6487C91.3251 39.6039 91.3909 39.5833 91.4618 39.616C91.5396 39.6539 91.5413 39.7228 91.531 39.7952C91.5275 39.8073 91.524 39.8176 91.524 39.8297C91.403 40.8377 91.908 41.5373 92.9354 41.7613C93.264 41.8336 93.603 41.8595 93.9369 41.9146C94.0735 41.937 94.2084 41.9767 94.3416 42.018C94.3935 42.0352 94.4523 42.068 94.4454 42.1404C94.4384 42.2093 94.3796 42.2317 94.326 42.2506C94.0354 42.354 93.7345 42.3781 93.4162 42.3644Z" fill="white"/>
<path d="M49.7088 36.0027C49.1796 35.9579 48.6434 35.8769 48.1833 35.5271C47.4603 34.9792 47.3116 34.0694 47.8391 33.3285C47.865 33.2905 47.8945 33.2526 47.9273 33.2216C48.0242 33.1286 48.1349 33.0493 48.2681 33.1337C48.3926 33.213 48.3563 33.3405 48.3199 33.4508C48.2335 33.7058 48.1677 33.9608 48.1712 34.2331C48.1747 34.5208 48.2888 34.7483 48.5085 34.9292C48.7541 35.1343 49.0377 35.2618 49.3473 35.3445C49.5826 35.4082 49.8195 35.4703 50.053 35.5427C50.1395 35.5702 50.226 35.615 50.3004 35.6684C50.4197 35.7511 50.4093 35.8339 50.2727 35.8993C50.1032 35.9803 49.9181 36.0096 49.7088 36.0027Z" fill="white"/>
<path d="M80.9353 47.7974C80.5617 47.763 80.1639 47.763 79.7765 47.6682C79.3613 47.5665 78.986 47.3873 78.6954 47.0634C78.263 46.5826 78.2129 46.0278 78.3824 45.4333C78.4152 45.3196 78.4775 45.2024 78.6211 45.2231C78.7664 45.242 78.7802 45.3747 78.7906 45.4919C78.7992 45.597 78.7975 45.7021 78.8009 45.8055C78.8165 46.3793 79.095 46.7687 79.6312 46.9755C80.0394 47.1306 80.4666 47.1857 80.8972 47.2202C81.3054 47.2529 81.7067 47.3115 82.0993 47.427C82.1685 47.4459 82.2515 47.4683 82.2515 47.5476C82.2533 47.6286 82.1685 47.6492 82.1011 47.6647C81.724 47.7509 81.34 47.775 80.9353 47.7974Z" fill="white"/>
<path d="M79.7955 60.3967C79.1452 60.3588 78.6107 60.2192 78.1472 59.8694C77.5401 59.4111 77.2841 58.6288 77.5211 57.9447C77.5833 57.7672 77.6646 57.6001 77.822 57.4829C77.9016 57.4261 77.9915 57.3882 78.0797 57.4554C78.1593 57.5139 78.1351 57.6001 78.1109 57.6794C78.0884 57.7448 78.0642 57.8103 78.0469 57.8775C77.8635 58.5426 78.0867 59.0992 78.6851 59.4542C78.9463 59.611 79.2317 59.7126 79.524 59.7971C79.7021 59.8505 79.8872 59.8918 80.0498 59.9866C80.1553 60.0469 80.323 60.0883 80.2902 60.2434C80.2642 60.3709 80.1086 60.364 79.9944 60.3795C79.9028 60.3933 79.8094 60.395 79.7955 60.3967Z" fill="white"/>
<path d="M89.151 52.2465C89.1302 52.8478 89.3239 53.1425 89.8878 53.3682C90.1801 53.4837 90.4828 53.5629 90.7889 53.637C90.993 53.687 91.1954 53.7456 91.3805 53.8455C91.4687 53.8938 91.6105 53.9179 91.5984 54.0385C91.588 54.1695 91.4427 54.1471 91.3459 54.1695C91.019 54.2487 90.6973 54.1729 90.3755 54.1333C89.9449 54.0781 89.535 53.9506 89.1804 53.6853C88.7203 53.3424 88.5058 52.7307 88.6632 52.2017C88.7013 52.0793 88.7497 51.9604 88.8466 51.8708C88.9088 51.814 88.9815 51.7726 89.068 51.8019C89.1631 51.8346 89.17 51.9191 89.1665 52.0035C89.1631 52.0845 89.1562 52.1655 89.151 52.2465Z" fill="white"/>
<path d="M102.345 49.2758C101.971 49.2861 101.599 49.2706 101.239 49.1535C100.957 49.0621 100.696 48.9329 100.49 48.721C100.068 48.2885 100.056 47.6561 100.331 47.1736C100.355 47.134 100.387 47.0978 100.418 47.065C100.47 47.0134 100.535 46.9823 100.608 47.0134C100.682 47.0444 100.701 47.1133 100.694 47.1874C100.682 47.3373 100.655 47.4855 100.649 47.6354C100.632 48.1299 100.786 48.3625 101.251 48.5331C101.739 48.7123 102.256 48.721 102.765 48.752C103.023 48.7692 103.277 48.7795 103.526 48.8416C103.611 48.864 103.732 48.8691 103.728 48.9932C103.726 49.088 103.626 49.1069 103.55 49.1328C103.239 49.2413 102.917 49.2792 102.588 49.2758C102.507 49.2758 102.426 49.2758 102.345 49.2758Z" fill="white"/>
<path d="M47.9325 48.8312C47.6091 48.7968 47.3012 48.7502 47.0003 48.6469C46.2116 48.3746 45.6857 46.9772 46.4243 46.1397C46.5004 46.0501 46.5834 45.9691 46.6958 45.9261C46.7754 45.8968 46.8567 45.8916 46.919 45.9657C46.9709 46.0277 46.957 46.0967 46.9259 46.1621C46.8948 46.2242 46.855 46.2828 46.8204 46.3431C46.3759 47.1254 46.6993 47.9714 47.5555 48.2695C47.763 48.3419 47.9827 48.3884 48.1729 48.5056C48.2404 48.5469 48.3338 48.5831 48.3182 48.6796C48.3044 48.7778 48.2075 48.7864 48.128 48.8019C48.0605 48.8157 47.9913 48.8226 47.9325 48.8312Z" fill="white"/>
<path d="M0.0142694 121.516C-0.00475647 115.299 -0.00475647 112.184 0.0142694 112.17C0.0142694 112.153 0.355004 112.142 1.0382 112.142C1.71967 112.142 2.06905 112.153 2.08289 112.17C2.10019 112.17 2.11056 114.965 2.11056 120.551V128.953H11.1599V130.89H0.0419433C0.0229174 130.876 0.0142694 127.752 0.0142694 121.516Z" fill="#040053"/>
<path d="M16.9637 112.191C17.0329 112.177 18.7037 112.17 21.9796 112.17C23.5985 112.184 24.875 112.191 25.8124 112.191C26.7481 112.191 27.3621 112.191 27.6527 112.191H27.9364V114.107H18.8801V120.241H27.2169V122.205H18.8801L18.8594 122.433C18.8594 122.521 18.8594 122.839 18.8594 123.391C18.8594 123.942 18.8663 124.735 18.8801 125.769V128.905H27.9571V129.849C27.9571 130.511 27.9502 130.85 27.9364 130.869H22.284C18.6345 130.869 16.8115 130.859 16.8115 130.842C16.7925 130.823 16.7838 128.04 16.7838 122.488V112.191H16.9637Z" fill="#040053"/>
<path d="M40.5407 112.039C41.0665 112.077 41.4141 112.12 41.5854 112.17C41.5854 112.17 41.6286 112.17 41.7168 112.17C41.748 112.184 41.786 112.196 41.8275 112.204C41.8725 112.215 41.9278 112.235 41.9936 112.267C42.1821 112.322 42.2859 112.349 42.3049 112.349C42.3551 112.382 42.381 112.403 42.381 112.411C42.381 112.422 42.3966 112.425 42.4294 112.425C42.4658 112.425 42.5505 112.46 42.6854 112.528C42.8238 112.594 42.9691 112.665 43.1213 112.742C43.2735 112.816 43.4205 112.892 43.5641 112.97C43.7111 113.049 43.801 113.104 43.8339 113.135C43.9031 113.187 43.948 113.225 43.9722 113.252C43.9999 113.276 44.0224 113.297 44.0414 113.314C44.23 113.452 44.4375 113.631 44.6641 113.852C44.8941 114.072 45.0688 114.258 45.1899 114.41C45.2072 114.443 45.2331 114.477 45.266 114.513C45.3853 114.634 45.5012 114.799 45.6119 115.01C45.7226 115.222 45.8229 115.451 45.9163 115.699C46.0132 115.944 46.0858 116.18 46.1377 116.409C46.1879 116.64 46.2225 116.84 46.2415 117.009C46.2726 117.129 46.2726 117.214 46.2415 117.264C46.2415 117.296 46.2415 117.331 46.2415 117.367C46.1896 117.367 46.1308 117.367 46.0616 117.367C46.0097 117.367 45.9457 117.367 45.8679 117.367C45.7935 117.367 45.6967 117.374 45.5773 117.388C45.1484 117.439 44.9166 117.448 44.8855 117.415C44.8163 116.855 44.5845 116.35 44.1936 115.899C43.801 115.449 43.3738 115.079 42.9137 114.789C42.8117 114.706 42.7356 114.656 42.6854 114.638C42.6526 114.606 42.6266 114.581 42.6093 114.562C42.5903 114.562 42.5488 114.546 42.4848 114.513C42.2444 114.376 41.9884 114.277 41.7168 114.217C41.4435 114.158 41.153 114.103 40.8451 114.052C40.6548 114.021 40.475 114.003 40.3055 114.003C40.1342 114.003 39.9734 114.01 39.8212 114.024C39.6309 114.024 39.5202 114.043 39.4891 114.079C39.4562 114.079 39.3715 114.084 39.2331 114.093C39.0982 114.103 39.0134 114.124 38.9771 114.155L38.9287 114.183C38.9287 114.183 38.8941 114.2 38.8249 114.231C38.6208 114.283 38.4306 114.355 38.2507 114.451C38.0708 114.544 37.8944 114.65 37.7249 114.768C37.692 114.782 37.628 114.837 37.5312 114.934C37.4378 115.027 37.3409 115.123 37.2406 115.223C37.1385 115.325 37.0486 115.42 36.9708 115.506C36.8912 115.589 36.8531 115.649 36.8531 115.685C36.8203 115.718 36.7874 115.778 36.7563 115.864C36.7182 115.897 36.6958 115.913 36.6871 115.913C36.6819 115.913 36.6698 115.923 36.6525 115.94C36.6525 115.954 36.6421 115.98 36.6248 116.016L36.5211 116.216C36.3862 116.455 36.2806 116.669 36.2028 116.857C36.1284 117.041 36.0644 117.219 36.0091 117.388C35.9762 117.508 35.9416 117.581 35.9053 117.608C35.8725 117.632 35.8655 117.687 35.8846 117.774C35.8327 117.925 35.8085 118.001 35.8085 118.001C35.8085 118.02 35.7981 118.035 35.7808 118.049C35.7116 118.22 35.6597 118.413 35.6286 118.628C35.5957 118.84 35.5611 119.073 35.5248 119.324C35.4729 119.734 35.4349 120.151 35.4072 120.579C35.383 121.003 35.3882 121.444 35.421 121.902C35.4383 122.343 35.4643 122.734 35.4971 123.074C35.5335 123.41 35.568 123.732 35.6009 124.039C35.6182 124.159 35.632 124.244 35.6424 124.294C35.6511 124.346 35.6563 124.387 35.6563 124.418C35.6701 124.437 35.677 124.464 35.677 124.501C35.6943 124.514 35.7047 124.556 35.7047 124.625C35.7358 124.763 35.7618 124.831 35.7808 124.831C35.7808 124.814 35.7981 124.871 35.8361 125.004V125.086L35.8569 125.183C35.8742 125.235 35.9001 125.319 35.933 125.438C35.9693 125.559 36.0091 125.683 36.0506 125.81C36.0921 125.939 36.1336 126.05 36.1751 126.141C36.2201 126.234 36.2512 126.279 36.2651 126.279V126.334L36.3204 126.382V126.43L36.3412 126.486C36.3585 126.505 36.3862 126.572 36.4242 126.686C36.7788 127.454 37.2977 128.057 37.9809 128.498C38.6623 128.939 39.4303 129.177 40.2847 129.208C41.1322 129.244 41.7964 129.101 42.2772 128.774C42.701 128.522 43.0746 128.164 43.398 127.699C43.7249 127.23 43.9999 126.717 44.2213 126.155C44.4427 125.595 44.6087 125.023 44.7194 124.439C44.8301 123.851 44.8855 123.319 44.8855 122.84V122.688H40.2847V120.627H46.6497V120.751C46.6307 120.682 46.6255 120.748 46.6359 120.944C46.6445 121.137 46.6497 121.337 46.6497 121.544V122.254C46.6497 122.323 46.6583 122.402 46.6774 122.488C46.6393 122.81 46.6082 123.129 46.5805 123.446C46.5563 123.76 46.52 124.077 46.4698 124.397C46.4508 124.499 46.437 124.575 46.4283 124.625C46.4231 124.676 46.4214 124.711 46.4214 124.728C46.3833 124.83 46.3522 124.961 46.3245 125.121C46.3003 125.283 46.264 125.466 46.2138 125.672C46.2138 125.705 46.2086 125.731 46.2 125.748C46.1896 125.762 46.1792 125.788 46.1654 125.824C46.1135 126.127 46.0097 126.479 45.8541 126.878C45.7019 127.278 45.5185 127.675 45.3075 128.064C45.0948 128.455 44.8647 128.82 44.6157 129.16C44.3701 129.499 44.1279 129.761 43.8892 129.946C43.82 129.982 43.7854 130.001 43.7854 130.001C43.7024 130.083 43.6609 130.125 43.6609 130.125C43.6419 130.125 43.6229 130.133 43.6056 130.152C43.6056 130.183 43.4897 130.259 43.2596 130.38C43.0279 130.499 42.8376 130.583 42.6854 130.635C42.5332 130.704 42.3706 130.754 42.2011 130.787C42.0299 130.823 41.8431 130.866 41.6407 130.917C41.3813 130.948 41.0942 130.969 40.7759 130.979C40.4611 130.988 40.1481 130.979 39.835 130.952C39.5202 130.928 39.2054 130.886 38.8872 130.828C38.5724 130.768 38.287 130.697 38.0293 130.614C37.756 130.526 37.5 130.432 37.2613 130.332C37.0261 130.23 36.8134 130.111 36.6248 129.973C36.592 129.94 36.5522 129.906 36.5072 129.87C36.4657 129.837 36.438 129.822 36.4242 129.822C35.7047 129.26 35.1322 128.608 34.7084 127.864C34.2829 127.116 34.0027 126.3 33.8644 125.417L33.7883 125.031C33.7364 124.811 33.6983 124.583 33.6707 124.349C33.6464 124.111 33.617 123.853 33.5807 123.577C33.5807 123.546 33.5703 123.47 33.553 123.35C33.5392 123.231 33.5323 123.129 33.5323 123.046C33.4302 122.045 33.4302 120.965 33.5323 119.807C33.5496 119.674 33.5669 119.541 33.5807 119.407C33.598 119.269 33.624 119.124 33.6568 118.973C33.726 118.394 33.8505 117.794 34.0304 117.174C34.2103 116.554 34.4524 115.959 34.7569 115.389C35.0647 114.82 35.4314 114.303 35.8569 113.838C36.2858 113.369 36.7719 113.001 37.3167 112.728C37.8788 112.439 38.4063 112.253 38.901 112.17C39.394 112.084 39.9405 112.039 40.5407 112.039Z" fill="#040053"/>
<path d="M58.6919 112.115C58.7749 112.101 58.896 112.094 59.0585 112.094C59.2194 112.094 59.42 112.094 59.6604 112.094C59.8991 112.108 60.0963 112.115 60.2485 112.115C60.4007 112.115 60.5045 112.125 60.5598 112.142C60.693 112.175 60.8158 112.196 60.9265 112.204C61.0372 112.215 61.1358 112.235 61.224 112.266C61.5786 112.373 61.902 112.492 62.1926 112.625H62.241C62.2583 112.644 62.2687 112.652 62.2687 112.652C62.286 112.671 62.2964 112.68 62.2964 112.68C62.2964 112.644 62.3379 112.651 62.4209 112.701C62.5074 112.752 62.5679 112.795 62.6008 112.832L62.9882 113.031C63.0384 113.083 63.0712 113.107 63.0851 113.107C63.1024 113.107 63.1474 113.135 63.2165 113.19C63.2338 113.204 63.2944 113.245 63.3964 113.314C63.4794 113.383 63.5849 113.478 63.7147 113.597C63.8427 113.717 63.9741 113.845 64.109 113.983C64.2474 114.117 64.3719 114.243 64.4826 114.362C64.5933 114.477 64.6573 114.569 64.6763 114.637C64.6902 114.689 64.7144 114.713 64.7524 114.713C64.7524 114.713 64.7594 114.724 64.7732 114.741C64.7905 114.774 64.8164 114.808 64.8493 114.844V114.892H64.877L64.9046 114.948V114.968C64.9219 114.987 64.9479 115.017 64.9807 115.058C65.0119 115.099 65.0534 115.165 65.1053 115.251C65.2246 115.421 65.2852 115.516 65.2852 115.533C65.2852 115.547 65.2938 115.564 65.3128 115.582C65.344 115.601 65.3699 115.651 65.3889 115.733C65.6466 116.212 65.8334 116.662 65.9493 117.084C65.9666 117.136 65.977 117.177 65.977 117.208C66.0272 117.329 66.0773 117.498 66.1292 117.718C66.1465 117.756 66.1569 117.773 66.1569 117.773C66.2261 117.994 66.3022 118.385 66.3852 118.945C66.4025 118.978 66.4129 119.024 66.4129 119.083C66.4129 119.143 66.4215 119.207 66.4405 119.276C66.4907 119.631 66.5063 119.867 66.489 119.986C66.489 120.038 66.4976 120.089 66.5166 120.144C66.5305 120.296 66.5409 120.496 66.5512 120.744C66.5599 120.989 66.5651 121.289 66.5651 121.647C66.5651 122.002 66.5599 122.307 66.5512 122.564C66.5409 122.817 66.5305 123.038 66.5166 123.225C66.5166 123.258 66.5115 123.293 66.5028 123.329C66.4924 123.362 66.489 123.394 66.489 123.425C66.489 123.463 66.489 123.487 66.489 123.501C66.489 123.622 66.4838 123.725 66.4751 123.811C66.4648 123.894 66.4613 123.961 66.4613 124.011C66.4475 124.08 66.4405 124.14 66.4405 124.19C66.4405 124.242 66.4302 124.292 66.4129 124.342C66.361 124.733 66.2883 125.138 66.1915 125.555C66.0981 125.969 65.9597 126.355 65.7764 126.713V126.741C65.7764 126.754 65.766 126.772 65.7487 126.789C65.7487 126.827 65.7228 126.896 65.6726 126.996L65.5204 127.299C65.4823 127.368 65.465 127.402 65.465 127.402L65.3889 127.526C65.3889 127.526 65.3716 127.561 65.3405 127.63C65.3215 127.681 65.2817 127.754 65.2229 127.85C65.1624 127.943 65.0984 128.04 65.0292 128.14C64.9635 128.241 64.9012 128.331 64.8424 128.409C64.7818 128.488 64.7421 128.533 64.7248 128.546L64.6971 128.574V128.602C64.6971 128.615 64.6902 128.633 64.6763 128.65C64.6573 128.683 64.5968 128.753 64.4965 128.863C64.3944 128.974 64.2837 129.084 64.1644 129.194C64.0433 129.305 63.9361 129.404 63.8392 129.498C63.7458 129.594 63.6905 129.642 63.6732 129.642H63.6524C63.6143 129.678 63.5798 129.704 63.5486 129.718C63.5158 129.754 63.4691 129.789 63.4103 129.821C63.3497 129.852 63.2857 129.894 63.2165 129.946C62.8931 130.17 62.5524 130.354 62.1926 130.497C61.8328 130.638 61.4558 130.754 61.0649 130.842C60.5893 130.924 60.1465 130.974 59.7366 130.993C59.3301 131.01 58.9478 130.995 58.5881 130.945C58.4999 130.926 58.422 130.917 58.3529 130.917C58.2871 130.917 58.2387 130.907 58.2076 130.89C58.0692 130.876 57.981 130.864 57.9447 130.855C57.9118 130.845 57.8703 130.842 57.8201 130.842C57.7181 130.804 57.6333 130.78 57.5642 130.766C57.5313 130.766 57.4759 130.752 57.3981 130.724C57.3185 130.7 57.2632 130.68 57.2321 130.662C56.9917 130.611 56.8049 130.552 56.6717 130.483C56.0715 130.263 55.4903 129.897 54.9282 129.387C54.3644 128.877 53.9216 128.367 53.5999 127.857C53.2955 127.352 53.0481 126.78 52.8596 126.141C52.6693 125.503 52.5344 124.776 52.4514 123.963V123.86L52.403 123.577V123.48C52.403 123.293 52.3978 123.077 52.3891 122.833C52.3788 122.584 52.3753 122.291 52.3753 121.95C52.3753 121.611 52.3753 121.32 52.3753 121.075C52.3753 120.827 52.384 120.618 52.403 120.448C52.403 120.379 52.4099 120.3 52.4237 120.207C52.441 120.11 52.4601 119.986 52.4791 119.834C52.5292 119.376 52.5794 118.993 52.6313 118.69C52.6451 118.654 52.652 118.58 52.652 118.47C52.652 118.359 52.6693 118.289 52.7074 118.256C52.7904 117.746 52.9253 117.236 53.1156 116.726C53.3041 116.216 53.5393 115.733 53.8213 115.278C54.1015 114.82 54.4249 114.394 54.7898 114.003C55.1583 113.614 55.5716 113.283 56.0283 113.011C56.0784 112.975 56.1199 112.949 56.1528 112.935C56.1891 112.918 56.2254 112.899 56.2635 112.88C56.433 112.747 56.6544 112.637 56.9277 112.549C56.9415 112.532 57.0418 112.497 57.2321 112.446C57.4016 112.396 57.4967 112.363 57.5157 112.349C57.7682 112.244 58.1609 112.166 58.6919 112.115ZM60.1724 114.258C59.8818 114.208 59.5221 114.196 59.0931 114.224C58.6676 114.248 58.32 114.326 58.0484 114.458C57.9464 114.496 57.9049 114.513 57.9239 114.513C57.8859 114.513 57.8616 114.52 57.8478 114.534C57.8098 114.553 57.7752 114.567 57.744 114.575C57.7112 114.586 57.6697 114.606 57.6195 114.637C57.5313 114.675 57.4362 114.724 57.3358 114.782C57.2338 114.837 57.1387 114.899 57.0522 114.968C56.9501 115.02 56.8516 115.089 56.7547 115.175C56.6613 115.258 56.5748 115.344 56.4918 115.43C56.4589 115.43 56.4243 115.451 56.388 115.492C56.3552 115.533 56.3292 115.554 56.3119 115.554L56.0836 115.788C55.9816 115.94 55.8709 116.076 55.7515 116.195C55.7135 116.247 55.691 116.271 55.6823 116.271C55.6771 116.271 55.6754 116.276 55.6754 116.285C55.6754 116.29 55.6616 116.316 55.6339 116.361C55.6097 116.402 55.5647 116.474 55.4955 116.574C55.3935 116.712 55.3295 116.802 55.3018 116.843C55.2741 116.884 55.2551 116.91 55.2465 116.919C55.2413 116.929 55.2395 116.938 55.2395 116.946C55.2395 116.957 55.2205 117.002 55.1842 117.084C55.1513 117.153 55.1167 117.227 55.0804 117.305C55.0476 117.379 54.9974 117.467 54.9282 117.567C54.8763 117.705 54.8314 117.829 54.7898 117.939C54.7483 118.049 54.7276 118.115 54.7276 118.132C54.6895 118.266 54.6549 118.383 54.6238 118.483C54.5546 118.621 54.5027 118.785 54.4716 118.973C54.4387 119.157 54.4041 119.359 54.3678 119.579C54.3488 119.631 54.335 119.669 54.3263 119.696C54.3211 119.721 54.3194 119.776 54.3194 119.862C54.3004 119.895 54.2917 119.934 54.2917 119.979C54.2917 120.02 54.2813 120.058 54.264 120.089C54.2502 120.158 54.2433 120.575 54.2433 121.337C54.2433 122.086 54.2502 122.486 54.264 122.536C54.2813 122.569 54.2917 122.609 54.2917 122.653C54.2917 122.695 54.3004 122.75 54.3194 122.819C54.3194 122.901 54.3436 123.072 54.3955 123.329C54.3955 123.362 54.4111 123.453 54.4439 123.604C54.4802 123.756 54.5148 123.918 54.5477 124.087C54.5788 124.258 54.6117 124.411 54.6446 124.549C54.6809 124.687 54.7086 124.762 54.7276 124.776C54.7449 124.814 54.7795 124.912 54.8314 125.073C54.8815 125.235 54.923 125.355 54.9559 125.438C54.9732 125.476 54.9905 125.51 55.0043 125.541C55.0216 125.574 55.0493 125.624 55.0873 125.693C55.1704 125.951 55.2759 126.2 55.4056 126.437C55.5336 126.672 55.691 126.892 55.876 127.099C56.0144 127.283 56.1251 127.401 56.2081 127.45C56.2583 127.502 56.2842 127.545 56.2842 127.581L56.3119 127.602C56.3119 127.571 56.3552 127.599 56.4434 127.685C56.5765 127.8 56.7028 127.911 56.8239 128.016C56.9432 128.117 57.0626 128.202 57.1836 128.271L57.3635 128.367C57.4638 128.474 57.6022 128.56 57.7786 128.629C57.9585 128.695 58.1488 128.745 58.3529 128.781C58.5604 128.813 58.7645 128.839 58.9686 128.857C59.1762 128.87 59.3457 128.877 59.4806 128.877C60.4526 128.877 61.3382 128.627 62.1373 128.126C62.9398 127.626 63.521 126.918 63.8807 126.003C63.9118 125.898 63.9291 125.845 63.9291 125.845C63.9291 125.831 63.9291 125.815 63.9291 125.796C64.0156 125.627 64.0969 125.41 64.1713 125.148C64.2491 124.886 64.3235 124.607 64.3927 124.308C64.4619 124.009 64.512 123.72 64.5449 123.439C64.5812 123.16 64.6071 122.919 64.621 122.715C64.7213 121.557 64.6971 120.472 64.5449 119.455C64.512 119.199 64.4774 118.999 64.4411 118.856C64.4082 118.709 64.3823 118.62 64.365 118.587C64.365 118.57 64.3391 118.483 64.2889 118.332C64.2699 118.249 64.2508 118.187 64.2336 118.146C64.2197 118.101 64.2024 118.061 64.1851 118.029C64.1851 118.029 64.1678 117.96 64.1367 117.822C64.0537 117.584 63.9326 117.329 63.7769 117.057C63.6247 116.786 63.4483 116.516 63.2511 116.243C63.0574 115.973 62.8447 115.723 62.6146 115.492C62.3829 115.263 62.158 115.082 61.9366 114.948C61.9038 114.93 61.883 114.91 61.8744 114.886C61.864 114.858 61.819 114.827 61.736 114.789C61.6668 114.758 61.608 114.734 61.563 114.72C61.5215 114.703 61.4938 114.684 61.48 114.665C61.3088 114.579 61.1151 114.498 60.8989 114.424C60.6861 114.346 60.444 114.291 60.1724 114.258Z" fill="#040053"/>
<path d="M72.1856 120.296L72.2133 120.22H76.9939C80.1661 120.22 81.7608 120.227 81.7746 120.241V122.385L81.7538 122.46L76.9939 122.433H72.1856V120.296Z" fill="#040053"/>
<path d="M92.2561 130.842V114.024H89.5994L86.915 114.003V112.191C86.915 112.177 89.0459 112.17 93.3077 112.17H99.6519V114.024H94.3316V130.869L93.792 130.842H92.2561Z" fill="#040053"/>
<path d="M105.449 112.191C105.518 112.177 107.189 112.17 110.465 112.17C112.084 112.184 113.361 112.191 114.298 112.191C115.234 112.191 115.848 112.191 116.138 112.191H116.422V114.107H107.366V120.241H115.702V122.205H107.366L107.345 122.433C107.345 122.521 107.345 122.839 107.345 123.391C107.345 123.942 107.352 124.735 107.366 125.769V128.905H116.443V129.849C116.443 130.511 116.436 130.85 116.422 130.869H110.77C107.12 130.869 105.297 130.859 105.297 130.842C105.278 130.823 105.269 128.04 105.269 122.488V112.191H105.449Z" fill="#040053"/>
<path d="M127.746 111.991C127.797 111.973 127.893 111.963 128.037 111.963C128.184 111.963 128.369 111.963 128.59 111.963C128.812 111.963 128.993 111.963 129.137 111.963C129.284 111.963 129.389 111.973 129.455 111.991C130.036 112.06 130.522 112.187 130.915 112.37C130.932 112.37 130.953 112.375 130.977 112.384C131.005 112.394 131.06 112.415 131.143 112.446C131.161 112.465 131.2 112.492 131.261 112.528C131.32 112.561 131.366 112.587 131.399 112.604C131.449 112.618 131.517 112.649 131.6 112.694C131.686 112.735 131.783 112.782 131.891 112.832C132.093 112.983 132.204 113.069 132.223 113.087C132.254 113.119 132.295 113.145 132.347 113.162C132.383 113.195 132.418 113.23 132.451 113.266C132.482 113.299 132.534 113.34 132.603 113.39L132.783 113.521C132.866 113.586 132.902 113.631 132.894 113.659C132.889 113.683 132.894 113.693 132.908 113.693C132.908 113.679 132.958 113.728 133.06 113.838C133.165 113.948 133.243 114.029 133.295 114.079C133.326 114.162 133.361 114.203 133.399 114.203C133.449 114.255 133.49 114.313 133.523 114.382C133.523 114.382 133.547 114.427 133.599 114.513C133.669 114.579 133.748 114.693 133.842 114.858C133.938 115.02 134.002 115.151 134.035 115.251C134.174 115.471 134.319 115.878 134.471 116.471C134.641 117.069 134.701 117.393 134.651 117.443H133.295V117.415C133.295 117.398 133.285 117.381 133.267 117.367C133.248 117.16 133.188 116.946 133.087 116.726C132.985 116.505 132.866 116.285 132.728 116.064C132.593 115.844 132.446 115.637 132.285 115.444C132.122 115.247 131.974 115.089 131.835 114.968C131.683 114.817 131.562 114.706 131.475 114.637C131.392 114.568 131.334 114.527 131.302 114.513C131.181 114.413 131.104 114.362 131.067 114.362C131.034 114.362 131.019 114.353 131.019 114.334C131.019 114.317 131.008 114.317 130.991 114.334C130.991 114.317 130.889 114.262 130.687 114.169C130.483 114.072 130.337 114.008 130.251 113.976C130.099 113.907 130.012 113.872 129.995 113.872C129.569 113.721 129.042 113.679 128.411 113.748C127.999 113.8 127.753 113.85 127.67 113.9C127.651 113.919 127.617 113.927 127.566 113.927C127.534 113.96 127.483 113.976 127.414 113.976C127.312 114.027 127.236 114.062 127.186 114.079C127.029 114.148 126.904 114.214 126.812 114.272C126.719 114.332 126.655 114.379 126.619 114.41C126.619 114.41 126.593 114.427 126.543 114.458C126.219 114.679 125.871 115.037 125.498 115.533C125.443 115.616 125.404 115.663 125.387 115.671C125.373 115.682 125.366 115.692 125.366 115.706C125.366 115.706 125.325 115.792 125.242 115.961C125.071 116.219 124.932 116.483 124.827 116.753C124.623 117.213 124.47 117.689 124.37 118.18C124.268 118.673 124.173 119.164 124.086 119.655C124.054 120.046 124.028 120.46 124.01 120.896C123.997 121.328 124.005 121.781 124.038 122.254C124.088 123.105 124.183 123.775 124.322 124.266C124.322 124.354 124.329 124.423 124.342 124.473C124.342 124.506 124.36 124.556 124.398 124.625C124.429 124.693 124.446 124.738 124.446 124.756C124.446 124.769 124.446 124.776 124.446 124.776C124.446 124.845 124.489 124.99 124.578 125.21C124.609 125.312 124.626 125.372 124.626 125.39C124.643 125.409 124.654 125.424 124.654 125.438C124.635 125.457 124.668 125.541 124.751 125.693C124.751 125.693 124.768 125.762 124.806 125.9C124.939 126.272 125.126 126.629 125.366 126.968C125.605 127.309 125.878 127.614 126.183 127.885C126.491 128.157 126.828 128.381 127.193 128.56C127.561 128.739 127.95 128.846 128.362 128.877C128.412 128.896 128.494 128.905 128.604 128.905C128.715 128.905 128.846 128.905 128.999 128.905C129.763 128.874 130.407 128.751 130.929 128.539C131.449 128.324 131.887 128.029 132.243 127.657C132.603 127.285 132.889 126.834 133.101 126.299C133.312 125.762 133.489 125.154 133.627 124.473C133.644 124.423 133.662 124.356 133.675 124.273C133.693 124.187 133.703 124.125 133.703 124.087L133.731 123.99H135.059L135.031 124.163C135.031 124.301 135.018 124.438 134.99 124.576C134.966 124.711 134.955 124.802 134.955 124.852C134.955 124.89 134.95 124.928 134.942 124.969C134.931 125.011 134.921 125.076 134.907 125.162C134.907 125.297 134.888 125.414 134.852 125.514C134.838 125.602 134.826 125.664 134.817 125.7C134.807 125.733 134.803 125.755 134.803 125.769C134.77 125.907 134.755 125.967 134.755 125.948C134.717 126.118 134.665 126.313 134.596 126.534C134.53 126.754 134.43 127.009 134.291 127.299C134.087 127.809 133.816 128.295 133.475 128.753C133.317 128.938 133.164 129.098 133.011 129.236C132.859 129.373 132.714 129.499 132.575 129.615C132.441 129.72 132.364 129.784 132.347 129.808C132.328 129.835 132.278 129.873 132.195 129.925C132.107 129.975 132.019 130.025 131.932 130.076C131.849 130.126 131.79 130.161 131.759 130.18C131.519 130.313 131.275 130.435 131.026 130.545C130.78 130.655 130.522 130.728 130.251 130.766C129.858 130.848 129.492 130.9 129.151 130.924C128.808 130.952 128.476 130.948 128.155 130.917C127.881 130.898 127.617 130.848 127.359 130.766C126.745 130.664 126.115 130.39 125.47 129.946C125.418 129.894 125.375 129.87 125.339 129.87C125.306 129.837 125.264 129.802 125.214 129.766C125.162 129.734 125.093 129.677 125.007 129.594C124.157 128.915 123.507 128.078 123.056 127.085C122.602 126.089 122.291 125.064 122.122 124.011C121.9 122.688 121.89 121.254 122.094 119.71L122.122 119.579V119.4C122.153 119.166 122.18 118.978 122.205 118.835C122.232 118.688 122.255 118.58 122.274 118.511C122.291 118.48 122.302 118.452 122.302 118.428C122.302 118.401 122.308 118.37 122.322 118.332C122.34 118.249 122.366 118.139 122.398 118.001C122.435 117.863 122.469 117.711 122.502 117.546C122.589 117.308 122.658 117.103 122.71 116.933C122.76 116.764 122.801 116.628 122.834 116.526C122.871 116.49 122.897 116.435 122.91 116.361C122.928 116.283 122.954 116.209 122.986 116.14C123.125 115.85 123.265 115.566 123.408 115.285C123.556 115.006 123.722 114.73 123.907 114.458C124.405 113.747 124.972 113.18 125.609 112.756C126.249 112.328 126.961 112.073 127.746 111.991Z" fill="#040053"/>
<path d="M141.062 121.489V112.115H143.138V120.062C143.152 120.081 144.951 120.089 148.534 120.089H151.931V112.115H154V121.489C154 127.757 153.993 130.89 153.979 130.89H151.959V126.513L151.931 122.054H143.159L143.138 122.074V130.89H141.09C141.09 130.245 141.09 129.465 141.09 128.546C141.09 127.747 141.09 126.766 141.09 125.603C141.09 124.442 141.08 123.07 141.062 121.489Z" fill="#040053"/>
<defs>
<linearGradient id="paint0_linear_52_199" x1="23.417" y1="53.3789" x2="130.577" y2="53.3789" gradientUnits="userSpaceOnUse">
<stop/>
<stop offset="0.00390625" stop-color="#000001"/>
<stop offset="0.0078125" stop-color="#000002"/>
<stop offset="0.0117188" stop-color="#010102"/>
<stop offset="0.015625" stop-color="#010103"/>
<stop offset="0.0195312" stop-color="#010104"/>
<stop offset="0.0234375" stop-color="#010105"/>
<stop offset="0.0273438" stop-color="#010106"/>
<stop offset="0.03125" stop-color="#020206"/>
<stop offset="0.0351562" stop-color="#020207"/>
<stop offset="0.0390625" stop-color="#020208"/>
<stop offset="0.0429688" stop-color="#020209"/>
<stop offset="0.046875" stop-color="#02020A"/>
<stop offset="0.0507812" stop-color="#03030A"/>
<stop offset="0.0546875" stop-color="#03030B"/>
<stop offset="0.0585938" stop-color="#03030C"/>
<stop offset="0.0625" stop-color="#03030D"/>
<stop offset="0.0664062" stop-color="#04030E"/>
<stop offset="0.0703125" stop-color="#04040E"/>
<stop offset="0.0742188" stop-color="#04040F"/>
<stop offset="0.078125" stop-color="#040410"/>
<stop offset="0.0820312" stop-color="#040411"/>
<stop offset="0.0859375" stop-color="#050412"/>
<stop offset="0.0898438" stop-color="#050512"/>
<stop offset="0.09375" stop-color="#050513"/>
<stop offset="0.0976562" stop-color="#050514"/>
<stop offset="0.101562" stop-color="#050515"/>
<stop offset="0.105469" stop-color="#060516"/>
<stop offset="0.109375" stop-color="#060616"/>
<stop offset="0.113281" stop-color="#060617"/>
<stop offset="0.117188" stop-color="#060618"/>
<stop offset="0.121094" stop-color="#060619"/>
<stop offset="0.125" stop-color="#07061A"/>
<stop offset="0.128906" stop-color="#07071A"/>
<stop offset="0.132812" stop-color="#07071B"/>
<stop offset="0.136719" stop-color="#07071C"/>
<stop offset="0.140625" stop-color="#07071D"/>
<stop offset="0.144531" stop-color="#08071E"/>
<stop offset="0.148438" stop-color="#08081E"/>
<stop offset="0.152344" stop-color="#08081F"/>
<stop offset="0.15625" stop-color="#080820"/>
<stop offset="0.160156" stop-color="#080821"/>
<stop offset="0.164062" stop-color="#090822"/>
<stop offset="0.167969" stop-color="#090922"/>
<stop offset="0.171875" stop-color="#090923"/>
<stop offset="0.175781" stop-color="#090924"/>
<stop offset="0.179688" stop-color="#0A0925"/>
<stop offset="0.183594" stop-color="#0A0926"/>
<stop offset="0.1875" stop-color="#0A0A26"/>
<stop offset="0.191406" stop-color="#0A0A27"/>
<stop offset="0.195312" stop-color="#0A0A28"/>
<stop offset="0.199219" stop-color="#0B0A29"/>
<stop offset="0.203125" stop-color="#0B0A2A"/>
<stop offset="0.207031" stop-color="#0B0B2A"/>
<stop offset="0.210937" stop-color="#0B0B2B"/>
<stop offset="0.214844" stop-color="#0B0B2C"/>
<stop offset="0.21875" stop-color="#0C0B2D"/>
<stop offset="0.222656" stop-color="#0C0B2E"/>
<stop offset="0.226562" stop-color="#0C0C2E"/>
<stop offset="0.230469" stop-color="#0C0C2F"/>
<stop offset="0.234375" stop-color="#0C0C30"/>
<stop offset="0.238281" stop-color="#0D0C31"/>
<stop offset="0.242187" stop-color="#0D0C32"/>
<stop offset="0.246094" stop-color="#0D0D32"/>
<stop offset="0.25" stop-color="#0D0D33"/>
<stop offset="0.253906" stop-color="#0D0D34"/>
<stop offset="0.257812" stop-color="#0E0D35"/>
<stop offset="0.261719" stop-color="#0E0D36"/>
<stop offset="0.265625" stop-color="#0E0E36"/>
<stop offset="0.269531" stop-color="#0E0E37"/>
<stop offset="0.273438" stop-color="#0F0E38"/>
<stop offset="0.277344" stop-color="#0F0E39"/>
<stop offset="0.28125" stop-color="#0F0E3A"/>
<stop offset="0.285156" stop-color="#0F0F3A"/>
<stop offset="0.289062" stop-color="#0F0F3B"/>
<stop offset="0.292969" stop-color="#100F3C"/>
<stop offset="0.296875" stop-color="#100F3D"/>
<stop offset="0.300781" stop-color="#100F3E"/>
<stop offset="0.304687" stop-color="#10103E"/>
<stop offset="0.308594" stop-color="#10103F"/>
<stop offset="0.3125" stop-color="#111040"/>
<stop offset="0.316406" stop-color="#111041"/>
<stop offset="0.320312" stop-color="#111042"/>
<stop offset="0.324219" stop-color="#111142"/>
<stop offset="0.328125" stop-color="#111143"/>
<stop offset="0.332031" stop-color="#121144"/>
<stop offset="0.335938" stop-color="#121145"/>
<stop offset="0.339844" stop-color="#121146"/>
<stop offset="0.34375" stop-color="#121246"/>
<stop offset="0.347656" stop-color="#121247"/>
<stop offset="0.351562" stop-color="#131248"/>
<stop offset="0.355469" stop-color="#131249"/>
<stop offset="0.359375" stop-color="#13124A"/>
<stop offset="0.363281" stop-color="#13134A"/>
<stop offset="0.367187" stop-color="#13134B"/>
<stop offset="0.371094" stop-color="#14134C"/>
<stop offset="0.375" stop-color="#14134D"/>
<stop offset="0.378906" stop-color="#14134E"/>
<stop offset="0.382812" stop-color="#14144E"/>
<stop offset="0.386719" stop-color="#15144F"/>
<stop offset="0.390625" stop-color="#151450"/>
<stop offset="0.394531" stop-color="#151451"/>
<stop offset="0.398437" stop-color="#151452"/>
<stop offset="0.402344" stop-color="#151552"/>
<stop offset="0.40625" stop-color="#161553"/>
<stop offset="0.410156" stop-color="#161554"/>
<stop offset="0.414062" stop-color="#161555"/>
<stop offset="0.417969" stop-color="#161556"/>
<stop offset="0.421875" stop-color="#161656"/>
<stop offset="0.425781" stop-color="#171657"/>
<stop offset="0.429688" stop-color="#171658"/>
<stop offset="0.433594" stop-color="#171659"/>
<stop offset="0.4375" stop-color="#17165A"/>
<stop offset="0.441406" stop-color="#17175A"/>
<stop offset="0.445312" stop-color="#18175B"/>
<stop offset="0.449219" stop-color="#18175C"/>
<stop offset="0.453125" stop-color="#18175D"/>
<stop offset="0.457031" stop-color="#18175E"/>
<stop offset="0.460937" stop-color="#18185F"/>
<stop offset="0.464844" stop-color="#19185F"/>
<stop offset="0.46875" stop-color="#191860"/>
<stop offset="0.472656" stop-color="#191861"/>
<stop offset="0.476562" stop-color="#191862"/>
<stop offset="0.480469" stop-color="#191963"/>
<stop offset="0.484375" stop-color="#1A1963"/>
<stop offset="0.488281" stop-color="#1A1964"/>
<stop offset="0.492187" stop-color="#1A1965"/>
<stop offset="0.496094" stop-color="#1A1966"/>
<stop offset="0.5" stop-color="#1B1967"/>
<stop offset="0.503906" stop-color="#1B1A67"/>
<stop offset="0.507812" stop-color="#1B1A68"/>
<stop offset="0.511719" stop-color="#1B1A69"/>
<stop offset="0.515625" stop-color="#1B1A6A"/>
<stop offset="0.519531" stop-color="#1C1A6B"/>
<stop offset="0.523438" stop-color="#1C1B6B"/>
<stop offset="0.527344" stop-color="#1C1B6C"/>
<stop offset="0.53125" stop-color="#1C1B6D"/>
<stop offset="0.535156" stop-color="#1C1B6E"/>
<stop offset="0.539062" stop-color="#1D1B6F"/>
<stop offset="0.542969" stop-color="#1D1C6F"/>
<stop offset="0.546875" stop-color="#1D1C70"/>
<stop offset="0.550781" stop-color="#1D1C71"/>
<stop offset="0.554687" stop-color="#1D1C72"/>
<stop offset="0.558594" stop-color="#1E1C73"/>
<stop offset="0.5625" stop-color="#1E1D73"/>
<stop offset="0.566406" stop-color="#1E1D74"/>
<stop offset="0.570313" stop-color="#1E1D75"/>
<stop offset="0.574219" stop-color="#1E1D76"/>
<stop offset="0.578125" stop-color="#1F1D77"/>
<stop offset="0.582031" stop-color="#1F1E77"/>
<stop offset="0.585938" stop-color="#1F1E78"/>
<stop offset="0.589844" stop-color="#1F1E79"/>
<stop offset="0.59375" stop-color="#1F1E7A"/>
<stop offset="0.597656" stop-color="#201E7B"/>
<stop offset="0.601562" stop-color="#201F7B"/>
<stop offset="0.605469" stop-color="#201F7C"/>
<stop offset="0.609375" stop-color="#201F7D"/>
<stop offset="0.613281" stop-color="#211F7E"/>
<stop offset="0.617188" stop-color="#211F7F"/>
<stop offset="0.621094" stop-color="#21207F"/>
<stop offset="0.625" stop-color="#212080"/>
<stop offset="0.628906" stop-color="#212081"/>
<stop offset="0.632812" stop-color="#222082"/>
<stop offset="0.636719" stop-color="#222083"/>
<stop offset="0.640625" stop-color="#222183"/>
<stop offset="0.644531" stop-color="#222184"/>
<stop offset="0.648437" stop-color="#222185"/>
<stop offset="0.652344" stop-color="#232186"/>
<stop offset="0.65625" stop-color="#232187"/>
<stop offset="0.660156" stop-color="#232287"/>
<stop offset="0.664063" stop-color="#232288"/>
<stop offset="0.667969" stop-color="#232289"/>
<stop offset="0.671875" stop-color="#24228A"/>
<stop offset="0.675781" stop-color="#24228B"/>
<stop offset="0.679688" stop-color="#24238B"/>
<stop offset="0.683594" stop-color="#24238C"/>
<stop offset="0.6875" stop-color="#24238D"/>
<stop offset="0.691406" stop-color="#25238E"/>
<stop offset="0.695312" stop-color="#25238F"/>
<stop offset="0.699219" stop-color="#25248F"/>
<stop offset="0.703125" stop-color="#252490"/>
<stop offset="0.707031" stop-color="#252491"/>
<stop offset="0.710938" stop-color="#262492"/>
<stop offset="0.714844" stop-color="#262493"/>
<stop offset="0.71875" stop-color="#262593"/>
<stop offset="0.722656" stop-color="#262594"/>
<stop offset="0.726562" stop-color="#272595"/>
<stop offset="0.730469" stop-color="#272596"/>
<stop offset="0.734375" stop-color="#272597"/>
<stop offset="0.738281" stop-color="#272697"/>
<stop offset="0.742187" stop-color="#272698"/>
<stop offset="0.746094" stop-color="#282699"/>
<stop offset="0.75" stop-color="#28269A"/>
<stop offset="0.753906" stop-color="#28269B"/>
<stop offset="0.757813" stop-color="#28279B"/>
<stop offset="0.761719" stop-color="#28279C"/>
<stop offset="0.765625" stop-color="#29279D"/>
<stop offset="0.769531" stop-color="#29279E"/>
<stop offset="0.773438" stop-color="#29279F"/>
<stop offset="0.777344" stop-color="#29289F"/>
<stop offset="0.78125" stop-color="#2928A0"/>
<stop offset="0.785156" stop-color="#2A28A1"/>
<stop offset="0.789062" stop-color="#2A28A2"/>
<stop offset="0.792969" stop-color="#2A28A3"/>
<stop offset="0.796875" stop-color="#2A29A3"/>
<stop offset="0.800781" stop-color="#2A29A4"/>
<stop offset="0.804688" stop-color="#2B29A5"/>
<stop offset="0.808594" stop-color="#2B29A6"/>
<stop offset="0.8125" stop-color="#2B29A7"/>
<stop offset="0.816406" stop-color="#2B2AA7"/>
<stop offset="0.820312" stop-color="#2C2AA8"/>
<stop offset="0.824219" stop-color="#2C2AA9"/>
<stop offset="0.828125" stop-color="#2C2AAA"/>
<stop offset="0.832031" stop-color="#2C2AAB"/>
<stop offset="0.835937" stop-color="#2C2BAB"/>
<stop offset="0.839844" stop-color="#2D2BAC"/>
<stop offset="0.84375" stop-color="#2D2BAD"/>
<stop offset="0.847656" stop-color="#2D2BAE"/>
<stop offset="0.851563" stop-color="#2D2BAF"/>
<stop offset="0.855469" stop-color="#2D2CAF"/>
<stop offset="0.859375" stop-color="#2E2CB0"/>
<stop offset="0.863281" stop-color="#2E2CB1"/>
<stop offset="0.867188" stop-color="#2E2CB2"/>
<stop offset="0.871094" stop-color="#2E2CB3"/>
<stop offset="0.875" stop-color="#2E2DB3"/>
<stop offset="0.878906" stop-color="#2F2DB4"/>
<stop offset="0.882812" stop-color="#2F2DB5"/>
<stop offset="0.886719" stop-color="#2F2DB6"/>
<stop offset="0.890625" stop-color="#2F2DB7"/>
<stop offset="0.894531" stop-color="#2F2EB7"/>
<stop offset="0.898438" stop-color="#302EB8"/>
<stop offset="0.902344" stop-color="#302EB9"/>
<stop offset="0.90625" stop-color="#302EBA"/>
<stop offset="0.910156" stop-color="#302EBB"/>
<stop offset="0.914062" stop-color="#302FBB"/>
<stop offset="0.917969" stop-color="#312FBC"/>
<stop offset="0.921875" stop-color="#312FBD"/>
<stop offset="0.925781" stop-color="#312FBE"/>
<stop offset="0.929687" stop-color="#312FBF"/>
<stop offset="0.933594" stop-color="#3230BF"/>
<stop offset="0.9375" stop-color="#3230C0"/>
<stop offset="0.941406" stop-color="#3230C1"/>
<stop offset="0.945313" stop-color="#3230C2"/>
<stop offset="0.949219" stop-color="#3230C3"/>
<stop offset="0.953125" stop-color="#3331C3"/>
<stop offset="0.957031" stop-color="#3331C4"/>
<stop offset="0.960938" stop-color="#3331C5"/>
<stop offset="0.964844" stop-color="#3331C6"/>
<stop offset="0.96875" stop-color="#3331C7"/>
<stop offset="0.972656" stop-color="#3432C7"/>
<stop offset="0.976562" stop-color="#3432C8"/>
<stop offset="0.980469" stop-color="#3432C9"/>
<stop offset="0.984375" stop-color="#3432CA"/>
<stop offset="0.988281" stop-color="#3432CB"/>
<stop offset="0.992188" stop-color="#3533CB"/>
<stop offset="0.996094" stop-color="#3533CC"/>
<stop offset="1" stop-color="#3533CD"/>
</linearGradient>
</defs>
</svg>
