<svg width="460" height="115" viewBox="0 0 460 115" fill="none" xmlns="http://www.w3.org/2000/svg">
<g clip-path="url(#clip0_8_180)">
<mask id="mask0_8_180" style="mask-type:luminance" maskUnits="userSpaceOnUse" x="0" y="0" width="114" height="115">
<path d="M0.458326 0.619812H113.859V114.021H0.458326V0.619812Z" fill="white"/>
</mask>
<g mask="url(#mask0_8_180)">
<mask id="mask1_8_180" style="mask-type:luminance" maskUnits="userSpaceOnUse" x="0" y="0" width="114" height="115">
<path d="M57.1562 0.619812C25.8437 0.619812 0.458326 26.0052 0.458326 57.3177C0.458326 88.6354 25.8437 114.021 57.1562 114.021C88.474 114.021 113.859 88.6354 113.859 57.3177C113.859 26.0052 88.474 0.619812 57.1562 0.619812Z" fill="white"/>
</mask>
<g mask="url(#mask1_8_180)">
<path d="M0.458326 0.619812V114.021H113.859V0.619812H0.458326Z" fill="url(#paint0_linear_8_180)"/>
</g>
</g>
<mask id="mask2_8_180" style="mask-type:luminance" maskUnits="userSpaceOnUse" x="7" y="34" width="99" height="55">
<path d="M7.28124 34H106V88.9792H7.28124V34Z" fill="white"/>
</mask>
<g mask="url(#mask2_8_180)">
<path d="M7.65624 46.3959C7.65624 46.1042 7.67187 45.8021 7.64583 45.5104C7.63541 45.3438 7.68229 45.25 7.8177 45.1823C8.0052 45.0886 8.19791 45.0052 8.38541 44.9167C9.79687 44.2552 11.2031 43.5938 12.6146 42.9375C12.8437 42.8334 12.9792 42.6875 13.0573 42.4375C13.2396 41.8542 13.6146 41.3959 14.1042 41.0365C14.8646 40.4844 15.7292 40.224 16.651 40.1042C17.1562 40.0365 17.6615 40.0104 18.1667 40.0938C18.4271 40.1354 18.6771 40.0834 18.9167 39.9688C20.3802 39.2761 21.8437 38.5781 23.3125 37.9011C23.5885 37.7709 23.7292 37.6042 23.7604 37.2917C23.8385 36.6094 24.026 35.9584 24.5104 35.4375C24.9583 34.9531 25.5 34.6146 26.1146 34.4011C27.9583 33.7656 29.7656 33.8906 31.5052 34.7761C32.2344 35.1459 32.8333 35.6667 33.2031 36.4219C33.2917 36.599 33.375 36.7813 33.401 36.9792C33.4323 37.2136 33.5625 37.349 33.75 37.4688C35.1406 38.3646 36.4948 39.3177 37.8698 40.2448C38.1042 40.4063 38.349 40.5521 38.5625 40.7344C38.8958 41.0156 39.276 41.099 39.6927 41.1354C40.7083 41.2188 41.6562 41.5104 42.5104 42.0677C43.1771 42.5052 43.7135 43.0573 43.9792 43.8281C44.0365 43.9948 44.0937 44.1615 44.0885 44.3334C44.0781 44.6146 44.224 44.7865 44.4427 44.9375C45.5885 45.7604 46.7031 46.6146 47.7812 47.5209C48.0937 47.7865 48.4062 48.0469 48.724 48.3021C48.8906 48.4323 48.9271 48.6042 48.9167 48.7969C48.8802 49.4375 48.8437 50.0781 48.8021 50.7188C48.7708 51.2448 48.724 51.7761 48.6979 52.3073C48.6823 52.5886 48.7083 52.6094 48.9896 52.5625C49.3802 52.5052 49.776 52.4636 50.1719 52.474C50.349 52.474 50.5104 52.4115 50.6667 52.3386C52.474 51.4844 54.2865 50.625 56.099 49.7813C56.3594 49.6615 56.4896 49.4896 56.5417 49.2031C56.6927 48.4011 57.1406 47.7813 57.8177 47.3281C58.5417 46.8386 59.349 46.6042 60.2031 46.4792C60.9583 46.3646 61.7083 46.4167 62.4479 46.5729C62.6667 46.6198 62.8594 46.5938 63.0573 46.5C63.9948 46.0573 64.9323 45.6198 65.875 45.1771C67.1146 44.5938 68.3542 44.0052 69.599 43.4323C69.8854 43.3021 70.0677 43.1302 70.1667 42.8125C70.3437 42.2552 70.7135 41.8229 71.1875 41.4792C71.9479 40.9271 72.8125 40.6667 73.7344 40.5469C74.2396 40.4792 74.7396 40.4531 75.2448 40.5365C75.5104 40.5781 75.7552 40.5313 76 40.4115C77.4635 39.7188 78.9219 39.0261 80.3906 38.3438C80.6667 38.2136 80.8073 38.0469 80.8437 37.7344C80.9167 37.0677 81.099 36.4271 81.5677 35.9063C82 35.4271 82.526 35.0834 83.125 34.875C85.1146 34.1719 87.0417 34.3281 88.875 35.3854C89.4792 35.7344 89.974 36.2188 90.2865 36.8646C90.3698 37.0469 90.4583 37.2292 90.4844 37.4219C90.5156 37.6563 90.6406 37.7917 90.8281 37.9115C92.4583 38.9688 94.0573 40.0677 95.6458 41.1823C95.9948 41.4271 96.3594 41.5417 96.7708 41.5781C97.7865 41.6615 98.7396 41.9584 99.5937 42.5156C100.26 42.9479 100.792 43.5 101.057 44.2709C101.115 44.4375 101.177 44.6042 101.172 44.7761C101.161 45.0573 101.307 45.2292 101.521 45.3854C102.667 46.2031 103.786 47.0573 104.865 47.9636C105.177 48.2292 105.484 48.4896 105.802 48.7448C105.969 48.875 106.01 49.0469 106 49.2396C105.969 49.8438 105.937 50.4479 105.896 51.0521C105.865 51.5417 105.812 52.0365 105.781 52.5261C105.698 53.8698 105.625 55.2136 105.536 56.5573C105.427 58.2084 105.307 59.8594 105.193 61.5052C105.167 61.875 105.167 62.2448 105.125 62.6146C105.094 62.875 104.984 63.0417 104.755 63.1667C103.5 63.8594 102.255 64.5625 101 65.2604C98.625 66.5781 96.25 67.9011 93.875 69.2188C91.5729 70.4948 89.276 71.7761 86.974 73.0521C84.4271 74.4688 81.8802 75.8854 79.3333 77.3021C77.25 78.4636 75.1615 79.6198 73.0781 80.7761C70.0573 82.4584 67.0365 84.1354 64.0104 85.8177C62.3906 86.7188 60.7708 87.6198 59.151 88.5156C59 88.599 58.8437 88.6719 58.6823 88.7396C58.4479 88.8334 58.2292 88.7709 58.0729 88.5938C57.1875 87.6094 56.1823 86.7448 55.2031 85.8594C53.1406 84 51.1094 82.1042 49.1823 80.0938C48.3281 79.2031 47.474 78.3125 46.5885 77.4531C44.5677 75.4844 42.5104 73.5625 40.4375 71.6615C39.6771 70.9636 39.8021 71.0625 39.7604 70.1979C39.7135 69.3125 39.6615 68.4271 39.6094 67.5365C39.5937 67.2813 39.5469 67.25 39.3125 67.3802C38.5104 67.8177 37.7135 68.2604 36.9115 68.7031C34.5833 70 32.25 71.2969 29.9167 72.5938C28.2448 73.5261 26.5677 74.4531 24.8958 75.3854C24.3906 75.6615 24.2135 75.6406 23.7812 75.2396C21.6823 73.3073 19.5781 71.375 17.4792 69.4427C16.4115 68.4531 15.3437 67.4636 14.2708 66.474C12.5365 64.8802 10.7969 63.2813 9.06249 61.6875C8.55208 61.2188 8.05208 60.7396 7.53645 60.2761C7.35416 60.1146 7.28124 59.9323 7.29687 59.6875C7.39583 58.2865 7.34374 56.875 7.39583 55.4688C7.43749 54.3177 7.42187 53.1719 7.45833 52.0209C7.5052 50.6042 7.54687 49.1823 7.61458 47.7656C7.63541 47.3125 7.66145 46.8542 7.65624 46.3959ZM58.0885 75.8229C58.1042 76.1823 58.1406 76.5365 58.1615 76.8959C58.2292 78.0886 58.2656 79.2865 58.3437 80.4792C58.375 81.0104 58.3906 81.5417 58.4219 82.0729C58.4844 83.2084 58.5521 84.3386 58.6146 85.474C58.651 86.1406 58.6719 86.8073 58.7083 87.4688C58.724 87.7604 58.7865 87.7865 59.0573 87.6511C59.0781 87.6406 59.099 87.6302 59.1198 87.6198C61.099 86.5209 63.0729 85.4167 65.0469 84.3229C67.3906 83.0156 69.7292 81.7136 72.0729 80.4115C74.3958 79.125 76.7187 77.8334 79.0365 76.5469C81.6198 75.1094 84.1979 73.6771 86.7812 72.2396C89.1198 70.9375 91.4635 69.6354 93.8073 68.3334C96.0937 67.0625 98.3854 65.7917 100.672 64.5156C101.797 63.8959 102.917 63.2709 104.042 62.6459C104.198 62.5625 104.328 62.474 104.339 62.2656C104.38 61.5104 104.437 60.7604 104.484 60.0104C104.542 59.1459 104.594 58.2865 104.646 57.4219C104.74 56.0052 104.839 54.5886 104.932 53.1719C104.984 52.3229 105.036 51.474 105.094 50.625C105.104 50.4167 105.135 50.2084 105.141 49.9948C105.151 49.7136 105.104 49.6927 104.844 49.8281C103.922 50.3229 102.995 50.8229 102.073 51.3177C99.3958 52.7604 96.724 54.2084 94.0521 55.6511C92.0052 56.75 89.9583 57.849 87.9167 58.9531C84.6667 60.7084 81.4219 62.4636 78.1719 64.2188C75.7865 65.5 73.4062 66.7813 71.026 68.0677C67.6458 69.8906 64.2656 71.7136 60.8854 73.5365C60.0365 73.9948 59.1927 74.4584 58.3385 74.9115C58.1406 75.0156 58.0417 75.1459 58.0833 75.3802C58.1042 75.5209 58.0885 75.6719 58.0885 75.8229ZM94.8906 41.6302C93.4375 40.6354 92.0625 39.6771 90.599 38.7292C90.5677 39.5625 90.4531 40.3021 90.3698 41.0469C90.3177 41.4896 90.1615 41.849 89.8802 42.1771C89.5521 42.5677 89.1406 42.8646 88.6875 43.1042C87.9219 43.5052 87.099 43.724 86.2448 43.8073C85.0156 43.9271 83.8021 43.8386 82.6406 43.3802C82.151 43.1927 81.6927 42.9479 81.3073 42.5938C80.8073 42.1354 80.4583 41.6042 80.5365 40.875C80.5937 40.3125 80.6094 39.75 80.651 39.1146C79.3854 39.7084 78.1667 40.2813 76.8854 40.8802C77.2865 41.0677 77.6302 41.2031 77.9427 41.4011C79.0521 42.1042 79.7135 43.0521 79.6927 44.4219C79.6823 45.25 79.625 46.0729 79.4896 46.8906C79.4427 47.1667 79.4635 47.4531 79.3229 47.7188C79.1302 48.0729 78.8906 48.3802 78.5781 48.6302C78.151 48.9792 77.6771 49.2344 77.1615 49.4219C75.9062 49.8802 74.6146 50.0156 73.2969 49.8229C72.5104 49.7136 71.75 49.5 71.0521 49.0938C70.5104 48.7813 70.0521 48.375 69.776 47.7969C69.6771 47.5938 69.6198 47.3802 69.6302 47.1511C69.6562 46.3281 69.7344 45.5 69.8229 44.6823C69.8385 44.5469 69.9167 44.3802 69.8073 44.2917C69.6875 44.1927 69.5573 44.3334 69.4375 44.3906C67.8854 45.1146 66.3333 45.8438 64.776 46.5781C64.5 46.7084 64.2292 46.8438 63.8906 47.0156C64.1094 47.1354 64.2708 47.2188 64.4219 47.3177C65.5521 48.0156 66.224 48.9688 66.2031 50.3542C66.1927 51.1823 66.1354 52.0052 66 52.8229C65.9531 53.099 65.974 53.3854 65.8281 53.6511C65.6406 54.0052 65.3958 54.3125 65.0833 54.5625C64.6615 54.9115 64.1823 55.1667 63.6667 55.3542C62.4115 55.8125 61.125 55.9427 59.8021 55.7552C59.0156 55.6406 58.2552 55.4271 57.5625 55.0261C57.0156 54.7084 56.5573 54.3073 56.2812 53.724C56.1771 53.5104 56.1302 53.2865 56.1406 53.0417C56.1667 52.4167 56.2135 51.7865 56.276 51.1615C56.2917 51 56.3906 50.7813 56.2344 50.6771C56.099 50.5938 55.9323 50.7448 55.7917 50.8125C54.5729 51.3802 53.3542 51.9584 52.1354 52.5313C52.0729 52.5625 51.9896 52.5729 51.9635 52.6875C52.1667 52.7604 52.375 52.8281 52.5781 52.9063C53.125 53.1146 53.6302 53.3854 54.0885 53.7552C54.8854 54.4063 55.2865 55.2396 55.3021 56.2656C55.3125 57.1719 55.1927 58.0625 55.099 58.9584C55.0312 59.6354 54.724 60.1198 54.25 60.5417C53.8021 60.9427 53.2812 61.224 52.7135 61.4219C51.0781 61.9896 49.4219 62.0209 47.7604 61.5365C47.1302 61.3542 46.5365 61.0677 46.0417 60.625C45.5208 60.1615 45.1927 59.6198 45.2448 58.875C45.3125 57.9531 45.3906 57.0313 45.4948 56.1094C45.5052 55.9792 45.5781 55.849 45.4844 55.6719C44.625 56.0729 43.7656 56.4636 42.9115 56.875C42.0677 57.2813 41.2031 57.6563 40.3281 58.1146C41.1146 58.7188 41.8177 59.3229 42.526 59.9115C45.026 61.9896 47.4167 64.1927 49.7187 66.4844C50.7135 67.4792 51.6927 68.4948 52.6927 69.4844C53.8906 70.6667 55.1354 71.7917 56.3073 72.9948C56.6354 73.3334 56.9531 73.6771 57.276 74.0156C57.6615 74.4167 57.6042 74.3906 58.0469 74.1511C58.5469 73.8854 59.0469 73.6094 59.5469 73.3386C62.25 71.8802 64.9635 70.4271 67.6667 68.9636C71.2448 67.0365 74.8177 65.1042 78.3958 63.1719C80.776 61.8906 83.1562 60.6094 85.5365 59.3281C89.1042 57.4011 92.6667 55.474 96.2344 53.5521C98.9375 52.0886 101.646 50.6354 104.354 49.1771C104.453 49.125 104.547 49.0677 104.641 49.0052C104.734 48.9479 104.745 48.8698 104.667 48.7917C104.615 48.7396 104.552 48.6979 104.495 48.6511C103.667 48.0104 102.833 47.3698 102 46.7292C101.823 46.5938 101.646 46.4636 101.458 46.3386C101.292 46.224 101.203 46.2604 101.193 46.4584C101.177 46.9948 101.057 47.5156 101.026 48.0417C100.995 48.5573 100.781 48.9636 100.453 49.3334C100.042 49.7969 99.5365 50.125 98.9687 50.3542C97.349 51.0156 95.6875 51.1146 93.9896 50.6927C93.3281 50.5261 92.6979 50.2709 92.1562 49.8438C91.4948 49.3229 91.0885 48.7136 91.1823 47.7865C91.2865 46.7188 91.349 45.6459 91.5104 44.5834C91.5625 44.25 91.6458 43.9323 91.7865 43.625C92.1406 42.8646 92.7708 42.4063 93.5 42.0625C93.9167 41.8646 94.3542 41.7396 94.8906 41.6302ZM19.8073 40.4323C20.2031 40.625 20.5365 40.7552 20.8385 40.9427C21.9635 41.6459 22.6354 42.599 22.6146 43.9844C22.599 44.8125 22.5469 45.6354 22.4115 46.4531C22.3646 46.7292 22.3802 47.0156 22.2396 47.2813C22.0469 47.6354 21.8021 47.9375 21.4948 48.1927C21.0677 48.5365 20.5885 48.7917 20.0781 48.9792C18.8229 49.4375 17.5312 49.5677 16.2083 49.3802C15.4219 49.2656 14.6667 49.0521 13.9687 48.6459C13.4271 48.3334 12.9687 47.9271 12.6927 47.349C12.599 47.1563 12.5417 46.9584 12.5469 46.7396C12.5677 46.1094 12.625 45.4844 12.6771 44.8594C12.7031 44.5156 12.7865 44.1823 12.7604 43.8281C12.599 43.7969 12.4948 43.8802 12.3906 43.9271C11.651 44.2709 10.9115 44.6198 10.1771 44.9688C9.82812 45.1302 9.48437 45.2969 9.13541 45.4584C8.99999 45.5261 8.97916 45.6042 9.08853 45.7136C9.27083 45.8802 9.44791 46.0521 9.6302 46.2188C11.2708 47.7188 12.9115 49.2188 14.5521 50.7136C15.474 51.5573 16.3958 52.3959 17.3177 53.2396C18.8437 54.625 20.3698 56.0156 21.8906 57.4011C22.9531 58.3646 24.0104 59.3334 25.0677 60.2969C25.3594 60.5573 25.3646 60.5521 25.7031 60.3646C26.7344 59.8021 27.7552 59.2292 28.7969 58.6875C30.5937 57.7552 32.3594 56.7656 34.1458 55.8125C36.8698 54.3542 39.5833 52.8802 42.2969 51.4167C43.9844 50.5052 45.6719 49.599 47.3542 48.6875C47.7344 48.4844 47.7292 48.4584 47.4062 48.1979C47.349 48.1511 47.2917 48.1042 47.2292 48.0573C46.3073 47.3334 45.3802 46.6198 44.4271 45.9323C44.2031 45.7656 44.1198 45.7969 44.1094 46.0677C44.0937 46.5729 43.974 47.0729 43.9479 47.5729C43.9219 48.1302 43.6771 48.5625 43.3125 48.9531C42.9167 49.375 42.4375 49.6823 41.9115 49.9011C40.5781 50.4531 39.1979 50.6146 37.7708 50.4219C36.9167 50.3021 36.0937 50.0781 35.3698 49.6042C34.5417 49.0677 33.9896 48.4011 34.1042 47.2917C34.2135 46.224 34.2708 45.1511 34.4375 44.0938C34.4844 43.7709 34.5729 43.4636 34.7135 43.1719C35.0677 42.4115 35.7031 41.9584 36.4323 41.6146C36.8437 41.4167 37.2812 41.3021 37.7292 41.1979C37.7083 41.1563 37.7083 41.125 37.6927 41.1146C36.3958 40.2292 35.099 39.349 33.8021 38.4636C33.7448 38.4219 33.6771 38.3906 33.6094 38.3594C33.599 38.3542 33.5833 38.3542 33.5729 38.3594C33.5625 38.3594 33.5521 38.3698 33.5156 38.3906C33.4844 39.1094 33.3698 39.8438 33.2917 40.5729C33.2396 41.0729 33.0469 41.4688 32.724 41.8229C32.224 42.3646 31.6042 42.7188 30.9219 42.9584C29.2865 43.5313 27.6302 43.5625 25.9687 43.0834C25.3333 42.8959 24.7448 42.6094 24.2448 42.1667C23.7292 41.7084 23.3698 41.1667 23.4531 40.4219C23.4844 40.1667 23.4792 39.9063 23.5104 39.6459C23.5417 39.3438 23.5469 39.0365 23.5729 38.6667C22.3125 39.2604 21.099 39.8281 19.8073 40.4323ZM24.0781 74.3959C24.1823 74.1354 24.1823 73.9271 24.1875 73.7188C24.224 72.7292 24.25 71.7448 24.2917 70.7552C24.349 69.4011 24.4271 68.0469 24.4844 66.6875C24.526 65.7292 24.5469 64.7656 24.5833 63.8021C24.5833 63.7292 24.5885 63.6563 24.599 63.5781C24.6719 62.8438 24.6198 62.099 24.7083 61.3646C24.7292 61.1459 24.6354 60.9896 24.4792 60.8438C23.2969 59.7761 22.1198 58.7084 20.9427 57.6354C18.9323 55.8021 16.9271 53.9688 14.9219 52.1406C12.8542 50.25 10.7865 48.3542 8.71353 46.4688C8.64583 46.4063 8.59895 46.3073 8.47916 46.3125C8.42708 46.3594 8.43749 46.4271 8.43749 46.4844C8.43749 47.9896 8.35416 49.4948 8.30728 51C8.2552 52.6146 8.22916 54.2344 8.21874 55.849C8.21353 57 8.16666 58.1459 8.1302 59.2917C8.11979 59.6042 8.19791 59.849 8.45312 60.0313C8.49999 60.0677 8.54166 60.1146 8.58853 60.1563C9.77083 61.2448 10.9479 62.3281 12.1302 63.4167C13.1562 64.3646 14.1823 65.3125 15.2083 66.2552C16.8906 67.8021 18.5729 69.3438 20.2552 70.8906C21.3802 71.9271 22.5 72.9688 23.625 74.0104C23.7604 74.1302 23.9062 74.2448 24.0781 74.3959ZM24.9844 74.3334C25.1302 74.3594 25.1979 74.2969 25.2708 74.2604C26.1615 73.7656 27.0417 73.2761 27.9271 72.7813C31.1771 70.9792 34.4271 69.1719 37.6771 67.3646C38.2135 67.0625 38.7552 66.7604 39.2917 66.4584C39.4271 66.3854 39.5521 66.3021 39.5208 66.1198C39.4531 65.7188 39.4792 65.3073 39.4531 64.9011C39.3542 63.3386 39.2656 61.7709 39.1667 60.2084C39.1302 59.6042 39.099 59 39.0469 58.3959C39.026 58.1146 39.1094 57.8959 39.3385 57.7188C39.6146 57.5052 39.9427 57.3854 40.25 57.2396C42.026 56.4011 43.8073 55.5677 45.5833 54.7344C45.7083 54.6719 45.8281 54.6094 45.8958 54.4844C46.276 53.7761 46.875 53.3177 47.5885 52.9948C47.7708 52.9115 47.8437 52.7917 47.8542 52.5938C47.9167 51.625 47.9948 50.6511 48.0573 49.6771C48.0677 49.5625 48.1198 49.4063 48.0104 49.3281C47.8958 49.2448 47.7865 49.375 47.6823 49.4323C45.6406 50.5313 43.5937 51.6302 41.5521 52.7344C39.776 53.6875 38.0052 54.6459 36.2344 55.6042C34.3906 56.599 32.5469 57.6042 30.6979 58.599C29.0677 59.4792 27.4375 60.3594 25.8021 61.2292C25.5937 61.3386 25.4948 61.4688 25.4896 61.7136C25.4687 62.5521 25.4479 63.3959 25.3958 64.2344C25.3594 64.8854 25.349 65.5417 25.3177 66.1927C25.2604 67.6459 25.1875 69.1042 25.1198 70.5573C25.0729 71.6042 25.026 72.6511 24.9844 73.7031C24.974 73.9115 24.9844 74.1146 24.9844 74.3334ZM57.8073 87.1615C57.901 87.0781 57.8594 86.974 57.8594 86.8802C57.8542 86.4479 57.8229 86.0209 57.7969 85.5886C57.724 84.3906 57.6875 83.1979 57.6146 82C57.5833 81.4688 57.5677 80.9427 57.5365 80.4115C57.4479 78.7865 57.349 77.1615 57.2708 75.5313C57.2552 75.2031 57.1667 74.9531 56.9271 74.7188C55.9531 73.7865 55.0104 72.8281 54.0417 71.8959C52.8594 70.7709 51.6875 69.6406 50.5521 68.4688C49.2812 67.1615 47.9531 65.9011 46.651 64.6198C46.2969 64.2761 45.9271 63.9479 45.5625 63.6146C44.3177 62.4896 43.0365 61.4011 41.7604 60.3125C41.2396 59.875 40.7135 59.4479 40.1823 59.0261C40.0052 58.8854 39.9479 58.9219 39.9323 59.1302C39.9271 59.2188 39.9323 59.3073 39.9375 59.3906C39.9635 59.8854 39.9896 60.375 40.0156 60.8698C40.1094 62.3698 40.2031 63.875 40.2917 65.375C40.3594 66.4375 40.4062 67.4948 40.4687 68.5573C40.5 69.1354 40.5573 69.7136 40.5729 70.2917C40.5833 70.6354 40.7396 70.8594 40.9792 71.0781C42.1562 72.1354 43.3125 73.2136 44.4531 74.3073C44.9687 74.8021 45.4896 75.2917 46.0156 75.7813C47.1406 76.8334 48.2292 77.9323 49.2969 79.0469C50.75 80.5625 52.2292 82.0469 53.776 83.474C55.026 84.625 56.3229 85.7344 57.5208 86.9479C57.6042 87.0313 57.6667 87.1511 57.8073 87.1615ZM96.8281 47.2344C97.2083 47.25 97.7083 47.1927 98.1979 47.0573C98.7656 46.9011 99.2917 46.6719 99.7396 46.2813C100.406 45.7031 100.552 44.875 100.12 44.1459C99.9479 43.8594 99.7344 43.6042 99.4531 43.4115C97.7292 42.2448 95.8906 42.0677 93.9479 42.75C93.5104 42.9011 93.1406 43.1719 92.8281 43.5156C92.2969 44.0938 92.224 44.8229 92.6458 45.4896C92.8594 45.8281 93.1406 46.1042 93.474 46.3229C94.4479 46.9844 95.5365 47.2448 96.8281 47.2344ZM85.3437 35.3021C84.7448 35.2709 84.099 35.3698 83.4792 35.6042C83 35.7813 82.5677 36.0313 82.2135 36.4115C81.6615 36.9948 81.5833 37.7344 82.0156 38.4115C82.2969 38.8646 82.6927 39.1927 83.1562 39.4479C84.4271 40.1406 85.7865 40.3177 87.2031 40.0573C87.8698 39.9375 88.4844 39.6979 89.0208 39.2709C89.8281 38.6354 89.9531 37.7188 89.3594 36.8802C89.0781 36.4896 88.6979 36.2188 88.2865 35.9896C87.3906 35.4948 86.4271 35.2761 85.3437 35.3021ZM50.1354 53.3125C49.3177 53.3125 48.7812 53.3959 48.1771 53.625C47.7083 53.8021 47.2865 54.0469 46.9375 54.4115C46.3698 55.0104 46.2969 55.75 46.7396 56.4427C47.0208 56.8802 47.4062 57.2031 47.8542 57.4531C49.1406 58.1563 50.5052 58.3386 51.9375 58.0677C52.5781 57.9479 53.1719 57.7136 53.6927 57.3177C54.5417 56.6719 54.6823 55.7396 54.0625 54.8802C53.9271 54.6979 53.776 54.5417 53.599 54.4011C52.5781 53.6198 51.4062 53.3073 50.1354 53.3125ZM18.0729 45.75C18.8802 45.7813 19.6719 45.6198 20.4219 45.2656C20.7917 45.0886 21.1198 44.849 21.3802 44.5261C21.8281 43.974 21.8802 43.3125 21.5208 42.6979C21.3385 42.3802 21.1042 42.1146 20.8021 41.9115C19.1562 40.7917 17.375 40.6042 15.5052 41.2031C15.0052 41.3594 14.5573 41.625 14.2031 42.0261C13.6823 42.6094 13.625 43.349 14.0312 44.0052C14.3229 44.474 14.7344 44.7969 15.2031 45.0573C16.0885 45.5469 17.0417 45.7761 18.0729 45.75ZM39.7292 46.7917C40.1094 46.8073 40.625 46.75 41.125 46.6094C41.6927 46.4531 42.2187 46.224 42.6667 45.8334C43.3177 45.2604 43.4687 44.4531 43.0521 43.7292C42.8854 43.4375 42.6771 43.1771 42.3958 42.9896C40.6667 41.8021 38.8177 41.6198 36.8594 42.3073C36.4219 42.4584 36.0573 42.7292 35.7396 43.0729C35.224 43.6459 35.1458 44.3594 35.5469 45.0156C35.7656 45.3698 36.0573 45.6511 36.3958 45.8854C37.3594 46.5365 38.4375 46.7917 39.7292 46.7917ZM75.0573 46.1927C76.0677 46.1979 76.8021 46.0521 77.4948 45.7136C77.8542 45.5365 78.1719 45.3125 78.4323 45.0052C78.9167 44.4375 78.9687 43.7552 78.5885 43.1146C78.401 42.8021 78.1615 42.5417 77.8594 42.3386C76.2187 41.2396 74.4479 41.0521 72.5885 41.6459C72.0833 41.8073 71.6198 42.0781 71.2604 42.4948C70.7656 43.0677 70.7083 43.8021 71.1094 44.4479C71.3958 44.9115 71.8073 45.2396 72.2812 45.5C73.1615 45.9896 74.1146 46.2188 75.0573 46.1927ZM29.026 39.7344C29.9792 39.6979 30.9427 39.5313 31.7865 38.9427C32.8229 38.2188 32.9375 37.099 32.0729 36.1823C31.9948 36.1042 31.9115 36.0313 31.8229 35.9636C30.349 34.7292 27.7552 34.5573 26.1979 35.2396C25.776 35.4219 25.3958 35.6667 25.0833 36.0156C24.6146 36.5365 24.526 37.2188 24.8542 37.8334C25.0365 38.1771 25.2969 38.4584 25.6094 38.6927C26.6094 39.4375 27.7552 39.7031 29.026 39.7344ZM61.6615 52.125C62.4687 52.1563 63.2604 51.9948 64.0104 51.6406C64.3802 51.4636 64.7083 51.224 64.9687 50.9011C65.4167 50.349 65.4687 49.6875 65.1094 49.0729C64.9271 48.7552 64.6927 48.4896 64.3906 48.2865C62.7448 47.1667 60.9635 46.9792 59.0885 47.5781C58.5937 47.7344 58.1458 48.0052 57.7917 48.4011C57.2708 48.9844 57.2135 49.724 57.6198 50.3854C57.9115 50.849 58.3229 51.1719 58.7917 51.4323C59.6771 51.9219 60.6302 52.1511 61.6615 52.125ZM43.2812 46.4479C43.1562 46.4375 43.1042 46.5156 43.0365 46.5677C42.5521 46.9427 42.0104 47.1927 41.4219 47.3698C39.3229 48 36.4844 47.3906 35.2292 45.9323C35.1875 45.8802 35.1354 45.8021 35.0469 45.849C34.9844 45.8802 34.9896 45.9531 34.9896 46.0156C34.9635 46.5052 34.9479 47 34.9062 47.4896C34.8594 48.0469 35.125 48.4323 35.5417 48.75C35.9687 49.0677 36.4531 49.2917 36.9687 49.4271C38.0677 49.724 39.1823 49.7552 40.3021 49.5469C41 49.4167 41.6615 49.1927 42.2604 48.7969C42.5573 48.599 42.875 48.375 42.9896 48.0313C43.1562 47.5209 43.2448 46.9896 43.2812 46.4479ZM92.1771 46.2604C92.0781 46.3177 92.0729 46.3802 92.0677 46.4427C92.0417 46.9375 92.0312 47.4323 91.9844 47.9219C91.9375 48.4896 92.2031 48.8906 92.6354 49.2084C93.0833 49.5313 93.5729 49.75 94.1042 49.8906C95.1615 50.1667 96.224 50.1927 97.2969 50.0104C98.0208 49.8854 98.7083 49.6615 99.3281 49.25C99.7812 48.9479 100.151 48.5834 100.193 47.9896C100.208 47.7969 100.271 47.6042 100.302 47.4115C100.333 47.2396 100.344 47.0625 100.375 46.8229C99.9687 47.125 99.6302 47.3646 99.2448 47.5417C98.849 47.7188 98.4375 47.849 98.0156 47.9323C97.6042 48.0156 97.1875 48.0573 96.7656 48.0625C96.3333 48.0677 95.9062 48.0261 95.4792 47.9531C95.0677 47.8854 94.6615 47.7813 94.2656 47.6354C93.8594 47.4792 93.474 47.2917 93.1094 47.0573C92.7552 46.8334 92.4792 46.5209 92.1771 46.2604ZM89.651 39.8125C88.4375 40.7969 87.0052 41.0677 85.4896 40.9531C83.9531 40.8334 82.5885 40.3125 81.4844 39.1146C81.3854 39.7917 81.3906 40.3906 81.3646 40.9948C81.349 41.4063 81.5156 41.7084 81.8073 41.9688C82.0833 42.2188 82.3958 42.4167 82.7448 42.5521C84.4792 43.2344 86.2187 43.2188 87.9479 42.5573C88.4479 42.3646 88.901 42.0834 89.2604 41.6719C89.3906 41.5209 89.4844 41.3594 89.5104 41.1511C89.5573 40.8073 89.6354 40.4688 89.6927 40.1302C89.7135 40.0365 89.7552 39.9375 89.651 39.8125ZM54.4271 57.7813C53.1302 58.8125 51.7031 59.0834 50.1823 58.9636C48.6562 58.8438 47.3021 58.3281 46.2552 57.1875C46.1667 57.2292 46.1719 57.2813 46.1667 57.3281C46.1094 57.8698 46.1042 58.4115 46.0781 58.9531C46.0573 59.4375 46.2656 59.7813 46.6198 60.0677C47.0417 60.4063 47.5208 60.6302 48.0365 60.7813C49.0469 61.0729 50.0729 61.1406 51.1146 60.9896C51.8281 60.8854 52.5156 60.6927 53.151 60.3386C53.7656 59.9896 54.2552 59.5573 54.3021 58.7813C54.3177 58.4792 54.4271 58.1823 54.4271 57.7813ZM24.4062 38.6615C24.3073 39.3542 24.3073 39.9584 24.2865 40.5625C24.2708 40.974 24.4479 41.2761 24.7344 41.5313C25.0156 41.7761 25.3281 41.9792 25.6771 42.1146C27.4115 42.7917 29.1458 42.7709 30.8802 42.1094C31.3698 41.9219 31.8125 41.6511 32.1615 41.25C32.276 41.1146 32.3854 40.9844 32.4167 40.8073C32.4844 40.4167 32.5573 40.0261 32.625 39.6406C32.6354 39.5625 32.6771 39.4688 32.5625 39.3802C31.3437 40.349 29.9167 40.625 28.3958 40.5052C26.875 40.3854 25.5156 39.875 24.4062 38.6615ZM70.5833 45.1719C70.4948 45.8438 70.4792 46.4688 70.474 47.099C70.4687 47.4011 70.5781 47.6511 70.776 47.8698C71.0469 48.1615 71.3698 48.3906 71.7396 48.5469C73.4531 49.2656 75.1927 49.2604 76.9375 48.6459C77.3646 48.4948 77.7708 48.2761 78.1146 47.9688C78.3229 47.7865 78.526 47.5938 78.5833 47.3177C78.6771 46.8854 78.7448 46.4479 78.8177 46.0104C78.8281 45.9531 78.849 45.8802 78.7656 45.8542C76.6719 47.6094 72.5781 47.3906 70.5833 45.1719ZM13.5052 44.7136C13.4115 45.3854 13.401 46.0156 13.3906 46.6406C13.3854 46.9584 13.5 47.2188 13.7135 47.4427C13.9948 47.7396 14.3333 47.9636 14.7135 48.125C16.0365 48.6927 17.4115 48.7552 18.8125 48.5C19.5833 48.3594 20.3125 48.0886 20.9375 47.6042C21.2708 47.3438 21.526 47.0417 21.5573 46.5938C21.5677 46.4479 21.6354 46.3073 21.6458 46.1615C21.6667 45.9115 21.7708 45.6719 21.7187 45.3959C19.4375 47.2761 15.3333 46.8125 13.5052 44.7136ZM65.3281 51.724C64.0312 52.7761 62.5885 53.0521 61.0573 52.9271C59.5365 52.8021 58.1719 52.2709 57.0937 51.0886C57 51.7761 56.9844 52.4011 56.9792 53.0313C56.9792 53.3334 57.0833 53.5834 57.2865 53.8021C57.5677 54.1042 57.9062 54.3281 58.2812 54.4948C59.4167 54.9948 60.6094 55.0938 61.8333 54.9636C62.6094 54.8802 63.3594 54.6771 64.0469 54.2969C64.3177 54.1459 64.5729 53.9688 64.7865 53.7448C64.9635 53.5521 65.0885 53.3386 65.1302 53.0677C65.1927 52.6406 65.3177 52.2292 65.3281 51.724Z" fill="white"/>
</g>
<mask id="mask3_8_180" style="mask-type:luminance" maskUnits="userSpaceOnUse" x="99" y="63" width="8" height="7">
<path d="M99.3333 63.3333H106.698V70H99.3333V63.3333Z" fill="white"/>
</mask>
<g mask="url(#mask3_8_180)">
<path d="M106.661 64.6615C106.818 64.6615 106.922 64.6979 106.974 64.8125C107.036 64.9271 106.99 65.0261 106.911 65.1146C106.807 65.2396 106.667 65.3229 106.531 65.4115C105.547 66.0469 104.51 66.599 103.484 67.1615C102.531 67.6823 101.568 68.1875 100.609 68.6927C100.521 68.7396 100.437 68.7865 100.344 68.8281C100.099 68.9271 99.9531 68.9115 99.8802 68.7813C99.8125 68.6563 99.875 68.5156 100.089 68.3542C100.219 68.2604 100.354 68.1771 100.49 68.0938C101.375 67.5781 102.26 67.0625 103.146 66.5521C104.016 66.0521 104.885 65.5625 105.755 65.0729C105.958 64.9583 106.172 64.8542 106.38 64.7552C106.484 64.7083 106.594 64.6823 106.661 64.6615Z" fill="white"/>
</g>
<path d="M51.1302 48.2917C51.0156 48.2865 50.9167 48.2344 50.8281 48.1719C50.6406 48.0469 50.474 47.901 50.3177 47.7448C49.2917 46.7083 48.2969 45.651 47.3437 44.5469C47.2552 44.4427 47.1667 44.3385 47.125 44.2083C47.0937 44.1094 47.099 44.0104 47.1719 43.9323C47.2656 43.8437 47.3802 43.8385 47.4792 43.901C47.5937 43.9687 47.6979 44.0625 47.7969 44.151C48.6406 44.8958 49.401 45.7187 50.1771 46.5312C50.5104 46.8802 50.849 47.224 51.1562 47.5937C51.25 47.7083 51.3437 47.8177 51.3906 47.9635C51.4531 48.1771 51.3542 48.3021 51.1302 48.2917Z" fill="white"/>
<path d="M41.8229 75.7552C41.6823 75.7396 41.5521 75.7032 41.4323 75.6459C40.974 75.4219 40.5365 75.1667 40.1719 74.8073C39.3906 74.0469 38.6615 73.2448 37.9375 72.4375C37.8542 72.3438 37.7708 72.25 37.7292 72.1302C37.6927 72.0313 37.6979 71.9323 37.7708 71.8542C37.8594 71.7604 37.9687 71.7396 38.0781 71.7917C38.1771 71.8386 38.2656 71.9115 38.349 71.9792C38.901 72.4375 39.3958 72.9584 39.8958 73.4688C40.4531 74.0469 41.0156 74.6198 41.6823 75.0782C41.8177 75.1667 41.9375 75.2761 42.0156 75.4167C42.1302 75.6302 42.0573 75.7552 41.8229 75.7552Z" fill="white"/>
<path d="M59.5052 69.4844C58.4687 69.4375 57.3646 69.2708 56.3542 68.7188C55.7812 68.4063 55.2865 68 55 67.3958C54.8698 67.1198 54.8073 66.849 54.8542 66.5365C54.9167 66.0729 54.8958 65.599 54.9427 65.1302C55.0104 64.4792 55.0885 63.8333 55.1719 63.1823C55.3281 61.9531 56.0052 61.1042 57.1146 60.6302C59.2552 59.7083 61.3385 59.8802 63.3177 61.0885C64.0208 61.5104 64.5573 62.1198 64.7708 62.9427C64.9271 63.526 64.9583 64.1354 64.8958 64.7396C64.8333 65.4167 64.7552 66.0885 64.6823 66.7656C64.6406 67.1927 64.4219 67.5313 64.151 67.8438C63.7448 68.3073 63.2344 68.6302 62.6719 68.875C61.7396 69.2865 60.6615 69.4583 59.5052 69.4844ZM60.4896 65.7656C60.8698 65.7865 61.3854 65.7292 61.8854 65.5885C62.4427 65.4323 62.9583 65.2083 63.3958 64.8281C64.0937 64.2396 64.2396 63.3802 63.7708 62.6406C63.599 62.3646 63.3906 62.125 63.1198 61.9375C61.4062 60.7813 59.5781 60.6042 57.6458 61.2708C57.1979 61.4271 56.8177 61.7031 56.4948 62.0573C55.9792 62.625 55.9062 63.3437 56.3073 64C56.5156 64.3437 56.7969 64.6198 57.125 64.8438C58.099 65.5104 59.1875 65.7708 60.4896 65.7656ZM64.0365 65.4219C63.9062 65.4167 63.8437 65.5052 63.7708 65.5625C63.3229 65.9063 62.8229 66.1406 62.2917 66.3125C60.1667 67 57.2708 66.3906 55.9896 64.9115C55.9479 64.8594 55.8958 64.7812 55.8073 64.8229C55.7344 64.8646 55.7448 64.9531 55.7448 65.0208C55.7187 65.5052 55.7031 65.9844 55.6615 66.4635C55.6146 67.0156 55.875 67.4063 56.2917 67.724C56.6615 68 57.0677 68.2083 57.5052 68.3385C59.1615 68.8281 60.7917 68.776 62.3958 68.1146C62.8333 67.9323 63.224 67.6771 63.5417 67.3177C63.6406 67.2083 63.7448 67.0937 63.776 66.9479C63.8854 66.4427 64.0052 65.9427 64.0365 65.4219Z" fill="white"/>
<path d="M71.5781 62.9011C70.5781 62.9167 69.6094 62.7448 68.6875 62.3542C68.1823 62.1354 67.724 61.849 67.349 61.4427C66.9479 60.9948 66.724 60.5104 66.7917 59.8646C66.8646 59.1563 66.8802 58.4375 66.9687 57.724C67.0208 57.2865 67.0781 56.8438 67.151 56.4063C67.3333 55.2448 68.0625 54.5156 69.0833 54.0469C70.1771 53.5469 71.3333 53.4167 72.526 53.5625C73.5469 53.6823 74.5052 53.9844 75.349 54.5886C76.0625 55.0938 76.6094 55.7396 76.7656 56.6354C76.8437 57.0833 76.8906 57.5417 76.8437 58C76.776 58.7708 76.7031 59.5469 76.6042 60.3177C76.5469 60.7344 76.2917 61.0677 76.0156 61.3698C75.6406 61.7761 75.1823 62.0625 74.6771 62.2813C73.6927 62.7136 72.6562 62.9167 71.5781 62.9011ZM71.5521 54.3542C71.1302 54.3386 70.625 54.3802 70.1354 54.5208C69.6042 54.6667 69.1146 54.8906 68.6823 55.2396C67.8698 55.9011 67.7604 56.8333 68.3958 57.6563C68.8177 58.2031 69.3854 58.5469 70.0104 58.7917C71.0833 59.2083 72.1875 59.3333 73.3229 59.1354C74.1406 58.9948 74.901 58.7188 75.4948 58.1042C76.0833 57.5 76.1458 56.7083 75.6667 56.0104C75.4219 55.6615 75.1042 55.3906 74.7448 55.1667C73.7917 54.5729 72.75 54.3333 71.5521 54.3542ZM75.974 58.8177C73.9323 60.5886 69.7135 60.4323 67.7604 58.2344C67.6979 58.2656 67.6875 58.3281 67.6823 58.3906C67.6562 58.9427 67.6302 59.4948 67.599 60.0521C67.5833 60.3958 67.7187 60.6719 67.9531 60.9115C68.3229 61.2969 68.776 61.5417 69.2708 61.7136C70.7917 62.2396 72.3177 62.2188 73.849 61.7448C74.3698 61.5833 74.8542 61.3333 75.2708 60.974C75.4479 60.8229 75.6354 60.6563 75.6927 60.4271C75.8281 59.9063 75.9375 59.3802 75.974 58.8177Z" fill="white"/>
<path d="M84.0312 57.4896C83.0312 57.5052 82.0677 57.3334 81.1458 56.9427C80.6406 56.724 80.1771 56.4427 79.8073 56.0313C79.401 55.5834 79.1927 55.099 79.2448 54.4532C79.3177 53.5313 79.3802 52.6094 79.4948 51.6927C79.5208 51.4688 79.5625 51.25 79.5937 51.0313C79.776 49.8594 80.5 49.1094 81.5365 48.6354C82.6302 48.1354 83.7865 48.0052 84.974 48.1511C85.9948 48.2709 86.9583 48.5729 87.8021 49.1719C88.5052 49.6771 89.0469 50.3073 89.2135 51.1823C89.3021 51.6563 89.3437 52.1407 89.2969 52.625C89.2292 53.3854 89.1562 54.1459 89.0573 54.9063C89.0052 55.3229 88.7448 55.6511 88.4687 55.9532C88.0937 56.3594 87.6354 56.6511 87.1354 56.8698C86.1458 57.3021 85.1094 57.5052 84.0312 57.4896ZM84.0052 48.9427C83.5833 48.9271 83.0781 48.9688 82.5885 49.1094C82.0573 49.2552 81.5677 49.4792 81.1354 49.8282C80.3229 50.4896 80.2135 51.4219 80.849 52.2448C81.2708 52.7917 81.8385 53.1354 82.4635 53.3802C83.5365 53.7969 84.6406 53.9219 85.776 53.724C86.5937 53.5834 87.3542 53.3073 87.9479 52.6927C88.5365 52.0886 88.599 51.2969 88.1198 50.599C87.875 50.25 87.5573 49.9792 87.1979 49.7552C86.2448 49.1615 85.2031 48.9219 84.0052 48.9427ZM88.4375 53.3854C87.1667 54.4167 85.7396 54.7084 84.2031 54.5938C82.6667 54.474 81.2969 53.9636 80.2344 52.8073C80.151 52.8594 80.1406 52.9167 80.1354 52.9792C80.1094 53.5365 80.0833 54.0886 80.0521 54.6407C80.0365 54.9844 80.1771 55.2604 80.4115 55.5052C80.776 55.8907 81.2292 56.1354 81.724 56.3021C83.2448 56.8282 84.776 56.8073 86.3021 56.3334C86.8281 56.1667 87.3073 55.9219 87.724 55.5625C87.9844 55.3386 88.1667 55.0782 88.224 54.724C88.2917 54.2969 88.3906 53.8802 88.4375 53.3854Z" fill="white"/>
<path d="M27.0104 57.0417C25.9375 57.0573 24.974 56.8854 24.0521 56.4896C23.5729 56.2865 23.1302 56.0156 22.7708 55.6302C22.3385 55.1719 22.1094 54.6719 22.1615 53.9948C22.2396 53.0729 22.3021 52.151 22.4167 51.2344C22.4427 51.0104 22.4844 50.7917 22.5156 50.5729C22.7031 49.401 23.4219 48.6302 24.4687 48.1927C26.5104 47.3333 28.5208 47.4844 30.4583 48.5521C30.8698 48.7812 31.2083 49.1094 31.5208 49.4635C32.0521 50.0781 32.2083 50.8177 32.224 51.599C32.2448 52.3281 32.151 53.0521 32.0521 53.776C32.0417 53.8698 32.0104 53.9687 32.0104 54.0677C32.026 54.8333 31.6042 55.3698 31.0521 55.8229C30.349 56.3958 29.5104 56.6927 28.6354 56.8802C28.0729 57 27.5104 57.0625 27.0104 57.0417ZM27.5312 53.3698C28.2187 53.3698 28.7812 53.3021 29.3281 53.1354C29.9219 52.9531 30.474 52.6823 30.9062 52.2083C31.4323 51.6406 31.5 50.8906 31.0885 50.2344C30.8594 49.8698 30.5573 49.5781 30.1927 49.3594C28.4948 48.349 26.7135 48.2135 24.8646 48.8958C24.4896 49.0365 24.1615 49.2604 23.8802 49.5469C23.2448 50.1875 23.1875 50.9948 23.7135 51.7292C23.9479 52.0521 24.2448 52.3073 24.5781 52.526C25.5156 53.1198 26.5573 53.3333 27.5312 53.3698ZM31.349 52.9375C30.099 53.9687 28.6719 54.2604 27.1354 54.1458C25.5937 54.0365 24.2187 53.5156 23.151 52.3646C23.0729 52.4219 23.0625 52.474 23.0573 52.5208C23.0312 53.0729 23.0052 53.6302 22.974 54.1823C22.9583 54.526 23.0885 54.8021 23.3177 55.0469C23.6979 55.4427 24.1615 55.6927 24.6667 55.8646C26.1771 56.3802 27.6927 56.3594 29.2083 55.8906C29.7448 55.724 30.2396 55.474 30.6615 55.099C30.849 54.9375 31.0312 54.7604 31.0885 54.5104C31.2031 54.0052 31.3177 53.5 31.349 52.9375Z" fill="white"/>
<path d="M10.1406 52.0521C10.1146 53.5104 10.0885 54.9635 10.0573 56.4167C10.0521 56.651 10.0156 56.8854 9.98958 57.1146C9.97916 57.2396 9.9427 57.3594 9.8802 57.4636C9.77083 57.6511 9.66145 57.6458 9.55729 57.4583C9.48958 57.3385 9.45833 57.2083 9.44791 57.0677C9.35937 56.1979 9.36458 55.3229 9.42187 54.4479C9.43749 54.2396 9.43749 54.0261 9.4427 53.8177C9.45833 52.6458 9.53645 51.4792 9.59895 50.3073C9.60937 50.1615 9.64062 50.0156 9.67708 49.875C9.70312 49.7604 9.74999 49.651 9.88541 49.651C10.0312 49.6458 10.0677 49.7604 10.0833 49.875C10.1042 50.0313 10.1302 50.1927 10.1302 50.3542C10.1354 50.9167 10.1354 51.4844 10.1354 52.0521H10.1406Z" fill="white"/>
<path d="M9.36978 58.7656C9.36978 58.6302 9.38541 58.4948 9.44791 58.375C9.55208 58.1875 9.73958 58.1823 9.85416 58.3542C9.97395 58.5521 9.91145 59.026 9.73437 59.1771C9.63541 59.2656 9.53645 59.2604 9.45312 59.151C9.36978 59.0365 9.36978 58.901 9.36978 58.7656Z" fill="white"/>
<path d="M41.4583 66.5781C41.4687 65.4584 41.474 64.3386 41.5469 63.2188C41.5729 62.8854 41.6042 62.5521 41.6354 62.224C41.6458 62.125 41.6719 62.0313 41.7031 61.9375C41.7396 61.8125 41.8021 61.6979 41.9479 61.6979C42.099 61.7031 42.151 61.8177 42.1823 61.9427C42.2187 62.1042 42.224 62.2604 42.224 62.4219C42.25 64.3438 42.1719 66.2656 42.1615 68.1875C42.1562 68.4584 42.1042 68.7292 42.0677 68.9948C42.0573 69.0834 42.0312 69.1667 42 69.2448C41.9427 69.3698 41.875 69.5052 41.7135 69.4948C41.5469 69.4844 41.5104 69.3386 41.4844 69.2031C41.4635 69.0834 41.4583 68.9584 41.4583 68.8334C41.4583 68.0834 41.4583 67.3334 41.4583 66.5781Z" fill="white"/>
<path d="M42 70.4844C41.974 70.6094 41.9896 70.7552 41.8385 70.8177C41.7396 70.8594 41.6302 70.7292 41.5833 70.5208C41.5521 70.3854 41.5521 70.2552 41.6615 70.1563C41.7135 70.1094 41.776 70.1042 41.8333 70.1354C41.974 70.2083 41.9792 70.349 42 70.4844Z" fill="white"/>
<path d="M95.9687 46.724C95.5625 46.6875 95.1562 46.6719 94.7552 46.5729C94.3177 46.4635 93.9271 46.2656 93.6198 45.9167C93.2552 45.5 93.1562 45.0052 93.2187 44.4688C93.2239 44.4167 93.2396 44.3698 93.2604 44.3281C93.2969 44.2552 93.3489 44.2031 93.4323 44.2135C93.5 44.2188 93.5469 44.2604 93.5677 44.3229C93.6094 44.4375 93.6458 44.5573 93.6667 44.6771C93.7864 45.3854 94.2344 45.7708 94.8958 45.9583C95.2448 46.0521 95.5937 46.125 95.9479 46.1823C96.1771 46.2188 96.4062 46.276 96.6198 46.375C96.6719 46.401 96.7344 46.4323 96.7344 46.5052C96.7396 46.599 96.6562 46.625 96.5885 46.6406C96.3854 46.6979 96.1771 46.7344 95.9687 46.724Z" fill="white"/>
<path d="M85.1042 39.224C84.7344 39.1719 84.349 39.1823 83.974 39.0781C83.0104 38.8073 82.5156 37.625 83.0104 36.7448C83.0521 36.6667 83.099 36.599 83.1719 36.5469C83.2552 36.4844 83.349 36.4479 83.4427 36.5104C83.5313 36.5729 83.5052 36.6615 83.474 36.75C83.4063 36.974 83.375 37.2031 83.3854 37.4427C83.4219 38.0261 83.6823 38.3542 84.2448 38.4896C84.5833 38.5729 84.9219 38.625 85.2604 38.6875C85.4688 38.724 85.6719 38.7761 85.8646 38.8542C85.9271 38.8802 85.9896 38.9115 85.9896 38.9792C85.9948 39.0677 85.9115 39.0886 85.8385 39.1146C85.6042 39.1875 85.3542 39.1979 85.1042 39.224Z" fill="white"/>
<path d="M50.1667 57.1979C49.6927 57.1719 49.2656 57.125 48.8542 56.9792C48.6198 56.901 48.4062 56.7812 48.2031 56.6354C47.3854 56.0417 47.3906 55.25 47.7917 54.474C47.8177 54.4219 47.8594 54.3698 47.901 54.3281C47.9531 54.2656 48.0208 54.2344 48.099 54.2656C48.1823 54.2969 48.2031 54.375 48.1979 54.4479C48.1823 54.5833 48.1562 54.7187 48.1302 54.849C47.9948 55.5729 48.1406 55.8906 48.7812 56.2552C49.151 56.4635 49.5625 56.5573 49.9687 56.6615C50.2083 56.724 50.4427 56.7917 50.6562 56.9219C50.7135 56.9583 50.7656 57 50.75 57.0677C50.7344 57.1302 50.6719 57.1615 50.6094 57.1667C50.4479 57.1823 50.2865 57.1927 50.1667 57.1979Z" fill="white"/>
<path d="M17.125 45C16.3333 44.974 15.6615 44.6979 15.1823 44.0313C14.6927 43.349 14.8646 42.3177 15.5573 41.8333C15.6146 41.7917 15.6875 41.7604 15.7552 41.7396C15.8125 41.724 15.8802 41.7344 15.9219 41.7865C15.9687 41.8438 15.9531 41.9011 15.9219 41.9583C15.8385 42.0938 15.75 42.2292 15.6771 42.3698C15.3177 43.0938 15.4323 43.5521 16.0885 44.0313C16.3542 44.2188 16.651 44.3281 16.9635 44.4115C17.1875 44.474 17.4219 44.5208 17.6198 44.6615C17.7656 44.7604 17.7552 44.8646 17.5937 44.9219C17.4479 44.9792 17.2865 45.0104 17.125 45Z" fill="white"/>
<path d="M38.9115 46.1459C38.1302 46.1771 37.4948 45.8646 36.9792 45.2969C36.5 44.7709 36.4323 43.8594 36.8177 43.2604C36.8437 43.2188 36.8698 43.1771 36.9062 43.1407C36.9844 43.0625 37.0729 42.9792 37.1927 43.0469C37.3021 43.1094 37.276 43.2188 37.2552 43.3125C37.1927 43.5417 37.1302 43.7657 37.1198 44.0052C37.099 44.4896 37.2969 44.8646 37.6927 45.1354C38.0573 45.3802 38.4583 45.5365 38.8958 45.5886C39.151 45.6198 39.4115 45.6459 39.651 45.7552C39.7135 45.7865 39.7917 45.8177 39.7917 45.9063C39.7865 45.9948 39.7083 46.0209 39.6406 46.0521C39.4062 46.1615 39.1615 46.1459 38.9115 46.1459Z" fill="white"/>
<path d="M74.5365 45.6198C73.6615 45.6667 72.9323 45.3437 72.3646 44.6615C71.9896 44.2031 71.8542 43.6875 72.0312 43.1042C72.0729 42.9635 72.1406 42.8281 72.2604 42.7344C72.3229 42.6823 72.3906 42.6615 72.4687 42.6979C72.5469 42.7396 72.5521 42.8125 72.5417 42.8906C72.5365 42.901 72.5312 42.9115 72.5312 42.9271C72.4062 43.9948 72.9375 44.7396 74.026 44.9792C74.375 45.0521 74.7344 45.0781 75.0833 45.1406C75.2292 45.1615 75.375 45.2031 75.5156 45.25C75.5677 45.2656 75.6302 45.3021 75.625 45.3802C75.6198 45.4531 75.5521 45.474 75.5 45.4948C75.1927 45.6094 74.875 45.6302 74.5365 45.6198Z" fill="white"/>
<path d="M28.2812 38.8594C27.7187 38.8125 27.151 38.724 26.6667 38.3542C25.901 37.7709 25.7448 36.8073 26.3021 36.0209C26.3333 35.9792 26.3594 35.9375 26.3958 35.9063C26.5 35.8073 26.6146 35.724 26.7552 35.8125C26.8906 35.8959 26.849 36.0313 26.8125 36.1459C26.7187 36.4167 26.651 36.6875 26.651 36.9792C26.6562 37.2865 26.776 37.5261 27.0104 37.7188C27.2708 37.9375 27.5729 38.0729 27.8958 38.1615C28.1458 38.2292 28.3958 38.2917 28.6458 38.3698C28.7396 38.4011 28.8281 38.4479 28.9062 38.5052C29.0312 38.5938 29.0208 38.6823 28.8802 38.75C28.6979 38.8334 28.5052 38.8646 28.2812 38.8594Z" fill="white"/>
<path d="M61.3281 51.3854C60.9323 51.349 60.5104 51.3542 60.0989 51.25C59.6614 51.1406 59.2656 50.9531 58.9583 50.6094C58.5 50.099 58.4479 49.5104 58.625 48.875C58.6614 48.7552 58.7292 48.6302 58.8802 48.651C59.0312 48.6771 59.0469 48.8125 59.0573 48.9375C59.0677 49.0521 59.0625 49.1615 59.0677 49.2708C59.0833 49.8802 59.3802 50.2969 59.9479 50.5156C60.3802 50.6823 60.8333 50.7396 61.2864 50.776C61.7187 50.8125 62.1458 50.8698 62.5573 50.9948C62.6302 51.0156 62.7187 51.0365 62.7187 51.125C62.724 51.2083 62.6354 51.2292 62.5625 51.25C62.1615 51.3385 61.7552 51.3646 61.3281 51.3854Z" fill="white"/>
<path d="M60.1198 64.7708C59.4323 64.7344 58.8646 64.5833 58.375 64.2136C57.7344 63.724 57.4635 62.8958 57.7135 62.1667C57.7812 61.9792 57.8646 61.8021 58.0312 61.6771C58.1146 61.6146 58.2135 61.5781 58.3073 61.6458C58.3906 61.7083 58.3646 61.8021 58.3385 61.8854C58.3177 61.9531 58.2865 62.0261 58.2708 62.0938C58.0781 62.8021 58.3125 63.3958 58.9427 63.7708C59.224 63.9375 59.526 64.0469 59.8333 64.1354C60.0208 64.1927 60.2187 64.2344 60.3906 64.3333C60.5 64.4011 60.6771 64.4427 60.6458 64.6094C60.6146 64.7448 60.4531 64.7396 60.3333 64.7552C60.2344 64.7656 60.1354 64.7708 60.1198 64.7708Z" fill="white"/>
<path d="M70.0208 56.1146C70 56.75 70.2031 57.0677 70.8021 57.3073C71.1094 57.4271 71.4323 57.5156 71.7552 57.5937C71.9687 57.6458 72.1823 57.7083 72.3802 57.8125C72.474 57.8646 72.625 57.8906 72.6146 58.0208C72.599 58.1562 72.4479 58.1354 72.3437 58.1562C72 58.2396 71.6562 58.1615 71.3177 58.1198C70.8594 58.0625 70.4271 57.9271 70.0521 57.6406C69.5677 57.276 69.3385 56.6302 69.5052 56.0677C69.5469 55.9375 69.5937 55.8125 69.6979 55.7135C69.7656 55.6562 69.8437 55.6094 69.9323 55.6406C70.0312 55.6771 70.0417 55.7656 70.0365 55.8542C70.0365 55.9427 70.026 56.026 70.0208 56.1146Z" fill="white"/>
<path d="M83.9844 52.9583C83.5885 52.9688 83.1927 52.9531 82.8125 52.8281C82.5156 52.7292 82.2396 52.5938 82.0208 52.3698C81.5729 51.9115 81.5625 51.2396 81.8542 50.724C81.8802 50.6823 81.9114 50.6458 81.9479 50.6094C82 50.5573 82.0677 50.5208 82.1458 50.5573C82.2239 50.5886 82.2448 50.6615 82.2396 50.7396C82.2239 50.9011 82.1927 51.0573 82.1875 51.2188C82.1719 51.7396 82.3333 51.9896 82.8281 52.1719C83.3437 52.3594 83.8906 52.3698 84.4271 52.4011C84.7031 52.4219 84.9687 52.4323 85.2344 52.5C85.3229 52.5208 85.4531 52.5261 85.4479 52.6563C85.4479 52.7604 85.3385 52.7813 85.2604 52.8073C84.9323 52.9219 84.5885 52.9636 84.2396 52.9583C84.1562 52.9583 84.0677 52.9583 83.9844 52.9583Z" fill="white"/>
<path d="M26.401 52.4896C26.0573 52.4479 25.7344 52.4011 25.4167 52.2917C24.5781 52 24.026 50.5156 24.8021 49.625C24.8854 49.5313 24.974 49.4479 25.0937 49.4011C25.1771 49.3698 25.2604 49.3646 25.3281 49.4427C25.3854 49.5104 25.3698 49.5833 25.3333 49.6511C25.3021 49.7188 25.2604 49.7761 25.224 49.8438C24.7552 50.6719 25.0937 51.5729 26 51.8906C26.224 51.9688 26.4531 52.0156 26.6562 52.1406C26.7292 52.1823 26.8229 52.224 26.8125 52.3281C26.7969 52.4323 26.6927 52.4375 26.6094 52.4583C26.5365 52.4688 26.4635 52.4792 26.401 52.4896Z" fill="white"/>
<path d="M126.879 56.5073C126.848 43.0385 126.848 36.2885 126.879 36.2573C126.879 36.2156 127.614 36.1948 129.088 36.1948C130.557 36.1948 131.317 36.2156 131.359 36.2573C131.385 36.2573 131.4 42.3093 131.4 54.4031V72.6114H150.942V76.7989H126.942C126.9 76.7573 126.879 69.9968 126.879 56.5073Z" fill="#040053"/>
<path d="M163.45 36.2989C163.601 36.2729 167.205 36.2573 174.262 36.2573C177.762 36.2885 180.518 36.2989 182.533 36.2989C184.559 36.2989 185.887 36.2989 186.512 36.2989H187.117V40.4448H167.596V53.7364H185.575V57.9864H167.596L167.533 58.4864C167.533 58.6687 167.533 59.3562 167.533 60.5489C167.533 61.7468 167.554 63.4656 167.596 65.7156V72.5073H187.179V74.5489C187.179 75.976 187.158 76.7052 187.117 76.7364H174.929C167.054 76.7364 163.117 76.7208 163.117 76.6948C163.085 76.6531 163.075 70.6218 163.075 58.5906V36.2989H163.45Z" fill="#040053"/>
<path d="M214.301 35.9864C215.452 36.0593 216.207 36.1479 216.572 36.2573C216.572 36.2573 216.66 36.2573 216.843 36.2573C216.926 36.2885 217.009 36.3145 217.093 36.3406C217.186 36.3562 217.306 36.3979 217.447 36.4656C217.848 36.5802 218.072 36.6323 218.113 36.6323C218.223 36.7156 218.28 36.7677 218.28 36.7781C218.28 36.7937 218.311 36.7989 218.384 36.7989C218.468 36.7989 218.655 36.877 218.947 37.0281C219.238 37.1843 219.551 37.3406 219.884 37.5073C220.218 37.6635 220.535 37.8198 220.843 37.9864C221.16 38.1531 221.353 38.2729 221.426 38.3406C221.577 38.4552 221.681 38.5385 221.738 38.5906C221.791 38.6479 221.832 38.6948 221.863 38.7364C222.265 39.0281 222.718 39.4187 223.218 39.9031C223.718 40.377 224.093 40.7781 224.343 41.1114C224.384 41.1843 224.436 41.252 224.509 41.3198C224.77 41.5854 225.02 41.9448 225.259 42.4031C225.494 42.8614 225.707 43.3614 225.905 43.9031C226.113 44.4343 226.27 44.9448 226.384 45.4448C226.494 45.9343 226.572 46.3614 226.613 46.7364C226.681 46.9864 226.681 47.1687 226.613 47.2781C226.613 47.3614 226.613 47.4395 226.613 47.5073C226.499 47.5073 226.369 47.5073 226.218 47.5073C226.103 47.5073 225.968 47.5073 225.801 47.5073C225.645 47.5073 225.436 47.5281 225.176 47.5698C224.259 47.6843 223.765 47.6948 223.697 47.6114C223.541 46.4031 223.041 45.3145 222.197 44.3406C221.348 43.3718 220.431 42.5698 219.447 41.9448C219.223 41.752 219.056 41.6427 218.947 41.6114C218.874 41.5281 218.822 41.476 218.78 41.4448C218.738 41.4448 218.645 41.4031 218.509 41.3198C217.994 41.0281 217.436 40.8198 216.843 40.6948C216.259 40.5698 215.634 40.4552 214.968 40.3406C214.561 40.2573 214.176 40.2156 213.801 40.2156C213.436 40.2156 213.093 40.2364 212.759 40.2781C212.353 40.2781 212.119 40.3145 212.051 40.3823C211.978 40.3823 211.791 40.3979 211.488 40.4239C211.197 40.4395 211.015 40.4812 210.947 40.5489L210.843 40.6114C210.843 40.6114 210.765 40.6479 210.613 40.7156C210.166 40.8302 209.749 40.9864 209.363 41.1948C208.988 41.3927 208.613 41.6218 208.238 41.8823C208.166 41.9239 208.03 42.0489 207.822 42.2573C207.624 42.4552 207.416 42.6635 207.197 42.8823C206.973 43.0906 206.78 43.2937 206.613 43.4864C206.447 43.6687 206.363 43.7937 206.363 43.8614C206.291 43.9448 206.223 44.0802 206.155 44.2573C206.072 44.3302 206.02 44.3614 206.009 44.3614C205.994 44.3614 205.968 44.3823 205.926 44.4239C205.926 44.4552 205.905 44.5073 205.863 44.5906L205.655 45.0281C205.348 45.5437 205.113 46.002 204.947 46.4031C204.791 46.8093 204.66 47.1948 204.551 47.5698C204.468 47.8198 204.39 47.976 204.322 48.0281C204.249 48.0854 204.228 48.2052 204.259 48.3823C204.16 48.7156 204.113 48.8823 204.113 48.8823C204.113 48.9239 204.093 48.9656 204.051 49.0073C203.895 49.3718 203.785 49.7781 203.718 50.2364C203.645 50.6948 203.572 51.2052 203.488 51.7573C203.374 52.6323 203.291 53.5385 203.238 54.4656C203.197 55.3823 203.207 56.3354 203.28 57.3198C203.306 58.2781 203.353 59.127 203.426 59.8614C203.509 60.601 203.582 61.2989 203.655 61.9656C203.697 62.2156 203.723 62.3979 203.738 62.5073C203.765 62.6218 203.78 62.7156 203.78 62.7989C203.806 62.8302 203.822 62.877 203.822 62.9448C203.863 62.9864 203.884 63.0854 203.884 63.2364C203.952 63.5281 204.009 63.6739 204.051 63.6739C204.051 63.6323 204.082 63.7573 204.155 64.0489V64.2156L204.218 64.4448C204.244 64.5593 204.291 64.7468 204.363 65.0073C204.447 65.2573 204.53 65.5229 204.613 65.7989C204.707 66.0802 204.806 66.3198 204.905 66.5281C204.999 66.726 205.061 66.8198 205.093 66.8198V66.9239L205.197 67.0281V67.1531L205.259 67.2573C205.301 67.2989 205.353 67.4448 205.426 67.6948C206.202 69.351 207.327 70.6531 208.801 71.6114C210.27 72.5698 211.926 73.0854 213.759 73.1531C215.593 73.2364 217.02 72.9239 218.051 72.2156C218.978 71.6739 219.791 70.8979 220.488 69.8823C221.181 68.8718 221.765 67.7573 222.238 66.5489C222.723 65.3302 223.082 64.0854 223.322 62.8198C223.572 61.5437 223.697 60.3927 223.697 59.3614V59.0281H213.759V54.5698H227.488V54.8406C227.457 54.7052 227.452 54.851 227.468 55.2781C227.478 55.6948 227.488 56.1218 227.488 56.5489V58.0906C227.488 58.2468 227.509 58.4135 227.551 58.5906C227.478 59.2989 227.416 59.9968 227.363 60.6739C227.306 61.3562 227.223 62.0437 227.113 62.7364C227.072 62.9604 227.035 63.127 227.009 63.2364C226.994 63.351 226.988 63.4187 226.988 63.4448C226.916 63.6687 226.853 63.9604 226.801 64.3198C226.744 64.6687 226.66 65.0593 226.551 65.4864C226.551 65.5698 226.541 65.6323 226.53 65.6739C226.515 65.7052 226.488 65.752 226.447 65.8198C226.332 66.4864 226.113 67.252 225.78 68.1114C225.447 68.976 225.051 69.8302 224.593 70.6739C224.134 71.5229 223.634 72.3145 223.093 73.0489C222.561 73.7833 222.041 74.351 221.53 74.7573C221.39 74.825 221.322 74.8614 221.322 74.8614C221.124 75.0541 221.03 75.1531 221.03 75.1531C220.999 75.1531 220.968 75.1635 220.926 75.1948C220.926 75.2781 220.676 75.4448 220.176 75.6948C219.686 75.9552 219.28 76.1427 218.947 76.2573C218.613 76.3927 218.259 76.4968 217.884 76.5698C217.52 76.6531 217.119 76.7468 216.676 76.8614C216.134 76.9291 215.52 76.9708 214.843 76.9864C214.16 77.0125 213.478 76.9968 212.801 76.9448C212.119 76.8875 211.436 76.7885 210.759 76.6531C210.077 76.5281 209.457 76.3718 208.905 76.1948C208.322 76.0125 207.765 75.8093 207.238 75.5906C206.723 75.3666 206.265 75.1114 205.863 74.8198C205.791 74.7364 205.707 74.6583 205.613 74.5906C205.53 74.5177 205.468 74.4864 205.426 74.4864C203.884 73.2781 202.645 71.8614 201.718 70.2364C200.801 68.6114 200.197 66.851 199.905 64.9448L199.738 64.1114C199.624 63.6427 199.541 63.1479 199.488 62.6323C199.431 62.1218 199.369 61.5645 199.301 60.9656C199.301 60.8979 199.28 60.7364 199.238 60.4864C199.207 60.226 199.197 60.002 199.197 59.8198C198.973 57.6427 198.973 55.2989 199.197 52.7989C199.238 52.5073 199.27 52.2156 199.301 51.9239C199.343 51.6323 199.395 51.3198 199.468 50.9864C199.619 49.7364 199.884 48.4448 200.259 47.1114C200.645 45.7677 201.176 44.476 201.843 43.2364C202.509 42.002 203.301 40.877 204.218 39.8614C205.134 38.851 206.181 38.0489 207.363 37.4656C208.572 36.8406 209.707 36.4395 210.78 36.2573C211.848 36.0802 213.02 35.9864 214.301 35.9864Z" fill="#040053"/>
<path d="M253.47 36.1531C253.647 36.1114 253.913 36.0906 254.262 36.0906C254.621 36.0906 255.058 36.0906 255.574 36.0906C256.084 36.1322 256.501 36.1531 256.824 36.1531C257.157 36.1531 257.376 36.1687 257.491 36.1947C257.782 36.2677 258.043 36.3145 258.282 36.3406C258.532 36.3562 258.746 36.3979 258.928 36.4656C259.704 36.6895 260.407 36.9552 261.032 37.2572H261.137C261.178 37.2885 261.199 37.2989 261.199 37.2989C261.225 37.3406 261.241 37.3614 261.241 37.3614C261.241 37.2937 261.329 37.3145 261.512 37.4239C261.704 37.5229 261.834 37.6114 261.907 37.6947L262.741 38.1322C262.85 38.2468 262.918 38.2989 262.949 38.2989C262.991 38.2989 263.084 38.3562 263.241 38.4656C263.267 38.4968 263.392 38.5854 263.616 38.7364C263.793 38.8927 264.022 39.101 264.303 39.3614C264.579 39.6114 264.866 39.8822 265.157 40.1739C265.459 40.4656 265.73 40.7468 265.97 41.0072C266.204 41.2572 266.345 41.4604 266.387 41.6114C266.413 41.726 266.47 41.7781 266.553 41.7781C266.553 41.7781 266.564 41.7937 266.595 41.8197C266.637 41.9031 266.689 41.9812 266.762 42.0489V42.1531H266.824L266.866 42.2572V42.3197C266.907 42.3614 266.959 42.4343 267.032 42.5281C267.116 42.6114 267.209 42.7468 267.324 42.9239C267.574 43.2989 267.699 43.502 267.699 43.5281C267.699 43.5697 267.72 43.6114 267.762 43.6531C267.829 43.6843 267.887 43.7937 267.928 43.9864C268.47 45.0177 268.871 45.9864 269.137 46.9031C269.178 47.0177 269.199 47.1062 269.199 47.1739C269.308 47.4395 269.418 47.8093 269.532 48.2781C269.558 48.351 269.574 48.3822 269.574 48.3822C269.725 48.8718 269.892 49.7156 270.074 50.9239C270.116 51.0072 270.137 51.1114 270.137 51.2364C270.137 51.3614 270.147 51.502 270.178 51.6531C270.288 52.4187 270.329 52.9343 270.303 53.1947C270.303 53.3093 270.314 53.4187 270.345 53.5281C270.387 53.851 270.413 54.2781 270.428 54.8197C270.454 55.351 270.47 56.002 270.47 56.7781C270.47 57.5593 270.454 58.226 270.428 58.7781C270.413 59.3197 270.387 59.7937 270.345 60.1947C270.345 60.2677 270.334 60.3406 270.324 60.4239C270.308 60.4968 270.303 60.5645 270.303 60.6322C270.303 60.7156 270.303 60.7729 270.303 60.7989C270.303 61.0645 270.288 61.2885 270.262 61.4656C270.246 61.6479 270.241 61.7937 270.241 61.9031C270.199 62.0593 270.178 62.1895 270.178 62.2989C270.178 62.4135 270.163 62.5229 270.137 62.6322C270.022 63.4656 269.866 64.3354 269.657 65.2364C269.459 66.1427 269.157 66.9812 268.741 67.7572V67.7989C268.741 67.8406 268.725 67.8822 268.699 67.9239C268.699 67.9968 268.642 68.1427 268.532 68.3614L268.199 69.0281C268.126 69.1687 268.095 69.2364 268.095 69.2364L267.928 69.5281C267.928 69.5281 267.887 69.601 267.803 69.7364C267.772 69.851 267.689 70.0072 267.553 70.2156C267.428 70.4135 267.288 70.6218 267.137 70.8406C266.996 71.0645 266.866 71.2572 266.741 71.4239C266.616 71.5906 266.532 71.6947 266.491 71.7364L266.428 71.7781V71.8406C266.428 71.8718 266.413 71.9031 266.387 71.9447C266.345 72.0177 266.209 72.1739 265.991 72.4239C265.767 72.6635 265.522 72.8979 265.262 73.1322C265.012 73.3666 264.782 73.5802 264.574 73.7781C264.376 73.9864 264.262 74.0906 264.22 74.0906H264.178C264.095 74.1739 264.017 74.226 263.949 74.2572C263.876 74.3406 263.772 74.4135 263.637 74.4864C263.512 74.5541 263.376 74.6427 263.241 74.7572C262.532 75.2416 261.788 75.6375 261.012 75.9447C260.246 76.2625 259.439 76.5125 258.595 76.6947C257.564 76.8718 256.605 76.976 255.72 77.0072C254.845 77.0489 254.017 77.0125 253.241 76.9031C253.058 76.8718 252.892 76.8614 252.741 76.8614C252.6 76.8614 252.496 76.8406 252.428 76.7989C252.121 76.7572 251.933 76.726 251.866 76.7156C251.793 76.7 251.704 76.6947 251.595 76.6947C251.371 76.6218 251.183 76.5697 251.032 76.5281C250.959 76.5281 250.845 76.4968 250.678 76.4447C250.512 76.3875 250.392 76.3406 250.324 76.2989C249.808 76.1843 249.407 76.0593 249.116 75.9239C247.824 75.4343 246.564 74.6375 245.345 73.5281C244.137 72.4343 243.183 71.3354 242.491 70.2364C241.824 69.1427 241.288 67.9031 240.887 66.5281C240.48 65.1427 240.189 63.5645 240.012 61.7989V61.5697L239.907 60.9656V60.7572C239.907 60.3406 239.892 59.8718 239.866 59.3406C239.85 58.8145 239.845 58.1843 239.845 57.4447C239.845 56.7104 239.845 56.0802 239.845 55.5489C239.845 55.0072 239.866 54.5489 239.907 54.1739C239.907 54.0385 239.918 53.8718 239.949 53.6739C239.991 53.4656 240.032 53.1947 240.074 52.8614C240.168 51.8614 240.272 51.0385 240.387 50.3822C240.428 50.2989 240.449 50.1427 240.449 49.9031C240.449 49.6687 240.48 49.5177 240.553 49.4447C240.746 48.3354 241.043 47.2312 241.449 46.1322C241.85 45.0229 242.35 43.976 242.949 42.9864C243.558 41.9864 244.262 41.0697 245.053 40.2364C245.845 39.3927 246.741 38.6687 247.741 38.0697C247.85 38.002 247.939 37.9552 248.012 37.9239C248.079 37.8822 248.147 37.8406 248.22 37.7989C248.595 37.5072 249.074 37.2729 249.657 37.0906C249.699 37.0489 249.918 36.976 250.324 36.8614C250.699 36.752 250.897 36.6739 250.928 36.6322C251.48 36.4135 252.329 36.252 253.47 36.1531ZM256.678 40.7781C256.053 40.6687 255.272 40.6427 254.345 40.6947C253.428 40.752 252.678 40.9239 252.095 41.2156C251.871 41.2885 251.782 41.3197 251.824 41.3197C251.741 41.3197 251.683 41.3406 251.657 41.3822C251.574 41.4239 251.496 41.4552 251.428 41.4656C251.355 41.4812 251.267 41.5281 251.157 41.6114C250.975 41.6843 250.772 41.7885 250.553 41.9239C250.329 42.0489 250.126 42.1843 249.949 42.3197C249.725 42.4343 249.512 42.5854 249.303 42.7781C249.095 42.9604 248.897 43.1427 248.72 43.3197C248.647 43.3197 248.574 43.3718 248.491 43.4656C248.418 43.5489 248.371 43.5906 248.345 43.5906L247.845 44.0906C247.621 44.4239 247.376 44.7156 247.116 44.9656C247.043 45.0802 247.001 45.1322 246.991 45.1322C246.975 45.1322 246.97 45.1479 246.97 45.1739C246.97 45.1895 246.939 45.2468 246.887 45.3406C246.829 45.4239 246.725 45.5802 246.574 45.7989C246.35 46.0906 246.209 46.2885 246.157 46.3822C246.1 46.4656 246.058 46.5229 246.032 46.5489C246.017 46.5645 246.012 46.5854 246.012 46.6114C246.012 46.627 245.975 46.726 245.907 46.9031C245.834 47.0437 245.762 47.1947 245.678 47.3614C245.605 47.5281 245.501 47.726 245.366 47.9447C245.251 48.2364 245.147 48.5072 245.053 48.7572C244.97 48.9968 244.928 49.127 244.928 49.1531C244.845 49.4604 244.767 49.726 244.699 49.9447C244.543 50.2364 244.433 50.5854 244.366 50.9864C244.293 51.3927 244.22 51.8302 244.137 52.2989C244.105 52.4135 244.079 52.4968 244.053 52.5489C244.038 52.6062 244.032 52.7312 244.032 52.9239C244.001 52.9968 243.991 53.0802 243.991 53.1739C243.991 53.2572 243.97 53.3354 243.928 53.4031C243.887 53.5593 243.866 54.4604 243.866 56.1114C243.866 57.7364 243.887 58.6062 243.928 58.7156C243.97 58.7885 243.991 58.8718 243.991 58.9656C243.991 59.0489 244.001 59.1687 244.032 59.3197C244.032 59.502 244.084 59.8718 244.199 60.4239C244.199 60.4968 244.23 60.6947 244.303 61.0281C244.387 61.3614 244.459 61.7156 244.532 62.0906C244.6 62.4552 244.668 62.7781 244.741 63.0697C244.824 63.3614 244.887 63.5281 244.928 63.5697C244.954 63.6427 245.022 63.851 245.137 64.1947C245.246 64.5437 245.334 64.8093 245.407 64.9864C245.449 65.0697 245.48 65.1479 245.512 65.2156C245.553 65.2885 245.616 65.3979 245.699 65.5489C245.876 66.1062 246.105 66.6427 246.387 67.1531C246.663 67.6687 247.001 68.1479 247.407 68.5906C247.699 68.9968 247.933 69.252 248.116 69.3614C248.225 69.476 248.282 69.5645 248.282 69.6322L248.345 69.6947C248.345 69.6114 248.433 69.6635 248.616 69.8406C248.907 70.1062 249.178 70.351 249.428 70.5697C249.689 70.7937 249.954 70.976 250.22 71.1114L250.595 71.3406C250.814 71.5645 251.121 71.752 251.512 71.9031C251.897 72.0437 252.308 72.1531 252.741 72.2364C253.183 72.3093 253.626 72.3614 254.074 72.4031C254.517 72.4343 254.887 72.4447 255.178 72.4447C257.272 72.4447 259.183 71.9031 260.907 70.8197C262.642 69.7364 263.897 68.2052 264.678 66.2156C264.746 65.9968 264.782 65.8822 264.782 65.8822C264.782 65.8406 264.782 65.8093 264.782 65.7781C264.959 65.4031 265.137 64.9343 265.303 64.3614C265.47 63.7937 265.621 63.1895 265.762 62.5489C265.913 61.8979 266.022 61.2729 266.095 60.6739C266.178 60.0645 266.23 59.5385 266.262 59.0906C266.48 56.5906 266.428 54.2364 266.095 52.0281C266.022 51.476 265.949 51.0437 265.866 50.7364C265.793 50.4187 265.746 50.226 265.72 50.1531C265.72 50.1114 265.663 49.9343 265.553 49.6114C265.512 49.4187 265.47 49.2781 265.428 49.1947C265.397 49.101 265.366 49.0177 265.324 48.9447C265.324 48.9447 265.288 48.7989 265.22 48.5072C265.038 47.9968 264.782 47.4447 264.449 46.8614C264.116 46.2677 263.73 45.6739 263.303 45.0906C262.887 44.4968 262.428 43.9552 261.928 43.4656C261.439 42.9656 260.954 42.5645 260.47 42.2572C260.397 42.2312 260.35 42.1895 260.324 42.1322C260.308 42.0802 260.209 42.0177 260.032 41.9447C259.876 41.8614 259.751 41.8093 259.657 41.7781C259.574 41.7364 259.517 41.6947 259.491 41.6531C259.116 41.476 258.699 41.2989 258.241 41.1322C257.782 40.9656 257.262 40.851 256.678 40.7781Z" fill="#040053"/>
<path d="M282.595 53.8614L282.637 53.6948H292.97C299.803 53.6948 303.241 53.7104 303.282 53.7364V58.3823L303.22 58.5489L292.97 58.4864H282.595V53.8614Z" fill="#040053"/>
<path d="M325.879 76.6948V40.2781H320.15L314.359 40.2156V36.2989C314.359 36.2729 318.952 36.2573 328.15 36.2573H341.838V40.2781H330.359V76.7364L329.192 76.6948H325.879Z" fill="#040053"/>
<path d="M354.342 36.2989C354.493 36.2729 358.097 36.2573 365.155 36.2573C368.655 36.2885 371.41 36.2989 373.425 36.2989C375.451 36.2989 376.78 36.2989 377.405 36.2989H378.009V40.4448H358.488V53.7364H376.467V57.9864H358.488L358.425 58.4864C358.425 58.6687 358.425 59.3562 358.425 60.5489C358.425 61.7468 358.446 63.4656 358.488 65.7156V72.5073H378.071V74.5489C378.071 75.976 378.05 76.7052 378.009 76.7364H365.821C357.946 76.7364 354.009 76.7208 354.009 76.6948C353.977 76.6531 353.967 70.6218 353.967 58.5906V36.2989H354.342Z" fill="#040053"/>
<path d="M402.443 35.8614C402.553 35.8354 402.761 35.8198 403.068 35.8198C403.386 35.8198 403.782 35.8198 404.256 35.8198C404.74 35.8198 405.136 35.8198 405.443 35.8198C405.761 35.8198 405.99 35.8354 406.131 35.8614C407.381 36.0177 408.428 36.2937 409.276 36.6948C409.318 36.6948 409.365 36.7104 409.422 36.7364C409.474 36.7521 409.594 36.7937 409.776 36.8614C409.818 36.9031 409.901 36.9604 410.026 37.0281C410.151 37.101 410.256 37.1531 410.339 37.1948C410.448 37.2364 410.594 37.3093 410.776 37.4031C410.954 37.4864 411.157 37.5854 411.381 37.6948C411.823 38.0281 412.058 38.2104 412.089 38.2364C412.172 38.3093 412.266 38.3614 412.381 38.4031C412.448 38.476 412.516 38.5489 412.589 38.6323C412.672 38.7052 412.782 38.7937 412.922 38.9031L413.318 39.1739C413.495 39.3302 413.573 39.4343 413.547 39.4864C413.532 39.5437 413.547 39.5698 413.589 39.5698C413.589 39.5281 413.698 39.6271 413.922 39.8614C414.141 40.101 414.308 40.2729 414.422 40.3823C414.49 40.5802 414.558 40.6739 414.631 40.6739C414.74 40.7885 414.829 40.9135 414.901 41.0489C414.901 41.0489 414.954 41.1427 415.068 41.3198C415.219 41.476 415.391 41.726 415.589 42.0698C415.797 42.4187 415.933 42.7052 416.006 42.9239C416.308 43.4135 416.62 44.2937 416.943 45.5698C417.318 46.8614 417.448 47.5646 417.339 47.6739H414.422V47.6114C414.422 47.5854 414.401 47.5489 414.36 47.5073C414.318 47.0646 414.183 46.6062 413.964 46.1323C413.756 45.6479 413.495 45.1687 413.193 44.6948C412.901 44.226 412.579 43.7781 412.235 43.3614C411.886 42.9343 411.568 42.5854 411.276 42.3198C410.943 41.9864 410.678 41.7521 410.485 41.6114C410.303 41.4604 410.178 41.3614 410.11 41.3198C409.86 41.1114 409.693 41.0073 409.61 41.0073C409.537 41.0073 409.506 40.9864 409.506 40.9448C409.506 40.9031 409.485 40.9031 409.443 40.9448C409.443 40.9031 409.219 40.7885 408.776 40.5906C408.344 40.3823 408.037 40.2468 407.86 40.1739C407.526 40.0229 407.339 39.9448 407.297 39.9448C406.381 39.6114 405.24 39.5229 403.881 39.6739C402.99 39.7885 402.454 39.8979 402.276 40.0073C402.235 40.0489 402.157 40.0698 402.047 40.0698C401.974 40.1427 401.87 40.1739 401.735 40.1739C401.511 40.2885 401.344 40.3562 401.235 40.3823C400.901 40.5385 400.631 40.6843 400.422 40.8198C400.224 40.9448 400.094 41.0437 400.026 41.1114C400.026 41.1114 399.969 41.1479 399.86 41.2156C399.151 41.7052 398.391 42.476 397.589 43.5281C397.474 43.726 397.401 43.8302 397.36 43.8406C397.329 43.8562 397.318 43.8823 397.318 43.9239C397.318 43.9239 397.224 44.1062 397.047 44.4656C396.672 45.0229 396.37 45.5906 396.151 46.1739C395.704 47.1739 395.37 48.2104 395.151 49.2781C394.943 50.351 394.74 51.4135 394.547 52.4656C394.474 53.3146 394.422 54.2104 394.381 55.1531C394.349 56.0854 394.37 57.0646 394.443 58.0906C394.553 59.9396 394.756 61.3979 395.047 62.4656C395.047 62.6479 395.068 62.7937 395.11 62.9031C395.11 62.976 395.141 63.0854 395.214 63.2364C395.282 63.3771 395.318 63.4656 395.318 63.5073C395.318 63.5489 395.318 63.5698 395.318 63.5698C395.318 63.7104 395.412 64.0229 395.61 64.5073C395.678 64.7312 395.714 64.8562 395.714 64.8823C395.756 64.9239 395.776 64.9604 395.776 64.9864C395.735 65.0281 395.803 65.2156 395.985 65.5489C395.985 65.5489 396.016 65.6948 396.089 65.9864C396.391 66.7937 396.803 67.5646 397.318 68.2989C397.829 69.0385 398.412 69.7052 399.068 70.2989C399.735 70.8823 400.464 71.3718 401.256 71.7573C402.047 72.1479 402.886 72.3771 403.776 72.4448C403.886 72.4864 404.058 72.5073 404.297 72.5073C404.532 72.5073 404.818 72.5073 405.151 72.5073C406.803 72.4239 408.183 72.1531 409.297 71.6948C410.422 71.2364 411.37 70.6062 412.151 69.7989C412.928 68.9968 413.547 68.0177 414.006 66.8614C414.464 65.6948 414.839 64.3771 415.131 62.9031C415.172 62.7937 415.204 62.6479 415.235 62.4656C415.276 62.2729 415.297 62.1427 415.297 62.0698L415.36 61.8614H418.214L418.172 62.2364C418.172 62.5281 418.141 62.8302 418.089 63.1323C418.032 63.4239 418.006 63.6271 418.006 63.7364C418.006 63.8093 417.99 63.8927 417.964 63.9864C417.948 64.0698 417.922 64.2052 417.881 64.3823C417.881 64.6896 417.844 64.9448 417.776 65.1531C417.745 65.351 417.719 65.4812 417.693 65.5489C417.678 65.6218 417.672 65.6739 417.672 65.7156C417.599 66.0073 417.568 66.1323 417.568 66.0906C417.485 66.4656 417.365 66.8979 417.214 67.3823C417.073 67.8562 416.86 68.4031 416.568 69.0281C416.12 70.1271 415.532 71.1739 414.797 72.1739C414.464 72.5802 414.131 72.9239 413.797 73.2156C413.474 73.5073 413.162 73.7833 412.86 74.0489C412.568 74.2677 412.401 74.4083 412.36 74.4656C412.329 74.5177 412.224 74.5958 412.047 74.6948C411.865 74.8041 411.678 74.9135 411.485 75.0281C411.303 75.1375 411.178 75.2156 411.11 75.2573C410.594 75.5489 410.068 75.8093 409.526 76.0489C408.995 76.2989 408.443 76.4552 407.86 76.5281C407.011 76.7052 406.219 76.825 405.485 76.8823C404.745 76.9343 404.026 76.9291 403.318 76.8614C402.735 76.8198 402.162 76.7052 401.61 76.5281C400.287 76.3041 398.928 75.7156 397.526 74.7573C397.412 74.6427 397.323 74.5906 397.256 74.5906C397.183 74.5177 397.094 74.4448 396.985 74.3614C396.87 74.2885 396.724 74.1635 396.547 73.9864C394.698 72.5177 393.287 70.7052 392.318 68.5489C391.344 66.3979 390.672 64.1843 390.297 61.9031C389.823 59.0437 389.808 55.9396 390.256 52.5906L390.297 52.2989V51.9239C390.381 51.4135 390.448 51.0021 390.506 50.6948C390.558 50.3771 390.599 50.1427 390.631 49.9864C390.672 49.9187 390.693 49.8562 390.693 49.7989C390.693 49.7468 390.714 49.6843 390.756 49.6114C390.782 49.4187 390.829 49.1739 390.901 48.8823C390.985 48.5906 391.058 48.2677 391.131 47.9031C391.308 47.3771 391.454 46.9343 391.568 46.5698C391.678 46.2104 391.776 45.9187 391.86 45.6948C391.928 45.6114 391.974 45.4968 392.006 45.3406C392.047 45.1739 392.099 45.0177 392.172 44.8614C392.474 44.2364 392.782 43.6271 393.089 43.0281C393.407 42.4187 393.766 41.8146 394.172 41.2156C395.24 39.6739 396.464 38.4448 397.839 37.5281C399.214 36.6114 400.745 36.0593 402.443 35.8614Z" fill="#040053"/>
<path d="M431.184 56.4447V36.1531H435.643V53.3614C435.684 53.3927 439.565 53.4031 447.288 53.4031H454.622V36.1531H459.101V56.4447C459.101 70.0177 459.08 76.7989 459.038 76.7989H454.684V67.3197L454.622 57.6531H435.705L435.643 57.7156V76.7989H431.226C431.226 75.3927 431.226 73.7052 431.226 71.7364C431.226 70.002 431.226 67.877 431.226 65.3614C431.226 62.8354 431.21 59.8614 431.184 56.4447Z" fill="#040053"/>
</g>
<defs>
<linearGradient id="paint0_linear_8_180" x1="0.457562" y1="57.3192" x2="113.858" y2="57.3192" gradientUnits="userSpaceOnUse">
<stop/>
<stop offset="0.00390625" stop-color="#000001"/>
<stop offset="0.0078125" stop-color="#000002"/>
<stop offset="0.0117188" stop-color="#010102"/>
<stop offset="0.015625" stop-color="#010103"/>
<stop offset="0.0195312" stop-color="#010104"/>
<stop offset="0.0234375" stop-color="#010105"/>
<stop offset="0.0273438" stop-color="#010106"/>
<stop offset="0.03125" stop-color="#020206"/>
<stop offset="0.0351562" stop-color="#020207"/>
<stop offset="0.0390625" stop-color="#020208"/>
<stop offset="0.0429688" stop-color="#020209"/>
<stop offset="0.046875" stop-color="#02020A"/>
<stop offset="0.0507812" stop-color="#03030A"/>
<stop offset="0.0546875" stop-color="#03030B"/>
<stop offset="0.0585937" stop-color="#03030C"/>
<stop offset="0.0625" stop-color="#03030D"/>
<stop offset="0.0664062" stop-color="#04030E"/>
<stop offset="0.0703125" stop-color="#04040E"/>
<stop offset="0.0742188" stop-color="#04040F"/>
<stop offset="0.078125" stop-color="#040410"/>
<stop offset="0.0820312" stop-color="#040411"/>
<stop offset="0.0859375" stop-color="#050412"/>
<stop offset="0.0898438" stop-color="#050512"/>
<stop offset="0.09375" stop-color="#050513"/>
<stop offset="0.0976562" stop-color="#050514"/>
<stop offset="0.101563" stop-color="#050515"/>
<stop offset="0.105469" stop-color="#060516"/>
<stop offset="0.109375" stop-color="#060616"/>
<stop offset="0.113281" stop-color="#060617"/>
<stop offset="0.117188" stop-color="#060618"/>
<stop offset="0.121094" stop-color="#060619"/>
<stop offset="0.125" stop-color="#07061A"/>
<stop offset="0.128906" stop-color="#07071A"/>
<stop offset="0.132812" stop-color="#07071B"/>
<stop offset="0.136719" stop-color="#07071C"/>
<stop offset="0.140625" stop-color="#07071D"/>
<stop offset="0.144531" stop-color="#08071E"/>
<stop offset="0.148438" stop-color="#08081E"/>
<stop offset="0.152344" stop-color="#08081F"/>
<stop offset="0.15625" stop-color="#080820"/>
<stop offset="0.160156" stop-color="#080821"/>
<stop offset="0.164062" stop-color="#090822"/>
<stop offset="0.167969" stop-color="#090922"/>
<stop offset="0.171875" stop-color="#090923"/>
<stop offset="0.175781" stop-color="#090924"/>
<stop offset="0.179687" stop-color="#0A0925"/>
<stop offset="0.183594" stop-color="#0A0926"/>
<stop offset="0.1875" stop-color="#0A0A26"/>
<stop offset="0.191406" stop-color="#0A0A27"/>
<stop offset="0.195312" stop-color="#0A0A28"/>
<stop offset="0.199219" stop-color="#0B0A29"/>
<stop offset="0.203125" stop-color="#0B0A2A"/>
<stop offset="0.207031" stop-color="#0B0B2A"/>
<stop offset="0.210938" stop-color="#0B0B2B"/>
<stop offset="0.214844" stop-color="#0B0B2C"/>
<stop offset="0.21875" stop-color="#0C0B2D"/>
<stop offset="0.222656" stop-color="#0C0B2E"/>
<stop offset="0.226562" stop-color="#0C0C2E"/>
<stop offset="0.230469" stop-color="#0C0C2F"/>
<stop offset="0.234375" stop-color="#0C0C30"/>
<stop offset="0.238281" stop-color="#0D0C31"/>
<stop offset="0.242188" stop-color="#0D0C32"/>
<stop offset="0.246094" stop-color="#0D0D32"/>
<stop offset="0.25" stop-color="#0D0D33"/>
<stop offset="0.253906" stop-color="#0D0D34"/>
<stop offset="0.257813" stop-color="#0E0D35"/>
<stop offset="0.261719" stop-color="#0E0D36"/>
<stop offset="0.265625" stop-color="#0E0E36"/>
<stop offset="0.269531" stop-color="#0E0E37"/>
<stop offset="0.273438" stop-color="#0F0E38"/>
<stop offset="0.277344" stop-color="#0F0E39"/>
<stop offset="0.28125" stop-color="#0F0E3A"/>
<stop offset="0.285156" stop-color="#0F0F3A"/>
<stop offset="0.289063" stop-color="#0F0F3B"/>
<stop offset="0.292969" stop-color="#100F3C"/>
<stop offset="0.296875" stop-color="#100F3D"/>
<stop offset="0.300781" stop-color="#100F3E"/>
<stop offset="0.304688" stop-color="#10103E"/>
<stop offset="0.308594" stop-color="#10103F"/>
<stop offset="0.3125" stop-color="#111040"/>
<stop offset="0.316406" stop-color="#111041"/>
<stop offset="0.320312" stop-color="#111042"/>
<stop offset="0.324219" stop-color="#111142"/>
<stop offset="0.328125" stop-color="#111143"/>
<stop offset="0.332031" stop-color="#121144"/>
<stop offset="0.335938" stop-color="#121145"/>
<stop offset="0.339844" stop-color="#121146"/>
<stop offset="0.34375" stop-color="#121246"/>
<stop offset="0.347656" stop-color="#121247"/>
<stop offset="0.351563" stop-color="#131248"/>
<stop offset="0.355469" stop-color="#131249"/>
<stop offset="0.359375" stop-color="#13124A"/>
<stop offset="0.363281" stop-color="#13134A"/>
<stop offset="0.367188" stop-color="#13134B"/>
<stop offset="0.371094" stop-color="#14134C"/>
<stop offset="0.375" stop-color="#14134D"/>
<stop offset="0.378906" stop-color="#14134E"/>
<stop offset="0.382813" stop-color="#14144E"/>
<stop offset="0.386719" stop-color="#15144F"/>
<stop offset="0.390625" stop-color="#151450"/>
<stop offset="0.394531" stop-color="#151451"/>
<stop offset="0.398438" stop-color="#151452"/>
<stop offset="0.402344" stop-color="#151552"/>
<stop offset="0.40625" stop-color="#161553"/>
<stop offset="0.410156" stop-color="#161554"/>
<stop offset="0.414063" stop-color="#161555"/>
<stop offset="0.417969" stop-color="#161556"/>
<stop offset="0.421875" stop-color="#161656"/>
<stop offset="0.425781" stop-color="#171657"/>
<stop offset="0.429688" stop-color="#171658"/>
<stop offset="0.433594" stop-color="#171659"/>
<stop offset="0.4375" stop-color="#17165A"/>
<stop offset="0.441406" stop-color="#17175A"/>
<stop offset="0.445313" stop-color="#18175B"/>
<stop offset="0.449219" stop-color="#18175C"/>
<stop offset="0.453125" stop-color="#18175D"/>
<stop offset="0.457031" stop-color="#18175E"/>
<stop offset="0.460938" stop-color="#18185F"/>
<stop offset="0.464844" stop-color="#19185F"/>
<stop offset="0.46875" stop-color="#191860"/>
<stop offset="0.472656" stop-color="#191861"/>
<stop offset="0.476563" stop-color="#191862"/>
<stop offset="0.480469" stop-color="#191963"/>
<stop offset="0.484375" stop-color="#1A1963"/>
<stop offset="0.488281" stop-color="#1A1964"/>
<stop offset="0.492188" stop-color="#1A1965"/>
<stop offset="0.496094" stop-color="#1A1966"/>
<stop offset="0.5" stop-color="#1B1967"/>
<stop offset="0.503906" stop-color="#1B1A67"/>
<stop offset="0.507812" stop-color="#1B1A68"/>
<stop offset="0.511719" stop-color="#1B1A69"/>
<stop offset="0.515625" stop-color="#1B1A6A"/>
<stop offset="0.519531" stop-color="#1C1A6B"/>
<stop offset="0.523438" stop-color="#1C1B6B"/>
<stop offset="0.527344" stop-color="#1C1B6C"/>
<stop offset="0.53125" stop-color="#1C1B6D"/>
<stop offset="0.535156" stop-color="#1C1B6E"/>
<stop offset="0.539063" stop-color="#1D1B6F"/>
<stop offset="0.542969" stop-color="#1D1C6F"/>
<stop offset="0.546875" stop-color="#1D1C70"/>
<stop offset="0.550781" stop-color="#1D1C71"/>
<stop offset="0.554688" stop-color="#1D1C72"/>
<stop offset="0.558594" stop-color="#1E1C73"/>
<stop offset="0.5625" stop-color="#1E1D73"/>
<stop offset="0.566406" stop-color="#1E1D74"/>
<stop offset="0.570312" stop-color="#1E1D75"/>
<stop offset="0.574219" stop-color="#1E1D76"/>
<stop offset="0.578125" stop-color="#1F1D77"/>
<stop offset="0.582031" stop-color="#1F1E77"/>
<stop offset="0.585938" stop-color="#1F1E78"/>
<stop offset="0.589844" stop-color="#1F1E79"/>
<stop offset="0.59375" stop-color="#1F1E7A"/>
<stop offset="0.597656" stop-color="#201E7B"/>
<stop offset="0.601562" stop-color="#201F7B"/>
<stop offset="0.605469" stop-color="#201F7C"/>
<stop offset="0.609375" stop-color="#201F7D"/>
<stop offset="0.613281" stop-color="#211F7E"/>
<stop offset="0.617188" stop-color="#211F7F"/>
<stop offset="0.621094" stop-color="#21207F"/>
<stop offset="0.625" stop-color="#212080"/>
<stop offset="0.628906" stop-color="#212081"/>
<stop offset="0.632812" stop-color="#222082"/>
<stop offset="0.636719" stop-color="#222083"/>
<stop offset="0.640625" stop-color="#222183"/>
<stop offset="0.644531" stop-color="#222184"/>
<stop offset="0.648438" stop-color="#222185"/>
<stop offset="0.652344" stop-color="#232186"/>
<stop offset="0.65625" stop-color="#232187"/>
<stop offset="0.660156" stop-color="#232287"/>
<stop offset="0.664062" stop-color="#232288"/>
<stop offset="0.667969" stop-color="#232289"/>
<stop offset="0.671875" stop-color="#24228A"/>
<stop offset="0.675781" stop-color="#24228B"/>
<stop offset="0.679687" stop-color="#24238B"/>
<stop offset="0.683594" stop-color="#24238C"/>
<stop offset="0.6875" stop-color="#24238D"/>
<stop offset="0.691406" stop-color="#25238E"/>
<stop offset="0.695312" stop-color="#25238F"/>
<stop offset="0.699219" stop-color="#25248F"/>
<stop offset="0.703125" stop-color="#252490"/>
<stop offset="0.707031" stop-color="#252491"/>
<stop offset="0.710938" stop-color="#262492"/>
<stop offset="0.714844" stop-color="#262493"/>
<stop offset="0.71875" stop-color="#262593"/>
<stop offset="0.722656" stop-color="#262594"/>
<stop offset="0.726563" stop-color="#272595"/>
<stop offset="0.730469" stop-color="#272596"/>
<stop offset="0.734375" stop-color="#272597"/>
<stop offset="0.738281" stop-color="#272697"/>
<stop offset="0.742188" stop-color="#272698"/>
<stop offset="0.746094" stop-color="#282699"/>
<stop offset="0.75" stop-color="#28269A"/>
<stop offset="0.753906" stop-color="#28269B"/>
<stop offset="0.757812" stop-color="#28279B"/>
<stop offset="0.761719" stop-color="#28279C"/>
<stop offset="0.765625" stop-color="#29279D"/>
<stop offset="0.769531" stop-color="#29279E"/>
<stop offset="0.773438" stop-color="#29279F"/>
<stop offset="0.777344" stop-color="#29289F"/>
<stop offset="0.78125" stop-color="#2928A0"/>
<stop offset="0.785156" stop-color="#2A28A1"/>
<stop offset="0.789062" stop-color="#2A28A2"/>
<stop offset="0.792969" stop-color="#2A28A3"/>
<stop offset="0.796875" stop-color="#2A29A3"/>
<stop offset="0.800781" stop-color="#2A29A4"/>
<stop offset="0.804688" stop-color="#2B29A5"/>
<stop offset="0.808594" stop-color="#2B29A6"/>
<stop offset="0.8125" stop-color="#2B29A7"/>
<stop offset="0.816406" stop-color="#2B2AA7"/>
<stop offset="0.820313" stop-color="#2C2AA8"/>
<stop offset="0.824219" stop-color="#2C2AA9"/>
<stop offset="0.828125" stop-color="#2C2AAA"/>
<stop offset="0.832031" stop-color="#2C2AAB"/>
<stop offset="0.835938" stop-color="#2C2BAB"/>
<stop offset="0.839844" stop-color="#2D2BAC"/>
<stop offset="0.84375" stop-color="#2D2BAD"/>
<stop offset="0.847656" stop-color="#2D2BAE"/>
<stop offset="0.851563" stop-color="#2D2BAF"/>
<stop offset="0.855469" stop-color="#2D2CAF"/>
<stop offset="0.859375" stop-color="#2E2CB0"/>
<stop offset="0.863281" stop-color="#2E2CB1"/>
<stop offset="0.867188" stop-color="#2E2CB2"/>
<stop offset="0.871094" stop-color="#2E2CB3"/>
<stop offset="0.875" stop-color="#2E2DB3"/>
<stop offset="0.878906" stop-color="#2F2DB4"/>
<stop offset="0.882813" stop-color="#2F2DB5"/>
<stop offset="0.886719" stop-color="#2F2DB6"/>
<stop offset="0.890625" stop-color="#2F2DB7"/>
<stop offset="0.894531" stop-color="#2F2EB7"/>
<stop offset="0.898438" stop-color="#302EB8"/>
<stop offset="0.902344" stop-color="#302EB9"/>
<stop offset="0.90625" stop-color="#302EBA"/>
<stop offset="0.910156" stop-color="#302EBB"/>
<stop offset="0.914063" stop-color="#302FBB"/>
<stop offset="0.917969" stop-color="#312FBC"/>
<stop offset="0.921875" stop-color="#312FBD"/>
<stop offset="0.925781" stop-color="#312FBE"/>
<stop offset="0.929688" stop-color="#312FBF"/>
<stop offset="0.933594" stop-color="#3230BF"/>
<stop offset="0.9375" stop-color="#3230C0"/>
<stop offset="0.941406" stop-color="#3230C1"/>
<stop offset="0.945313" stop-color="#3230C2"/>
<stop offset="0.949219" stop-color="#3230C3"/>
<stop offset="0.953125" stop-color="#3331C3"/>
<stop offset="0.957031" stop-color="#3331C4"/>
<stop offset="0.960938" stop-color="#3331C5"/>
<stop offset="0.964844" stop-color="#3331C6"/>
<stop offset="0.96875" stop-color="#3331C7"/>
<stop offset="0.972656" stop-color="#3432C7"/>
<stop offset="0.976562" stop-color="#3432C8"/>
<stop offset="0.980469" stop-color="#3432C9"/>
<stop offset="0.984375" stop-color="#3432CA"/>
<stop offset="0.988281" stop-color="#3432CB"/>
<stop offset="0.992188" stop-color="#3533CB"/>
<stop offset="0.996094" stop-color="#3533CC"/>
<stop offset="1" stop-color="#3533CD"/>
</linearGradient>
<clipPath id="clip0_8_180">
<rect width="460" height="115" fill="white"/>
</clipPath>
</defs>
</svg>
