<svg width="205" height="35" viewBox="0 0 205 35" fill="none" xmlns="http://www.w3.org/2000/svg">
<path d="M56.0138 17.5345C55.9954 11.3295 55.9954 8.22017 56.0138 8.20641C56.0138 8.18921 56.3435 8.17889 57.0045 8.17889C57.6638 8.17889 58.0019 8.18921 58.0153 8.20641C58.032 8.20641 58.042 10.9959 58.042 16.5714V24.9571H66.7976V26.8901H56.0406C56.0222 26.8763 56.0138 23.7584 56.0138 17.5345Z" fill="#EACD2C"/>
<path d="M72.4129 8.227C72.4799 8.21324 74.0964 8.20636 77.266 8.20636C78.8323 8.22012 80.0673 8.227 80.9744 8.227C81.8797 8.227 82.4738 8.227 82.7549 8.227H83.0294V10.1394H74.2671V16.2618H82.3332V18.2224H74.2671L74.247 18.4494C74.247 18.5371 74.247 18.8552 74.247 19.4056C74.247 19.9559 74.2537 20.747 74.2671 21.7789V24.9089H83.0494V25.8513C83.0494 26.5117 83.0427 26.8505 83.0294 26.8694H77.5605C74.0295 26.8694 72.2657 26.8591 72.2657 26.8419C72.2473 26.823 72.2389 24.0455 72.2389 18.5044V8.227H72.4129Z" fill="#EACD2C"/>
<path d="M95.2244 8.07568C95.7331 8.11352 96.0695 8.15651 96.2352 8.20639C96.2352 8.20639 96.277 8.20639 96.3624 8.20639C96.3925 8.22015 96.4293 8.23218 96.4695 8.24078C96.513 8.2511 96.5665 8.27174 96.6301 8.30269C96.8125 8.35773 96.9129 8.38524 96.9313 8.38524C96.9799 8.41792 97.005 8.43856 97.005 8.44716C97.005 8.45747 97.02 8.46091 97.0518 8.46091C97.087 8.46091 97.169 8.49531 97.2995 8.5641C97.4334 8.62945 97.574 8.69996 97.7212 8.77735C97.8685 8.8513 98.0107 8.92697 98.1496 9.00436C98.2919 9.08347 98.3789 9.13851 98.4107 9.16946C98.4776 9.22106 98.5211 9.25889 98.5446 9.28641C98.5713 9.31048 98.5931 9.33112 98.6115 9.34832C98.7939 9.4859 98.9947 9.66476 99.2139 9.88489C99.4365 10.105 99.6055 10.2908 99.7227 10.4421C99.7394 10.4748 99.7645 10.5092 99.7963 10.5453C99.9118 10.6657 100.024 10.8308 100.131 11.0406C100.238 11.2521 100.335 11.4808 100.426 11.7285C100.519 11.9727 100.59 12.2083 100.64 12.437C100.688 12.6675 100.722 12.867 100.74 13.0355C100.77 13.1559 100.77 13.2402 100.74 13.2901C100.74 13.3227 100.74 13.3571 100.74 13.3932C100.69 13.3932 100.633 13.3932 100.566 13.3932C100.516 13.3932 100.454 13.3932 100.379 13.3932C100.307 13.3932 100.213 13.4001 100.098 13.4139C99.6825 13.4655 99.4583 13.4741 99.4281 13.4414C99.3612 12.8825 99.137 12.3786 98.7588 11.928C98.3789 11.4791 97.9655 11.1094 97.5204 10.8205C97.4217 10.7379 97.348 10.688 97.2995 10.6691C97.2677 10.6382 97.2426 10.6124 97.2259 10.5934C97.2075 10.5934 97.1673 10.578 97.1054 10.5453C96.8728 10.4077 96.6251 10.3097 96.3624 10.2495C96.098 10.191 95.8168 10.136 95.5189 10.0844C95.3349 10.0534 95.1608 10.0362 94.9968 10.0362C94.8312 10.0362 94.6755 10.0431 94.5283 10.0569C94.3442 10.0569 94.2371 10.0758 94.207 10.1119C94.1752 10.1119 94.0932 10.1171 93.9593 10.1257C93.8288 10.136 93.7468 10.1566 93.7116 10.1876L93.6648 10.2151C93.6648 10.2151 93.6313 10.2323 93.5643 10.2632C93.3669 10.3148 93.1828 10.3871 93.0088 10.4834C92.8347 10.5762 92.664 10.6811 92.5 10.7998C92.4682 10.8136 92.4063 10.8686 92.3126 10.9649C92.2222 11.0578 92.1285 11.1541 92.0315 11.2538C91.9327 11.3553 91.8457 11.4499 91.7704 11.5359C91.6934 11.6184 91.6566 11.6786 91.6566 11.7147C91.6248 11.7474 91.593 11.8076 91.5629 11.8936C91.5261 11.9263 91.5043 11.9417 91.4959 11.9417C91.4909 11.9417 91.4792 11.9521 91.4625 11.9693C91.4625 11.983 91.4524 12.0088 91.4357 12.0449L91.3353 12.2444C91.2048 12.4835 91.1027 12.6967 91.0274 12.8842C90.9554 13.0682 90.8935 13.2453 90.84 13.4139C90.8082 13.5343 90.7747 13.6065 90.7395 13.634C90.7077 13.6581 90.7011 13.7131 90.7195 13.7991C90.6693 13.9504 90.6458 14.0261 90.6458 14.0261C90.6458 14.045 90.6358 14.0605 90.6191 14.0743C90.5521 14.2445 90.5019 14.4371 90.4718 14.6521C90.44 14.8637 90.4065 15.0958 90.3714 15.3469C90.3212 15.7562 90.2844 16.1724 90.2576 16.5989C90.2342 17.022 90.2392 17.4622 90.271 17.9197C90.2877 18.36 90.3128 18.7504 90.3446 19.0891C90.3798 19.4245 90.4132 19.7461 90.445 20.0522C90.4617 20.1726 90.4751 20.2569 90.4852 20.3068C90.4935 20.3583 90.4986 20.3996 90.4986 20.4306C90.512 20.4495 90.5186 20.477 90.5186 20.5131C90.5354 20.5269 90.5454 20.5682 90.5454 20.6369C90.5755 20.7745 90.6006 20.8433 90.6191 20.8433C90.6191 20.8261 90.6358 20.8829 90.6726 21.0153V21.0978L90.6927 21.1942C90.7094 21.2458 90.7345 21.33 90.7663 21.4487C90.8015 21.5691 90.84 21.6929 90.8801 21.8202C90.9203 21.9491 90.9604 22.0592 91.0006 22.1504C91.0441 22.2432 91.0742 22.2879 91.0876 22.2879V22.343L91.1412 22.3911V22.4393L91.1613 22.4943C91.178 22.5132 91.2048 22.5803 91.2416 22.6938C91.5846 23.4608 92.0867 24.0627 92.7477 24.503C93.407 24.9433 94.1501 25.1806 94.9767 25.2116C95.7967 25.2477 96.4393 25.1049 96.9046 24.7782C97.3146 24.5271 97.676 24.1694 97.989 23.705C98.3053 23.2373 98.5713 22.7248 98.7855 22.1641C98.9997 21.6052 99.1604 21.0342 99.2675 20.4512C99.3746 19.8648 99.4281 19.3334 99.4281 18.8553V18.7039H94.9767V16.6471H101.135V16.7709C101.117 16.7021 101.112 16.7674 101.122 16.9635C101.13 17.1561 101.135 17.3556 101.135 17.562V18.2705C101.135 18.3393 101.143 18.4184 101.162 18.5044C101.125 18.826 101.095 19.1442 101.068 19.4606C101.045 19.7736 101.01 20.0901 100.961 20.4099C100.943 20.5114 100.929 20.5871 100.921 20.6369C100.916 20.6885 100.914 20.7229 100.914 20.7401C100.877 20.8416 100.847 20.9723 100.82 21.1322C100.797 21.2939 100.762 21.4762 100.713 21.6826C100.713 21.7152 100.708 21.741 100.7 21.7582C100.69 21.772 100.68 21.7978 100.667 21.8339C100.616 22.1366 100.516 22.4874 100.365 22.8864C100.218 23.2854 100.041 23.681 99.8365 24.0696C99.6306 24.46 99.4081 24.8246 99.1671 25.1634C98.9295 25.5022 98.6952 25.7636 98.4642 25.9476C98.3973 25.9837 98.3638 26.0027 98.3638 26.0027C98.2835 26.0852 98.2433 26.1265 98.2433 26.1265C98.2249 26.1265 98.2065 26.1351 98.1898 26.154C98.1898 26.185 98.0777 26.2606 97.8551 26.381C97.6309 26.4997 97.4468 26.5839 97.2995 26.6355C97.1522 26.7043 96.9949 26.7542 96.8309 26.7869C96.6653 26.823 96.4845 26.866 96.2887 26.9176C96.0377 26.9485 95.7599 26.9692 95.452 26.9795C95.1474 26.9881 94.8445 26.9795 94.5416 26.952C94.2371 26.9279 93.9325 26.8866 93.6246 26.8282C93.32 26.768 93.0439 26.6974 92.7946 26.6149C92.5301 26.5272 92.2825 26.4326 92.0515 26.3329C91.8239 26.2314 91.6181 26.1127 91.4357 25.9751C91.4039 25.9425 91.3654 25.9081 91.3219 25.872C91.2817 25.8393 91.255 25.8238 91.2416 25.8238C90.5454 25.2632 89.9915 24.6131 89.5815 23.8701C89.1698 23.1237 88.8987 22.3086 88.7649 21.428L88.6912 21.0428C88.641 20.8227 88.6042 20.5957 88.5774 20.3618C88.554 20.1245 88.5256 19.8665 88.4904 19.5913C88.4904 19.5604 88.4804 19.4847 88.4636 19.3643C88.4503 19.2456 88.4436 19.1442 88.4436 19.0616C88.3448 18.0624 88.3448 16.9841 88.4436 15.8284C88.4603 15.696 88.477 15.5636 88.4904 15.4295C88.5071 15.2919 88.5323 15.1474 88.564 14.9961C88.631 14.4182 88.7515 13.8197 88.9255 13.2006C89.0996 12.5815 89.3338 11.9882 89.6284 11.4189C89.9262 10.8514 90.281 10.3355 90.6927 9.87113C91.1077 9.40335 91.5779 9.03532 92.1051 8.7636C92.649 8.47467 93.1594 8.28894 93.638 8.20639C94.1149 8.1204 94.6437 8.07568 95.2244 8.07568Z" fill="#EACD2C"/>
<path d="M112.786 8.15131C112.867 8.13756 112.984 8.13068 113.141 8.13068C113.297 8.13068 113.491 8.13068 113.723 8.13068C113.954 8.14443 114.145 8.15131 114.292 8.15131C114.44 8.15131 114.54 8.16163 114.594 8.17883C114.722 8.21151 114.841 8.23214 114.948 8.24074C115.055 8.25106 115.151 8.2717 115.236 8.30265C115.579 8.40928 115.892 8.52795 116.173 8.66037H116.22C116.237 8.67929 116.247 8.68788 116.247 8.68788C116.264 8.7068 116.274 8.7154 116.274 8.7154C116.274 8.67929 116.314 8.68616 116.394 8.73604C116.478 8.78763 116.536 8.83063 116.568 8.86674L116.943 9.06624C116.992 9.11783 117.023 9.14191 117.037 9.14191C117.054 9.14191 117.097 9.16942 117.164 9.22446C117.181 9.23821 117.239 9.27949 117.338 9.34828C117.418 9.41707 117.52 9.51166 117.646 9.63032C117.77 9.75071 117.897 9.87797 118.028 10.0156C118.161 10.1497 118.282 10.2752 118.389 10.3939C118.496 10.5091 118.558 10.6003 118.576 10.6691C118.59 10.7207 118.613 10.7447 118.65 10.7447C118.65 10.7447 118.657 10.7551 118.67 10.7723C118.687 10.8049 118.712 10.8393 118.744 10.8754V10.9236H118.771L118.797 10.9786V10.9993C118.814 11.0182 118.839 11.0474 118.871 11.0887C118.901 11.13 118.941 11.1953 118.991 11.2813C119.107 11.4516 119.166 11.5462 119.166 11.5634C119.166 11.5771 119.174 11.5943 119.192 11.6115C119.222 11.6304 119.248 11.6803 119.266 11.7628C119.515 12.2409 119.696 12.6898 119.808 13.1112C119.825 13.1627 119.835 13.204 119.835 13.235C119.883 13.3554 119.932 13.5239 119.982 13.744C119.999 13.7819 120.009 13.7991 120.009 13.7991C120.076 14.0192 120.149 14.4096 120.23 14.9685C120.247 15.0012 120.257 15.0476 120.257 15.1061C120.257 15.1663 120.265 15.2299 120.283 15.2987C120.332 15.653 120.347 15.8886 120.33 16.0073C120.33 16.0589 120.339 16.1105 120.357 16.1655C120.37 16.3168 120.38 16.5163 120.39 16.764C120.399 17.0082 120.404 17.3074 120.404 17.6651C120.404 18.0194 120.399 18.3238 120.39 18.5801C120.38 18.8329 120.37 19.053 120.357 19.2404C120.357 19.2731 120.352 19.3075 120.344 19.3436C120.334 19.3763 120.33 19.409 120.33 19.4399C120.33 19.4778 120.33 19.5019 120.33 19.5156C120.33 19.636 120.325 19.7392 120.317 19.8252C120.307 19.9077 120.303 19.9748 120.303 20.0247C120.29 20.0935 120.283 20.1537 120.283 20.2035C120.283 20.2551 120.273 20.305 120.257 20.3549C120.206 20.7453 120.136 21.1494 120.042 21.5656C119.952 21.9783 119.818 22.3636 119.641 22.7213V22.7488C119.641 22.7626 119.631 22.7798 119.614 22.797C119.614 22.8348 119.589 22.9036 119.54 23.0033L119.393 23.306C119.356 23.3748 119.34 23.4092 119.34 23.4092L119.266 23.533C119.266 23.533 119.249 23.5674 119.219 23.6362C119.201 23.6878 119.162 23.76 119.105 23.8563C119.047 23.9492 118.985 24.0455 118.918 24.1453C118.854 24.2467 118.794 24.3362 118.737 24.4135C118.679 24.4927 118.64 24.5374 118.623 24.5511L118.597 24.5786V24.6062C118.597 24.6199 118.59 24.6371 118.576 24.6543C118.558 24.687 118.499 24.7575 118.402 24.8676C118.304 24.9776 118.197 25.0877 118.081 25.1978C117.964 25.3078 117.86 25.4076 117.766 25.5004C117.676 25.5968 117.623 25.6449 117.606 25.6449H117.586C117.549 25.681 117.515 25.7068 117.485 25.7206C117.454 25.7567 117.408 25.7911 117.351 25.8238C117.293 25.8547 117.231 25.896 117.164 25.9476C116.851 26.1712 116.521 26.3552 116.173 26.4979C115.825 26.6389 115.46 26.7542 115.082 26.8419C114.622 26.9244 114.194 26.9743 113.797 26.9932C113.404 27.0104 113.034 26.9949 112.686 26.9451C112.601 26.9261 112.525 26.9175 112.458 26.9175C112.395 26.9175 112.348 26.9072 112.318 26.89C112.184 26.8763 112.098 26.8642 112.063 26.8556C112.032 26.8453 111.991 26.8419 111.943 26.8419C111.844 26.804 111.762 26.78 111.695 26.7662C111.663 26.7662 111.61 26.7524 111.535 26.7249C111.458 26.7008 111.404 26.6802 111.374 26.663C111.141 26.6114 110.961 26.5529 110.832 26.4842C110.251 26.264 109.689 25.8994 109.145 25.3904C108.599 24.8813 108.171 24.3723 107.86 23.8632C107.565 23.3593 107.326 22.7884 107.143 22.1503C106.959 21.514 106.829 20.7882 106.748 19.9765V19.8733L106.702 19.5913V19.495C106.702 19.3075 106.697 19.0925 106.688 18.8483C106.678 18.6007 106.675 18.3083 106.675 17.9678C106.675 17.629 106.675 17.3384 106.675 17.0942C106.675 16.8465 106.683 16.6384 106.702 16.4682C106.702 16.3994 106.708 16.3203 106.722 16.2274C106.738 16.1311 106.757 16.0073 106.775 15.8559C106.824 15.3985 106.872 15.0167 106.922 14.714C106.936 14.6779 106.943 14.6039 106.943 14.4939C106.943 14.3838 106.959 14.3133 106.996 14.2806C107.076 13.7716 107.207 13.2625 107.391 12.7534C107.573 12.2444 107.801 11.7628 108.074 11.3088C108.345 10.8514 108.658 10.4266 109.011 10.0362C109.367 9.64752 109.767 9.31732 110.209 9.0456C110.258 9.00948 110.298 8.98369 110.33 8.96993C110.365 8.95273 110.4 8.93381 110.437 8.9149C110.601 8.78247 110.815 8.67241 111.079 8.5847C111.093 8.5675 111.19 8.5331 111.374 8.48151C111.538 8.43164 111.63 8.39896 111.648 8.3852C111.893 8.2803 112.273 8.20291 112.786 8.15131ZM114.219 10.2907C113.938 10.2408 113.59 10.2288 113.175 10.2563C112.763 10.2804 112.426 10.3578 112.164 10.4902C112.065 10.528 112.025 10.5452 112.043 10.5452C112.006 10.5452 111.983 10.5521 111.97 10.5659C111.933 10.5848 111.899 10.5986 111.869 10.6072C111.837 10.6175 111.797 10.6381 111.749 10.6691C111.663 10.7069 111.571 10.7551 111.474 10.8135C111.376 10.8686 111.284 10.9305 111.2 10.9993C111.101 11.0509 111.006 11.1197 110.912 11.2056C110.822 11.2882 110.738 11.3742 110.658 11.4602C110.626 11.4602 110.592 11.4808 110.557 11.5221C110.525 11.5634 110.5 11.584 110.484 11.584L110.263 11.8179C110.164 11.9692 110.057 12.1051 109.941 12.2237C109.905 12.2753 109.883 12.2994 109.874 12.2994C109.869 12.2994 109.868 12.3046 109.868 12.3132C109.868 12.3183 109.854 12.3441 109.828 12.3888C109.804 12.4301 109.761 12.5024 109.694 12.6021C109.595 12.7397 109.533 12.8291 109.506 12.8704C109.48 12.9117 109.461 12.9375 109.453 12.9461C109.448 12.9564 109.446 12.965 109.446 12.9736C109.446 12.9839 109.428 13.0286 109.393 13.1112C109.361 13.1799 109.327 13.2539 109.292 13.3313C109.26 13.4052 109.212 13.4929 109.145 13.5927C109.095 13.7303 109.051 13.8541 109.011 13.9642C108.971 14.0742 108.951 14.1396 108.951 14.1568C108.914 14.2909 108.88 14.4079 108.85 14.5076C108.783 14.6452 108.733 14.8086 108.703 14.996C108.671 15.18 108.638 15.3813 108.603 15.6014C108.584 15.653 108.571 15.6908 108.562 15.7183C108.557 15.7424 108.556 15.7975 108.556 15.8834C108.537 15.9161 108.529 15.9557 108.529 16.0004C108.529 16.0417 108.519 16.0795 108.502 16.1105C108.489 16.1792 108.482 16.5954 108.482 17.3556C108.482 18.1037 108.489 18.5027 108.502 18.5525C108.519 18.5852 108.529 18.6248 108.529 18.6695C108.529 18.7108 108.537 18.7658 108.556 18.8346C108.556 18.9171 108.579 19.0874 108.629 19.3436C108.629 19.3763 108.644 19.4675 108.676 19.6188C108.711 19.7701 108.745 19.9318 108.777 20.1003C108.807 20.2706 108.839 20.4237 108.87 20.5612C108.906 20.6988 108.932 20.7745 108.951 20.7882C108.967 20.8261 109.001 20.9241 109.051 21.0841C109.1 21.2457 109.14 21.3661 109.172 21.4486C109.188 21.4865 109.205 21.5209 109.218 21.5518C109.235 21.5845 109.262 21.6344 109.299 21.7032C109.379 21.9611 109.481 22.2088 109.607 22.4461C109.731 22.68 109.883 22.9001 110.062 23.1065C110.196 23.2905 110.303 23.4075 110.383 23.4573C110.432 23.5089 110.457 23.5519 110.457 23.588L110.484 23.6087C110.484 23.5777 110.525 23.6052 110.611 23.6912C110.74 23.8065 110.862 23.9165 110.979 24.0214C111.094 24.1229 111.21 24.2072 111.327 24.276L111.501 24.3723C111.598 24.4789 111.732 24.5649 111.903 24.6337C112.077 24.699 112.261 24.7489 112.458 24.785C112.659 24.8177 112.857 24.8435 113.054 24.8607C113.255 24.8744 113.419 24.8813 113.549 24.8813C114.49 24.8813 115.347 24.632 116.12 24.1315C116.896 23.6328 117.459 22.9259 117.807 22.0127C117.837 21.9078 117.854 21.8545 117.854 21.8545C117.854 21.8408 117.854 21.8253 117.854 21.8064C117.937 21.6378 118.016 21.4211 118.088 21.1597C118.163 20.8983 118.235 20.6197 118.302 20.3205C118.369 20.0229 118.417 19.734 118.449 19.4537C118.484 19.1751 118.51 18.9343 118.523 18.7314C118.62 17.5757 118.597 16.4922 118.449 15.4776C118.417 15.2213 118.384 15.0218 118.349 14.8791C118.317 14.7329 118.292 14.6435 118.275 14.6108C118.275 14.5936 118.25 14.5076 118.202 14.3563C118.183 14.2737 118.165 14.2118 118.148 14.1705C118.135 14.1258 118.118 14.0863 118.101 14.0536C118.101 14.0536 118.084 13.9848 118.054 13.8472C117.974 13.6099 117.857 13.3554 117.706 13.0836C117.559 12.8136 117.388 12.5436 117.198 12.2719C117.01 12.0019 116.804 11.7525 116.582 11.5221C116.357 11.2933 116.14 11.1128 115.926 10.9786C115.894 10.9614 115.874 10.9408 115.865 10.9167C115.855 10.8892 115.812 10.8582 115.732 10.8204C115.665 10.7895 115.608 10.7654 115.564 10.7516C115.524 10.7344 115.497 10.7155 115.484 10.6966C115.318 10.6106 115.131 10.5298 114.922 10.4558C114.716 10.3784 114.481 10.3234 114.219 10.2907Z" fill="#EACD2C"/>
<path d="M125.842 16.3169L125.869 16.2412H130.494C133.563 16.2412 135.106 16.2481 135.12 16.2618V18.4013L135.099 18.4769L130.494 18.4494H125.842V16.3169Z" fill="#EACD2C"/>
<path d="M145.261 26.8419V10.0568H142.69L140.093 10.0362V8.227C140.093 8.21324 142.155 8.20636 146.278 8.20636H152.416V10.0568H147.269V26.8694L146.747 26.8419H145.261Z" fill="#EACD2C"/>
<path d="M158.026 8.227C158.093 8.21324 159.709 8.20636 162.879 8.20636C164.445 8.22012 165.68 8.227 166.587 8.227C167.492 8.227 168.086 8.227 168.368 8.227H168.642V10.1394H159.88V16.2618H167.946V18.2224H159.88L159.86 18.4494C159.86 18.5371 159.86 18.8552 159.86 19.4056C159.86 19.9559 159.866 20.747 159.88 21.7789V24.9089H168.662V25.8513C168.662 26.5117 168.655 26.8505 168.642 26.8694H163.173C159.642 26.8694 157.878 26.8591 157.878 26.8419C157.86 26.823 157.852 24.0455 157.852 18.5044V8.227H158.026Z" fill="#EACD2C"/>
<path d="M179.599 8.02752C179.647 8.01032 179.741 8 179.88 8C180.022 8 180.201 8 180.415 8C180.63 8 180.805 8 180.944 8C181.086 8 181.189 8.01032 181.252 8.02752C181.814 8.09631 182.285 8.22357 182.665 8.40587C182.681 8.40587 182.701 8.41103 182.725 8.41963C182.752 8.42994 182.805 8.45058 182.885 8.48154C182.902 8.50046 182.941 8.52797 182.999 8.56409C183.056 8.59676 183.101 8.62256 183.133 8.63976C183.182 8.65352 183.247 8.68447 183.327 8.72919C183.411 8.77046 183.505 8.8169 183.608 8.86677C183.804 9.01811 183.911 9.1041 183.93 9.1213C183.96 9.15397 184 9.17977 184.05 9.19697C184.085 9.22964 184.119 9.26404 184.151 9.30015C184.181 9.33283 184.231 9.3741 184.298 9.42398L184.472 9.55468C184.552 9.62003 184.587 9.66475 184.579 9.69226C184.574 9.71634 184.579 9.72666 184.592 9.72666C184.592 9.7129 184.641 9.76105 184.74 9.87112C184.842 9.98119 184.917 10.062 184.967 10.1119C184.997 10.1944 185.031 10.2357 185.068 10.2357C185.116 10.2873 185.156 10.3458 185.188 10.4146C185.188 10.4146 185.212 10.4593 185.262 10.5453C185.329 10.6106 185.406 10.7241 185.496 10.8892C185.59 11.0509 185.652 11.1816 185.683 11.2813C185.817 11.5015 185.958 11.9073 186.105 12.4989C186.269 13.0957 186.328 13.419 186.279 13.4689H184.967V13.4414C184.967 13.4242 184.957 13.407 184.94 13.3932C184.922 13.1869 184.863 12.9736 184.766 12.7535C184.668 12.5333 184.552 12.3132 184.418 12.0931C184.288 11.8729 184.146 11.6666 183.99 11.474C183.833 11.2779 183.689 11.1197 183.555 10.9993C183.408 10.848 183.29 10.7379 183.207 10.6691C183.126 10.6003 183.07 10.559 183.039 10.5453C182.922 10.4455 182.847 10.3939 182.812 10.3939C182.78 10.3939 182.765 10.3853 182.765 10.3664C182.765 10.3492 182.755 10.3492 182.738 10.3664C182.738 10.3492 182.639 10.2942 182.444 10.2013C182.246 10.105 182.106 10.0414 182.022 10.0087C181.875 9.93991 181.791 9.90551 181.774 9.90551C181.363 9.75417 180.852 9.7129 180.241 9.78169C179.843 9.83328 179.605 9.88316 179.525 9.93303C179.507 9.95195 179.473 9.96055 179.425 9.96055C179.393 9.99322 179.344 10.0087 179.277 10.0087C179.179 10.0603 179.105 10.0947 179.057 10.1119C178.904 10.1807 178.784 10.246 178.695 10.3045C178.605 10.3647 178.543 10.4111 178.508 10.4421C178.508 10.4421 178.483 10.4593 178.434 10.4902C178.121 10.7104 177.785 11.0681 177.423 11.5634C177.37 11.6459 177.333 11.6924 177.316 11.701C177.303 11.7113 177.296 11.7216 177.296 11.7354C177.296 11.7354 177.256 11.8213 177.176 11.9899C177.01 12.2479 176.876 12.511 176.774 12.781C176.576 13.2402 176.429 13.7148 176.332 14.205C176.233 14.6968 176.141 15.187 176.058 15.6771C176.026 16.0675 176.001 16.4802 175.984 16.9153C175.971 17.347 175.979 17.7993 176.011 18.2705C176.059 19.1201 176.151 19.7891 176.285 20.2792C176.285 20.3669 176.292 20.4357 176.305 20.4856C176.305 20.5183 176.322 20.5681 176.359 20.6369C176.389 20.7057 176.406 20.7504 176.406 20.7676C176.406 20.7814 176.406 20.7883 176.406 20.7883C176.406 20.8571 176.448 21.0015 176.533 21.2217C176.563 21.3231 176.58 21.3833 176.58 21.4005C176.597 21.4194 176.607 21.4349 176.607 21.4487C176.588 21.4676 176.62 21.5519 176.7 21.7032C176.7 21.7032 176.717 21.772 176.754 21.9096C176.883 22.281 177.063 22.637 177.296 22.9758C177.527 23.3164 177.791 23.6208 178.086 23.8908C178.384 24.1625 178.71 24.3861 179.063 24.5649C179.42 24.7438 179.796 24.8504 180.195 24.8813C180.243 24.9003 180.322 24.9089 180.429 24.9089C180.536 24.9089 180.663 24.9089 180.81 24.9089C181.55 24.8779 182.173 24.7558 182.678 24.5443C183.182 24.3293 183.605 24.0352 183.95 23.6637C184.298 23.2923 184.574 22.8417 184.78 22.3086C184.984 21.772 185.155 21.1649 185.289 20.4856C185.305 20.4357 185.322 20.3686 185.335 20.2861C185.352 20.2001 185.362 20.1382 185.362 20.1004L185.389 20.0041H186.674L186.647 20.176C186.647 20.3136 186.634 20.4512 186.607 20.5888C186.584 20.7229 186.574 20.8141 186.574 20.8639C186.574 20.9018 186.569 20.9396 186.56 20.9809C186.55 21.0222 186.54 21.0875 186.527 21.1735C186.527 21.3076 186.508 21.4246 186.473 21.5243C186.46 21.612 186.448 21.674 186.44 21.7101C186.43 21.7428 186.426 21.7651 186.426 21.7789C186.395 21.9165 186.38 21.9766 186.38 21.9577C186.343 22.128 186.293 22.3223 186.226 22.5425C186.162 22.7626 186.065 23.0171 185.931 23.306C185.734 23.8151 185.471 24.3001 185.141 24.7575C184.989 24.9415 184.84 25.1015 184.693 25.2391C184.545 25.3766 184.405 25.5022 184.271 25.6174C184.141 25.7223 184.067 25.786 184.05 25.81C184.032 25.8375 183.983 25.8754 183.903 25.927C183.818 25.9768 183.732 26.0267 183.649 26.0783C183.568 26.1282 183.511 26.1626 183.481 26.1815C183.249 26.3139 183.013 26.436 182.772 26.5461C182.534 26.6562 182.285 26.7284 182.022 26.7662C181.642 26.8488 181.287 26.9004 180.958 26.9244C180.626 26.952 180.305 26.9485 179.994 26.9176C179.729 26.8986 179.473 26.8488 179.224 26.7662C178.63 26.6648 178.021 26.3913 177.396 25.9476C177.346 25.896 177.304 25.8719 177.269 25.8719C177.237 25.8393 177.197 25.8049 177.149 25.7688C177.099 25.7361 177.032 25.6793 176.948 25.5968C176.126 24.9192 175.497 24.0834 175.06 23.0928C174.622 22.0987 174.321 21.0755 174.157 20.0247C173.942 18.7039 173.932 17.273 174.13 15.7321L174.157 15.6014V15.4226C174.187 15.1887 174.214 15.0012 174.237 14.8585C174.264 14.7123 174.286 14.604 174.304 14.5352C174.321 14.5042 174.331 14.4767 174.331 14.4526C174.331 14.4251 174.337 14.3941 174.351 14.3563C174.368 14.2738 174.393 14.1637 174.424 14.0261C174.46 13.8885 174.493 13.7372 174.525 13.5721C174.608 13.3348 174.675 13.1301 174.726 12.9598C174.774 12.7913 174.814 12.6554 174.846 12.554C174.881 12.5179 174.906 12.4628 174.92 12.3889C174.936 12.3115 174.962 12.2375 174.993 12.1687C175.127 11.8798 175.263 11.5961 175.402 11.3157C175.544 11.0371 175.705 10.762 175.884 10.4902C176.366 9.77997 176.915 9.21416 177.53 8.7911C178.15 8.36459 178.839 8.11007 179.599 8.02752Z" fill="#EACD2C"/>
<path d="M192.483 17.507V8.15137H194.491V16.083C194.504 16.1019 196.244 16.1105 199.712 16.1105H202.999V8.15137H205V17.507C205 23.7635 204.993 26.8901 204.98 26.8901H203.025V22.5218L202.999 18.0711H194.511L194.491 18.0917V26.8901H192.509C192.509 26.2469 192.509 25.4678 192.509 24.5512C192.509 23.7532 192.509 22.7746 192.509 21.6138C192.509 20.4547 192.499 19.0857 192.483 17.507Z" fill="#EACD2C"/>
<mask id="mask0_116_281" style="mask-type:luminance" maskUnits="userSpaceOnUse" x="0" y="0" width="35" height="35">
<path d="M0 0H35V35H0V0Z" fill="white"/>
</mask>
<g mask="url(#mask0_116_281)">
<mask id="mask1_116_281" style="mask-type:luminance" maskUnits="userSpaceOnUse" x="0" y="0" width="35" height="35">
<path d="M17.5 0C7.83514 0 0 7.83514 0 17.5C0 27.1649 7.83514 35 17.5 35C27.1649 35 35 27.1649 35 17.5C35 7.83514 27.1649 0 17.5 0Z" fill="white"/>
</mask>
<g mask="url(#mask1_116_281)">
<path d="M0 0V35H35V0H0Z" fill="url(#paint0_linear_116_281)"/>
</g>
</g>
<mask id="mask2_116_281" style="mask-type:luminance" maskUnits="userSpaceOnUse" x="2" y="10" width="31" height="18">
<path d="M2.10583 10.2882H32.5885V27.2691H2.10583V10.2882Z" fill="white"/>
</mask>
<g mask="url(#mask2_116_281)">
<path d="M2.22128 14.1295C2.22128 14.038 2.22727 13.9461 2.21928 13.8553C2.21488 13.8042 2.22927 13.7742 2.27123 13.7538C2.32917 13.7255 2.38871 13.6999 2.44745 13.6723C2.8822 13.4685 3.31655 13.2636 3.7525 13.0618C3.82363 13.0286 3.86519 12.9838 3.88956 12.9071C3.9459 12.7269 4.06019 12.5859 4.21243 12.4748C4.44699 12.3037 4.71431 12.223 4.99842 12.1863C5.15426 12.1659 5.3093 12.1571 5.46514 12.1831C5.54666 12.1963 5.62298 12.1811 5.6981 12.1451C6.14884 11.9305 6.59997 11.7163 7.05311 11.5066C7.13902 11.4666 7.18218 11.4147 7.19256 11.3192C7.21614 11.1082 7.27408 10.9076 7.42353 10.7457C7.56139 10.5967 7.72961 10.4924 7.91902 10.4269C8.48843 10.2303 9.04546 10.2686 9.58211 10.5416C9.80708 10.6558 9.99288 10.8177 10.1064 11.0506C10.1335 11.1054 10.1603 11.1617 10.1683 11.2221C10.1775 11.294 10.2175 11.3367 10.275 11.3739C10.7054 11.6496 11.1229 11.9441 11.5461 12.2302C11.6188 12.2794 11.6943 12.3253 11.7615 12.3817C11.8634 12.4676 11.9816 12.4935 12.1095 12.5043C12.4224 12.5307 12.7157 12.6214 12.9798 12.7932C13.1856 12.9271 13.3502 13.0981 13.4325 13.3363C13.4497 13.387 13.4685 13.4386 13.4669 13.4921C13.4637 13.5792 13.5085 13.6316 13.5748 13.6791C13.9288 13.9321 14.2741 14.1958 14.6065 14.4759C14.7028 14.557 14.7987 14.6385 14.897 14.7169C14.9478 14.7572 14.9602 14.8096 14.957 14.8691C14.9454 15.0669 14.9338 15.2647 14.9214 15.4625C14.911 15.6259 14.8966 15.789 14.8886 15.9528C14.8843 16.0395 14.8918 16.0455 14.979 16.0323C15.1 16.0143 15.2207 16.0019 15.3434 16.0039C15.3985 16.0047 15.4477 15.9852 15.4964 15.9624C16.055 15.699 16.6133 15.4345 17.1731 15.174C17.2542 15.136 17.293 15.0841 17.3094 14.9958C17.3557 14.7468 17.494 14.557 17.703 14.4156C17.9263 14.2649 18.1769 14.1934 18.4402 14.1538C18.6736 14.1191 18.9041 14.1355 19.1331 14.1838C19.201 14.1982 19.259 14.1902 19.3201 14.161C19.6098 14.024 19.9003 13.8893 20.19 13.753C20.5728 13.5732 20.9548 13.391 21.3392 13.2136C21.4275 13.1728 21.4847 13.1209 21.5154 13.0226C21.569 12.8508 21.6841 12.7177 21.8299 12.6118C22.0645 12.4408 22.3318 12.3597 22.6155 12.3229C22.7713 12.3029 22.9268 12.2942 23.0826 12.3201C23.1641 12.3333 23.2405 12.3181 23.3156 12.2822C23.7663 12.0676 24.2175 11.8534 24.6706 11.6432C24.7561 11.6037 24.7993 11.5517 24.81 11.4562C24.8336 11.2492 24.8888 11.0522 25.0338 10.8912C25.1669 10.7429 25.3303 10.6375 25.5153 10.5723C26.1291 10.3553 26.7233 10.4041 27.2883 10.7302C27.4761 10.8384 27.6279 10.9879 27.7242 11.1877C27.7506 11.2428 27.7778 11.2988 27.7858 11.3591C27.795 11.431 27.8349 11.4734 27.8925 11.511C28.3948 11.8366 28.8886 12.1751 29.3781 12.5195C29.4864 12.5954 29.5991 12.6306 29.727 12.6414C30.0399 12.6678 30.3332 12.7585 30.5973 12.9303C30.8031 13.0642 30.9677 13.2352 31.0496 13.4733C31.0672 13.5241 31.086 13.5756 31.084 13.6292C31.0808 13.7163 31.1259 13.7686 31.1923 13.8162C31.5459 14.0691 31.8912 14.3329 32.224 14.613C32.3199 14.6941 32.4162 14.7756 32.5145 14.8539C32.5653 14.8943 32.5773 14.9466 32.5741 15.0062C32.5641 15.1928 32.5549 15.379 32.5429 15.5656C32.5329 15.7174 32.5177 15.8693 32.5077 16.0211C32.4814 16.4359 32.4586 16.8503 32.4314 17.2646C32.3978 17.7741 32.3607 18.2832 32.3255 18.7927C32.3175 18.9065 32.3171 19.0208 32.3043 19.1347C32.2951 19.2154 32.2612 19.2662 32.1909 19.3053C31.8037 19.5187 31.418 19.7353 31.0316 19.9503C30.2984 20.3583 29.5656 20.7654 28.8323 21.1726C28.1222 21.5674 27.4126 21.9614 26.7029 22.3562C25.9165 22.7934 25.1305 23.2309 24.3441 23.6681C23.7008 24.0257 23.0574 24.3825 22.4141 24.7397C21.4811 25.2584 20.548 25.7771 19.615 26.2957C19.1155 26.5739 18.6156 26.852 18.1153 27.1289C18.069 27.1549 18.0198 27.1772 17.9707 27.1968C17.8988 27.226 17.8312 27.2072 17.7825 27.1525C17.5092 26.8484 17.1995 26.5819 16.897 26.3089C16.26 25.7339 15.6331 25.1489 15.0393 24.5292C14.7752 24.2538 14.5106 23.9793 14.2373 23.7136C13.6144 23.1074 12.9798 22.5136 12.3393 21.9258C12.1051 21.7113 12.1439 21.7424 12.1303 21.4755C12.1163 21.2014 12.0995 20.9277 12.0831 20.654C12.0783 20.5744 12.0648 20.5652 11.9924 20.6048C11.7447 20.7399 11.4985 20.8769 11.2516 21.014C10.5319 21.4144 9.81227 21.8148 9.09261 22.2147C8.57634 22.5021 8.05927 22.7882 7.5426 23.0755C7.38677 23.1618 7.33242 23.1542 7.19816 23.0307C6.55082 22.4341 5.90189 21.8383 5.25416 21.2417C4.9233 20.9373 4.59404 20.6308 4.26318 20.3259C3.72773 19.8328 3.19108 19.3405 2.65523 18.8478C2.49819 18.7032 2.34315 18.5561 2.18492 18.4131C2.12937 18.3627 2.1058 18.3072 2.11099 18.2316C2.14136 17.7977 2.12618 17.3629 2.14216 16.9286C2.15495 16.5741 2.15015 16.2197 2.16134 15.8653C2.17493 15.4273 2.18811 14.9894 2.20849 14.5514C2.21488 14.4112 2.22288 14.2701 2.22128 14.1295ZM17.7865 23.2105C17.7921 23.3212 17.8036 23.4311 17.8096 23.5414C17.8304 23.9106 17.8424 24.2802 17.8656 24.649C17.8756 24.8125 17.8804 24.9763 17.89 25.1397C17.9095 25.4898 17.9311 25.8394 17.9499 26.1895C17.9611 26.3948 17.9679 26.6006 17.9791 26.806C17.9835 26.8951 18.003 26.9039 18.0862 26.8624C18.093 26.8588 18.0993 26.8552 18.1061 26.8512C18.7155 26.5123 19.3253 26.1727 19.9347 25.8338C20.6579 25.4314 21.3808 25.0295 22.104 24.6279C22.8205 24.2299 23.537 23.8319 24.2534 23.4339C25.0498 22.9911 25.8462 22.5484 26.6426 22.1057C27.3654 21.7041 28.0887 21.3021 28.8115 20.9001C29.518 20.5073 30.2241 20.1145 30.9305 19.7217C31.277 19.5291 31.6234 19.3365 31.9707 19.1447C32.019 19.1175 32.0578 19.0904 32.0614 19.026C32.0742 18.7939 32.0918 18.5621 32.1065 18.3303C32.1237 18.0642 32.1397 17.7981 32.1573 17.532C32.1861 17.0948 32.2156 16.6577 32.2444 16.2205C32.2616 15.9584 32.2776 15.6959 32.2943 15.4333C32.2987 15.369 32.3083 15.3047 32.3099 15.2399C32.3119 15.1532 32.2971 15.1456 32.2184 15.188C31.9327 15.341 31.6474 15.4941 31.3621 15.6479C30.537 16.0934 29.7118 16.5394 28.8867 16.9845C28.2557 17.325 27.6243 17.6638 26.9938 18.0043C25.9904 18.5457 24.9883 19.088 23.9849 19.6294C23.25 20.0258 22.5148 20.4206 21.78 20.817C20.7362 21.3796 19.6933 21.943 18.65 22.506C18.3882 22.6475 18.1273 22.7902 17.8648 22.9292C17.8025 22.962 17.7729 23.0011 17.7853 23.0739C17.7929 23.1182 17.7865 23.165 17.7865 23.2105ZM29.1464 12.6582C28.6964 12.3501 28.2729 12.0556 27.8209 11.7619C27.811 12.0192 27.7766 12.2478 27.7506 12.4776C27.735 12.6142 27.6859 12.7261 27.6004 12.8272C27.4973 12.9479 27.3714 13.039 27.232 13.1125C26.9954 13.2372 26.7417 13.3031 26.4783 13.3295C26.0979 13.367 25.7239 13.3387 25.3643 13.1984C25.214 13.1397 25.0722 13.065 24.9527 12.9555C24.7985 12.8136 24.6922 12.6502 24.7153 12.4244C24.7333 12.2514 24.7385 12.0768 24.7509 11.881C24.3609 12.064 23.9845 12.241 23.5893 12.4264C23.7128 12.4848 23.8191 12.5267 23.9154 12.5874C24.2582 12.804 24.462 13.0973 24.4556 13.5193C24.4516 13.7754 24.4348 14.0292 24.3929 14.2817C24.3789 14.3672 24.3845 14.4555 24.3405 14.537C24.2818 14.6465 24.2071 14.7404 24.1112 14.8188C23.9797 14.9258 23.8326 15.0054 23.674 15.0633C23.2868 15.2044 22.8884 15.2451 22.4808 15.1868C22.2379 15.152 22.0037 15.0861 21.7888 14.9618C21.6205 14.8647 21.4795 14.7404 21.394 14.561C21.3636 14.4979 21.3468 14.4328 21.3492 14.3624C21.358 14.1071 21.3812 13.8529 21.4087 13.5992C21.4131 13.5584 21.4383 13.5073 21.4043 13.4793C21.3672 13.449 21.3268 13.4921 21.2909 13.5089C20.8106 13.7335 20.3314 13.9588 19.8519 14.185C19.7668 14.225 19.6829 14.2673 19.5774 14.3193C19.6458 14.3576 19.6949 14.3832 19.7425 14.4128C20.0901 14.6285 20.2983 14.923 20.2915 15.3502C20.2879 15.6063 20.2711 15.8601 20.2292 16.1126C20.2148 16.1981 20.2204 16.2864 20.1764 16.368C20.1177 16.4774 20.0425 16.5714 19.9466 16.6493C19.8152 16.7568 19.6681 16.8359 19.5095 16.8938C19.1223 17.0345 18.7239 17.0756 18.3163 17.0169C18.0734 16.9821 17.8388 16.9162 17.6242 16.7919C17.456 16.6944 17.3154 16.5702 17.2294 16.3907C17.1975 16.324 17.1827 16.2549 17.1859 16.1806C17.1939 15.9864 17.2079 15.793 17.2274 15.5996C17.2326 15.5492 17.2634 15.4821 17.2143 15.4501C17.1739 15.4245 17.1224 15.4709 17.0784 15.4913C16.702 15.6675 16.3264 15.8449 15.9508 16.0223C15.9312 16.0315 15.9056 16.0347 15.8976 16.0707C15.9595 16.0926 16.0235 16.1142 16.0862 16.1382C16.2548 16.2017 16.4111 16.2856 16.5521 16.4003C16.7991 16.6013 16.9222 16.8583 16.9266 17.1755C16.9305 17.4548 16.8934 17.7298 16.865 18.0067C16.8438 18.2149 16.7479 18.3643 16.6029 18.4946C16.4646 18.6184 16.3032 18.7052 16.129 18.7655C15.6239 18.9413 15.1124 18.9513 14.5997 18.8023C14.4043 18.7455 14.2217 18.6568 14.0683 18.5201C13.9089 18.3779 13.807 18.2109 13.8237 17.9807C13.8445 17.6954 13.8689 17.4109 13.8997 17.1272C13.9037 17.0864 13.9256 17.0465 13.8969 16.9909C13.6323 17.1148 13.367 17.2367 13.1037 17.3629C12.842 17.488 12.575 17.6039 12.3057 17.7461C12.5487 17.932 12.7652 18.1182 12.9846 18.3008C13.7562 18.9421 14.4931 19.6214 15.2039 20.3291C15.512 20.6356 15.8125 20.9496 16.1218 21.2549C16.491 21.619 16.8758 21.967 17.2374 22.3386C17.3385 22.4421 17.4364 22.5492 17.5367 22.6539C17.655 22.7774 17.637 22.7682 17.7741 22.6955C17.9291 22.6131 18.0822 22.528 18.2368 22.4449C19.0723 21.9946 19.9083 21.5454 20.7438 21.0947C21.8479 20.4993 22.9508 19.9023 24.0544 19.3069C24.7893 18.9105 25.5249 18.5158 26.2598 18.1194C27.3598 17.5256 28.4595 16.9302 29.56 16.3368C30.3955 15.8861 31.2314 15.4369 32.067 14.9866C32.0973 14.9706 32.1269 14.9526 32.1557 14.9342C32.1841 14.9163 32.1877 14.8927 32.1629 14.8687C32.1465 14.8527 32.1285 14.8387 32.1105 14.8247C31.8536 14.627 31.5971 14.4292 31.3401 14.2318C31.2858 14.1902 31.2302 14.1494 31.1735 14.1111C31.1212 14.0759 31.0936 14.0867 31.0912 14.1482C31.086 14.3129 31.0488 14.4735 31.0392 14.6369C31.0304 14.7952 30.9637 14.9214 30.8622 15.0353C30.7355 15.178 30.5789 15.2791 30.4043 15.3502C29.9044 15.554 29.3913 15.5848 28.8683 15.4549C28.6633 15.4038 28.4691 15.3254 28.3017 15.1928C28.0971 15.0313 27.9732 14.8431 28.0012 14.5574C28.0335 14.2282 28.0519 13.8969 28.1023 13.5688C28.1178 13.4669 28.1446 13.3678 28.1882 13.2735C28.2973 13.0386 28.4919 12.8971 28.7172 12.7908C28.8451 12.7305 28.9806 12.6921 29.1464 12.6582ZM5.97182 12.2886C6.0937 12.3473 6.19679 12.3873 6.29069 12.4456C6.63833 12.6622 6.84492 12.9575 6.83853 13.3838C6.83453 13.64 6.81735 13.8941 6.77579 14.1462C6.76141 14.2322 6.7666 14.3201 6.72265 14.4016C6.66391 14.5111 6.58839 14.6046 6.49248 14.6825C6.36102 14.7896 6.21397 14.8687 6.05533 14.9266C5.66773 15.0669 5.26974 15.1081 4.86216 15.0493C4.61921 15.0142 4.38505 14.9482 4.17047 14.8239C4.00225 14.7264 3.86119 14.6018 3.77608 14.4224C3.74771 14.3628 3.73013 14.3017 3.73212 14.235C3.73812 14.0408 3.7549 13.8474 3.77128 13.6536C3.78007 13.5489 3.80565 13.4446 3.79646 13.3367C3.74731 13.3271 3.71574 13.3515 3.68218 13.367C3.45441 13.4733 3.22664 13.5804 2.99888 13.6875C2.89219 13.7379 2.7863 13.7898 2.67921 13.8398C2.63605 13.8601 2.63006 13.8845 2.66442 13.9173C2.71917 13.97 2.77431 14.0232 2.83025 14.0747C3.33693 14.537 3.84401 14.9994 4.35069 15.4617C4.6352 15.721 4.9193 15.9812 5.20381 16.2401C5.67413 16.6689 6.14484 17.0972 6.61556 17.5256C6.94242 17.8233 7.26889 18.1214 7.59655 18.4187C7.68606 18.4998 7.68686 18.4974 7.79155 18.4402C8.10922 18.2668 8.4249 18.0894 8.74657 17.9228C9.3012 17.6351 9.84624 17.329 10.3977 17.0345C11.2376 16.5849 12.0751 16.1302 12.9139 15.6779C13.4337 15.3974 13.954 15.1176 14.4739 14.8363C14.591 14.7732 14.5906 14.7648 14.4899 14.6849C14.4719 14.6709 14.4543 14.6561 14.4363 14.6421C14.1518 14.418 13.8645 14.1974 13.5712 13.9848C13.5017 13.9345 13.4757 13.9441 13.4729 14.0272C13.4677 14.1838 13.4305 14.3372 13.4226 14.4927C13.4142 14.6641 13.339 14.798 13.2268 14.9183C13.1049 15.0485 12.957 15.1424 12.794 15.2104C12.3832 15.3814 11.9561 15.4305 11.5165 15.3706C11.2532 15.3346 10.999 15.2659 10.7749 15.1196C10.5195 14.953 10.3485 14.748 10.3841 14.4056C10.4184 14.0763 10.4364 13.7451 10.4872 13.4174C10.5024 13.3191 10.5299 13.224 10.5723 13.1337C10.6822 12.8987 10.8776 12.7589 11.1029 12.6522C11.23 12.5922 11.3659 12.5563 11.5033 12.5247C11.4977 12.5115 11.4969 12.5019 11.4917 12.4987C11.0922 12.2254 10.6922 11.9529 10.2918 11.6804C10.2734 11.668 10.2522 11.6584 10.2322 11.648C10.229 11.6464 10.2246 11.6468 10.221 11.6476C10.2175 11.6484 10.2143 11.6512 10.2027 11.658C10.1931 11.8802 10.1583 12.1055 10.1343 12.3317C10.118 12.486 10.0584 12.6078 9.95812 12.7173C9.80468 12.8847 9.61367 12.9942 9.40269 13.0682C8.89801 13.2448 8.38654 13.2544 7.87386 13.1057C7.67807 13.049 7.49545 12.9603 7.34201 12.8236C7.18258 12.6814 7.07229 12.5143 7.09826 12.2846C7.10705 12.2054 7.10585 12.1251 7.11465 12.0452C7.12463 11.9521 7.12703 11.8578 7.13383 11.7435C6.74503 11.9261 6.37061 12.1019 5.97182 12.2886ZM7.29086 22.771C7.32203 22.6903 7.32243 22.6259 7.32443 22.5612C7.33442 22.2563 7.34321 21.9518 7.356 21.6473C7.37398 21.2286 7.39715 20.8106 7.41514 20.3918C7.42792 20.0949 7.43551 19.798 7.4459 19.5011C7.4467 19.478 7.4483 19.4552 7.4507 19.4324C7.47428 19.205 7.45709 18.9753 7.48426 18.7479C7.49186 18.6816 7.46269 18.6324 7.41394 18.5881C7.04911 18.2588 6.68549 17.928 6.32226 17.5967C5.7029 17.0321 5.08393 16.4667 4.46497 15.9008C3.82603 15.3174 3.18788 14.7336 2.54894 14.1506C2.52776 14.1315 2.51258 14.1007 2.47662 14.1027C2.45943 14.1179 2.46223 14.1375 2.46223 14.1558C2.46343 14.621 2.43746 15.0849 2.42227 15.5496C2.40589 16.0483 2.3979 16.5478 2.3951 17.0469C2.3935 17.4013 2.37912 17.7553 2.36833 18.1094C2.36513 18.2061 2.38871 18.2808 2.46703 18.3371C2.48261 18.3483 2.495 18.3631 2.50898 18.3759C2.87381 18.7115 3.23823 19.0468 3.60266 19.3825C3.91953 19.6742 4.23561 19.9667 4.55248 20.258C5.07155 20.7351 5.59141 21.2114 6.11008 21.6889C6.45772 22.009 6.80376 22.3306 7.15101 22.6511C7.19217 22.6895 7.23652 22.7246 7.29086 22.771ZM7.56938 22.751C7.61533 22.7598 7.63651 22.7406 7.65928 22.7282C7.9326 22.5768 8.20592 22.4249 8.47884 22.2731C9.48141 21.7153 10.4844 21.1578 11.4869 20.6C11.6536 20.5073 11.8194 20.4138 11.986 20.3211C12.0276 20.2979 12.0656 20.2731 12.0564 20.2164C12.036 20.0917 12.0428 19.9655 12.0352 19.84C12.0056 19.3569 11.9768 18.8742 11.9477 18.3915C11.9361 18.2053 11.9261 18.0187 11.9109 17.8329C11.9033 17.7449 11.9293 17.6782 12 17.6239C12.0859 17.5575 12.1862 17.5204 12.2821 17.4748C12.8304 17.2163 13.379 16.9594 13.9276 16.7016C13.966 16.6836 14.0028 16.6641 14.0239 16.6245C14.141 16.4067 14.3256 16.2645 14.5466 16.1654C14.6021 16.1402 14.6253 16.103 14.6293 16.0423C14.6485 15.7422 14.6713 15.4421 14.6917 15.1416C14.694 15.1053 14.7112 15.0577 14.6773 15.0337C14.6409 15.0078 14.6073 15.0485 14.5758 15.0657C13.9444 15.405 13.3135 15.7446 12.6829 16.0847C12.1359 16.3795 11.5896 16.6748 11.043 16.9705C10.4728 17.2786 9.90338 17.5875 9.33316 17.8952C8.83008 18.1665 8.327 18.4378 7.82232 18.7064C7.75758 18.7407 7.72682 18.7811 7.72522 18.857C7.72002 19.1159 7.71363 19.3749 7.69765 19.6334C7.68486 19.8352 7.68206 20.037 7.67367 20.2388C7.65449 20.6879 7.63251 21.1371 7.61253 21.5858C7.59775 21.9095 7.58336 22.2327 7.56978 22.5564C7.56698 22.6203 7.56938 22.6847 7.56938 22.751ZM17.7002 26.7101C17.7289 26.6849 17.7169 26.6526 17.7165 26.6242C17.7149 26.4907 17.7058 26.3577 17.6974 26.2246C17.675 25.8558 17.6642 25.4866 17.6414 25.1178C17.6314 24.9543 17.6262 24.7905 17.617 24.6271C17.5899 24.1252 17.5583 23.6233 17.5351 23.1214C17.5303 23.0195 17.5036 22.9428 17.4284 22.8709C17.1287 22.5832 16.8378 22.2867 16.5374 21.9994C16.1741 21.6517 15.8121 21.3029 15.4617 20.9417C15.0685 20.5373 14.6597 20.1481 14.2565 19.7537C14.1478 19.6474 14.0343 19.5451 13.9212 19.4432C13.5364 19.096 13.1416 18.7603 12.7469 18.4242C12.5874 18.2884 12.424 18.1569 12.2602 18.0263C12.2066 17.9839 12.1878 17.9943 12.1838 18.0594C12.1822 18.0862 12.1834 18.113 12.1846 18.1393C12.1926 18.2916 12.2006 18.4438 12.2098 18.5957C12.2382 19.0596 12.2677 19.5231 12.2953 19.987C12.3145 20.3139 12.3305 20.6412 12.3489 20.968C12.3589 21.1466 12.3764 21.3249 12.3812 21.5039C12.384 21.6094 12.432 21.6793 12.5067 21.7464C12.8695 22.0725 13.2264 22.405 13.5788 22.7426C13.7382 22.8956 13.8993 23.0467 14.0607 23.1977C14.4087 23.5234 14.7436 23.8619 15.0733 24.2059C15.5216 24.6742 15.9787 25.1329 16.4554 25.5717C16.8422 25.9281 17.2418 26.2702 17.6126 26.6438C17.6378 26.6698 17.657 26.7069 17.7002 26.7101ZM29.7438 14.3876C29.8608 14.3932 30.0155 14.3748 30.1673 14.3329C30.3416 14.2849 30.5046 14.2134 30.6428 14.0931C30.8478 13.9149 30.8938 13.6595 30.7595 13.435C30.7064 13.3459 30.6404 13.2671 30.5533 13.2084C30.0223 12.848 29.4537 12.7928 28.8547 13.003C28.7196 13.0506 28.6057 13.1333 28.5086 13.2392C28.3448 13.4182 28.3228 13.6424 28.4523 13.8486C28.5182 13.9536 28.6061 14.038 28.708 14.1071C29.0085 14.3105 29.3446 14.39 29.7438 14.3876ZM26.1998 10.705C26.0136 10.6958 25.8154 10.7262 25.624 10.7981C25.4762 10.8532 25.3419 10.93 25.2324 11.047C25.063 11.2276 25.039 11.455 25.1717 11.6652C25.2592 11.8039 25.3811 11.9061 25.5237 11.9837C25.9169 12.1978 26.3357 12.2534 26.774 12.1731C26.979 12.1351 27.1692 12.0608 27.3342 11.9301C27.5832 11.7331 27.622 11.451 27.4385 11.1921C27.3522 11.071 27.2347 10.9875 27.1073 10.9172C26.8308 10.7645 26.5331 10.6974 26.1998 10.705ZM15.3326 16.2633C15.0809 16.2633 14.915 16.2884 14.7272 16.36C14.5834 16.4147 14.4527 16.4894 14.3452 16.6029C14.171 16.7871 14.147 17.0161 14.2845 17.2299C14.3708 17.3645 14.4899 17.4648 14.6285 17.5408C15.0253 17.7581 15.4473 17.8141 15.8896 17.7314C16.0866 17.6942 16.27 17.6227 16.4311 17.5C16.6928 17.3006 16.7359 17.0121 16.5441 16.7468C16.5034 16.6908 16.4562 16.6421 16.4015 16.5997C16.0858 16.3576 15.7246 16.2617 15.3326 16.2633ZM5.43717 13.9285C5.68571 13.9393 5.92986 13.8893 6.16123 13.7798C6.27631 13.7255 6.377 13.6508 6.45772 13.5513C6.59638 13.3806 6.61196 13.1776 6.50128 12.987C6.44533 12.8899 6.37221 12.8072 6.2795 12.7441C5.77083 12.3996 5.22179 12.3413 4.64359 12.5255C4.49054 12.5743 4.35189 12.657 4.2424 12.7797C4.08176 12.9595 4.06338 13.1876 4.18965 13.3914C4.27916 13.5353 4.40663 13.6356 4.55168 13.7155C4.8246 13.8661 5.1179 13.9365 5.43717 13.9285ZM12.1203 14.2505C12.2382 14.2557 12.3968 14.2386 12.5523 14.195C12.7265 14.1466 12.8895 14.0747 13.027 13.9544C13.2288 13.7782 13.2755 13.5285 13.1468 13.3055C13.0953 13.2156 13.0302 13.1361 12.9438 13.0765C12.4108 12.7105 11.8386 12.6542 11.2356 12.8664C11.1005 12.9139 10.9867 12.9974 10.89 13.1033C10.7297 13.2791 10.7066 13.5001 10.8304 13.7035C10.8968 13.8126 10.9871 13.8997 11.0926 13.9708C11.3898 14.1718 11.7223 14.2513 12.1203 14.2505ZM23.0251 14.0667C23.3368 14.0679 23.5637 14.022 23.7767 13.9181C23.8874 13.8641 23.9861 13.7934 24.0664 13.6991C24.2151 13.5241 24.2318 13.3135 24.114 13.1165C24.0564 13.0202 23.9821 12.9383 23.889 12.8764C23.3827 12.5375 22.8369 12.4796 22.2627 12.6622C22.106 12.7121 21.9642 12.7964 21.8535 12.9243C21.6992 13.1013 21.6829 13.3279 21.8059 13.5269C21.895 13.6711 22.0221 13.7718 22.1672 13.8517C22.4397 14.0028 22.733 14.0735 23.0251 14.0667ZM8.81689 12.0724C9.11219 12.062 9.40908 12.0092 9.66962 11.8278C9.98849 11.6057 10.0245 11.2588 9.75713 10.9767C9.73395 10.9519 9.70718 10.93 9.68081 10.908C9.22527 10.5288 8.4253 10.4752 7.94459 10.685C7.81393 10.7421 7.69685 10.8181 7.60055 10.9252C7.45629 11.0858 7.42872 11.2956 7.53022 11.4866C7.58656 11.5929 7.66648 11.6796 7.76198 11.7507C8.07086 11.9813 8.4261 12.0624 8.81689 12.0724ZM18.8905 15.896C19.1387 15.9068 19.3828 15.8569 19.6142 15.7474C19.7293 15.6931 19.83 15.6183 19.9107 15.5192C20.0497 15.3482 20.0649 15.1452 19.9546 14.9546C19.8983 14.8575 19.8248 14.7748 19.7325 14.7121C19.2238 14.3668 18.6748 14.3093 18.0965 14.4931C17.9435 14.5418 17.8048 14.6246 17.6954 14.7476C17.5347 14.9274 17.5163 15.1556 17.6426 15.3594C17.7321 15.5032 17.8596 15.6035 18.0046 15.6835C18.2776 15.8337 18.5709 15.904 18.8905 15.896ZM13.2168 14.1442C13.1788 14.1418 13.162 14.1654 13.1416 14.1814C12.9926 14.2977 12.8244 14.3752 12.6442 14.4296C11.9948 14.6238 11.1193 14.4355 10.7325 13.9848C10.7185 13.9688 10.703 13.9461 10.6762 13.96C10.657 13.97 10.6586 13.992 10.6574 14.0108C10.6494 14.1626 10.645 14.3149 10.6326 14.4667C10.6182 14.6381 10.699 14.7576 10.828 14.8547C10.9607 14.9542 11.1089 15.0221 11.2688 15.0649C11.6088 15.156 11.9521 15.166 12.2981 15.1009C12.5131 15.0605 12.7181 14.9914 12.9015 14.8695C12.9942 14.8084 13.0909 14.7396 13.1265 14.6333C13.1784 14.4763 13.2052 14.3117 13.2168 14.1442ZM28.3084 14.0871C28.2777 14.1055 28.2761 14.1247 28.2749 14.1438C28.2665 14.2957 28.2625 14.4479 28.2497 14.5994C28.2345 14.7752 28.3168 14.8979 28.4503 14.9962C28.5874 15.0965 28.7396 15.164 28.9034 15.2068C29.2287 15.2923 29.5576 15.3011 29.888 15.2439C30.1114 15.2052 30.3244 15.136 30.515 15.0098C30.6552 14.9163 30.7691 14.804 30.7823 14.6206C30.7863 14.5602 30.8067 14.5015 30.8163 14.4415C30.8251 14.3884 30.8295 14.3345 30.8382 14.2605C30.714 14.354 30.6085 14.4284 30.4902 14.4819C30.3683 14.5374 30.2413 14.5766 30.1102 14.6026C29.9831 14.6285 29.8549 14.6421 29.725 14.6437C29.5907 14.6453 29.4589 14.6321 29.3274 14.6098C29.1995 14.5878 29.0745 14.5566 28.9526 14.5107C28.8275 14.4635 28.7084 14.4052 28.5954 14.3333C28.4871 14.2641 28.4012 14.1674 28.3084 14.0871ZM27.5296 12.0964C27.1536 12.4008 26.7125 12.4836 26.2438 12.448C25.7707 12.4124 25.3491 12.251 25.0086 11.8818C24.9783 12.09 24.9783 12.2758 24.9715 12.4616C24.9671 12.5882 25.0186 12.6822 25.1077 12.7621C25.1936 12.8388 25.2899 12.9011 25.397 12.9431C25.9321 13.1529 26.4687 13.1473 27.0038 12.9435C27.158 12.8847 27.2971 12.7984 27.4078 12.6714C27.4485 12.6242 27.4765 12.5739 27.4853 12.5095C27.5005 12.404 27.5237 12.2997 27.542 12.1947C27.5472 12.1659 27.5604 12.1359 27.5296 12.0964ZM16.6576 17.6418C16.2576 17.9611 15.8165 18.0446 15.3466 18.0075C14.8767 17.9703 14.4583 17.8105 14.135 17.4588C14.1075 17.4716 14.1091 17.488 14.1075 17.5024C14.0899 17.6694 14.0887 17.8372 14.0807 18.0047C14.0735 18.1541 14.1378 18.2596 14.2481 18.3479C14.378 18.4522 14.5254 18.5217 14.6845 18.5681C14.9965 18.6584 15.3138 18.6792 15.6351 18.6324C15.8549 18.6005 16.0674 18.5413 16.2632 18.4314C16.4534 18.3243 16.6045 18.1909 16.6185 17.9507C16.6237 17.8572 16.6568 17.7661 16.6576 17.6418ZM7.39076 11.7423C7.36079 11.9545 7.36119 12.1411 7.3544 12.3273C7.35 12.4544 7.40355 12.5479 7.49306 12.627C7.57937 12.7033 7.67567 12.7653 7.78316 12.8072C8.31861 13.0166 8.85485 13.0098 9.3895 12.8048C9.54015 12.7473 9.67681 12.6638 9.7847 12.5399C9.82026 12.4995 9.85343 12.4588 9.86342 12.4032C9.8842 12.283 9.90737 12.1631 9.92775 12.0432C9.93175 12.0188 9.94453 11.9909 9.90937 11.9629C9.53296 12.2626 9.09261 12.3477 8.62309 12.3109C8.15278 12.2738 7.73321 12.1151 7.39076 11.7423ZM21.6433 13.7511C21.6157 13.958 21.6109 14.1518 21.6089 14.3456C21.6081 14.4395 21.6413 14.5159 21.7028 14.583C21.7868 14.6741 21.8867 14.7444 21.9997 14.792C22.53 15.015 23.0662 15.0122 23.6041 14.8235C23.7371 14.7772 23.8614 14.7085 23.9685 14.6142C24.032 14.5586 24.0944 14.4983 24.1132 14.4136C24.1423 14.2797 24.1627 14.1442 24.1855 14.0092C24.1883 13.9924 24.1951 13.97 24.1687 13.962C23.5226 14.5039 22.2595 14.4351 21.6433 13.7511ZM4.02702 13.6092C3.99905 13.8174 3.99425 14.0108 3.99186 14.2042C3.99066 14.3025 4.02502 14.382 4.09095 14.4511C4.17886 14.5434 4.28276 14.6126 4.39944 14.6625C4.80902 14.8379 5.23298 14.8571 5.66534 14.778C5.90389 14.734 6.12726 14.6509 6.32146 14.5007C6.42416 14.4216 6.50247 14.3281 6.51206 14.1902C6.51526 14.1454 6.53564 14.1015 6.53964 14.0563C6.54643 13.9796 6.5788 13.9045 6.56241 13.8202C5.85754 14.4 4.59084 14.2565 4.02702 13.6092ZM20.0218 15.7734C19.6214 16.0982 19.1754 16.1834 18.7031 16.1446C18.234 16.1062 17.8136 15.9416 17.48 15.5764C17.4516 15.789 17.4468 15.9828 17.4452 16.1766C17.4444 16.2705 17.4776 16.3468 17.5395 16.4139C17.6262 16.5074 17.7305 16.5761 17.8464 16.6277C18.1976 16.7831 18.5661 16.8135 18.9425 16.7735C19.183 16.748 19.4136 16.6852 19.6266 16.567C19.7105 16.5206 19.7888 16.4667 19.8543 16.3967C19.9099 16.338 19.9486 16.2721 19.9606 16.1873C19.9794 16.0567 20.0178 15.9288 20.0218 15.7734Z" fill="#F3F4F6"/>
</g>
<mask id="mask3_116_281" style="mask-type:luminance" maskUnits="userSpaceOnUse" x="30" y="19" width="3" height="3">
<path d="M30.6449 19.6993H32.7907V21.1315H30.6449V19.6993Z" fill="white"/>
</mask>
<g mask="url(#mask3_116_281)">
<path d="M32.7794 19.7657C32.8278 19.7661 32.8586 19.7777 32.8757 19.8124C32.8937 19.8484 32.8793 19.8792 32.8558 19.9063C32.823 19.9443 32.7802 19.9699 32.7387 19.997C32.4346 20.1932 32.1157 20.3643 31.7985 20.5381C31.5044 20.6991 31.2071 20.8538 30.9114 21.0108C30.8842 21.0252 30.8574 21.04 30.8295 21.0516C30.7531 21.0835 30.708 21.0783 30.686 21.0376C30.6652 20.9984 30.684 20.9561 30.7499 20.9065C30.7895 20.8769 30.8319 20.8506 30.8742 20.8254C31.1471 20.666 31.42 20.5065 31.6942 20.3491C31.9615 20.1956 32.23 20.0438 32.4989 19.8928C32.5621 19.8572 32.6272 19.8256 32.6927 19.7949C32.7235 19.7805 32.7575 19.7729 32.7794 19.7657Z" fill="#F3F4F6"/>
</g>
<path d="M15.6403 14.7137C15.6043 14.7121 15.5744 14.6965 15.5456 14.6769C15.4893 14.6378 15.4373 14.593 15.389 14.5443C15.0729 14.2254 14.7652 13.8981 14.4719 13.5581C14.4443 13.5261 14.4168 13.4945 14.4032 13.4538C14.3932 13.423 14.3948 13.393 14.4188 13.3691C14.4467 13.3407 14.4823 13.3395 14.5131 13.3583C14.5482 13.3803 14.5802 13.4082 14.6114 13.4358C14.8707 13.6664 15.1065 13.9201 15.3458 14.1702C15.4485 14.2773 15.5524 14.3836 15.6471 14.4979C15.6763 14.5335 15.7062 14.5682 15.7198 14.613C15.7398 14.6789 15.7086 14.7173 15.6403 14.7137Z" fill="#F3F4F6"/>
<path d="M12.7665 23.1894C12.7241 23.1854 12.6837 23.1746 12.6458 23.1562C12.5047 23.0875 12.3697 23.0083 12.257 22.8981C12.0168 22.6635 11.7911 22.4154 11.5673 22.1656C11.5421 22.1372 11.5173 22.1081 11.5042 22.0713C11.493 22.0405 11.4942 22.0106 11.5173 21.9858C11.5433 21.9566 11.5777 21.9502 11.6108 21.967C11.6412 21.9818 11.6688 22.0034 11.6952 22.025C11.865 22.1668 12.0188 22.3263 12.1723 22.4849C12.3445 22.6635 12.5187 22.8393 12.7241 22.9808C12.7649 23.0087 12.8024 23.0419 12.8268 23.0863C12.8624 23.151 12.8396 23.1898 12.7665 23.1894Z" fill="#F3F4F6"/>
<path d="M18.2253 21.2538C17.9052 21.2402 17.5639 21.1894 17.2515 21.0184C17.0744 20.9217 16.923 20.7971 16.8335 20.6096C16.7935 20.5257 16.7752 20.4414 16.7887 20.3447C16.8091 20.2017 16.8023 20.0562 16.8167 19.9116C16.8375 19.7106 16.8615 19.5104 16.887 19.3102C16.9362 18.9302 17.1448 18.6684 17.4872 18.5214C18.1469 18.2377 18.7907 18.2912 19.402 18.6628C19.6182 18.7939 19.7833 18.9821 19.85 19.2351C19.8979 19.4165 19.9071 19.6039 19.8887 19.7909C19.8688 19.9995 19.8448 20.2073 19.8228 20.4158C19.8088 20.5469 19.7413 20.652 19.6578 20.7483C19.5323 20.8922 19.3749 20.9913 19.2023 21.0672C18.9142 21.1942 18.5809 21.2474 18.2253 21.2538ZM18.5285 20.1078C18.646 20.1134 18.8047 20.0954 18.9601 20.0522C19.1303 20.0047 19.2898 19.9343 19.426 19.8185C19.6398 19.6358 19.6858 19.3713 19.5411 19.142C19.4876 19.0576 19.4232 18.9825 19.3397 18.9262C18.8119 18.5693 18.2468 18.5138 17.6511 18.7204C17.5124 18.7683 17.3945 18.8527 17.295 18.9621C17.1356 19.1376 17.1132 19.3589 17.2375 19.5623C17.3018 19.6678 17.3893 19.7529 17.4904 19.8225C17.7901 20.0278 18.1258 20.1086 18.5285 20.1078ZM19.623 20.0011C19.5823 19.9991 19.5635 20.027 19.5403 20.0446C19.4028 20.1501 19.2494 20.2228 19.0848 20.276C18.4294 20.4874 17.5352 20.3008 17.1404 19.8436C17.126 19.8273 17.11 19.8037 17.084 19.8165C17.0601 19.8281 17.0645 19.8556 17.0633 19.8776C17.0553 20.0258 17.0513 20.1745 17.0389 20.3219C17.0241 20.4934 17.104 20.6136 17.2327 20.7107C17.3466 20.7963 17.4716 20.861 17.6079 20.9013C18.1182 21.0516 18.6221 21.0368 19.1163 20.8314C19.251 20.7755 19.3721 20.6968 19.47 20.5865C19.5007 20.5521 19.5323 20.5177 19.5423 20.4718C19.5759 20.3167 19.6142 20.1621 19.623 20.0011Z" fill="#F3F4F6"/>
<path d="M21.9506 19.2226C21.6417 19.227 21.3436 19.1751 21.0587 19.0536C20.9029 18.9869 20.7606 18.899 20.6459 18.7723C20.5217 18.6344 20.4525 18.4846 20.4729 18.2856C20.4953 18.0666 20.5017 17.8449 20.5277 17.6255C20.5437 17.4896 20.5624 17.3534 20.584 17.2183C20.6412 16.8599 20.8661 16.6345 21.181 16.4902C21.5182 16.336 21.8755 16.296 22.2427 16.34C22.5576 16.378 22.8545 16.4707 23.1146 16.6565C23.3348 16.8139 23.5034 17.0121 23.5518 17.2886C23.5761 17.4277 23.5897 17.5687 23.5765 17.7098C23.5546 17.9487 23.5322 18.1877 23.5014 18.4255C23.485 18.5549 23.4059 18.6568 23.3196 18.7499C23.2041 18.875 23.0623 18.9645 22.9072 19.032C22.6023 19.1651 22.2831 19.2278 21.9506 19.2226ZM21.943 16.5845C21.8119 16.5802 21.6569 16.5933 21.5051 16.6361C21.342 16.682 21.1898 16.75 21.0575 16.8575C20.8066 17.0625 20.7722 17.3494 20.9688 17.6039C21.0983 17.7721 21.2733 17.8792 21.4675 17.9547C21.7976 18.083 22.1392 18.1218 22.4888 18.0614C22.741 18.0179 22.9755 17.9316 23.159 17.743C23.3408 17.5563 23.36 17.3122 23.2121 17.0964C23.1374 16.9877 23.0395 16.9042 22.928 16.8355C22.6339 16.6525 22.3118 16.579 21.943 16.5845ZM23.3076 17.9623C22.6779 18.5094 21.3752 18.461 20.773 17.7825C20.7534 17.7925 20.7494 17.8113 20.7486 17.8301C20.7398 18.0011 20.7323 18.1721 20.7231 18.3431C20.7179 18.4494 20.7598 18.5341 20.8322 18.6093C20.9456 18.7279 21.0855 18.8039 21.2377 18.8566C21.7073 19.0192 22.1796 19.0129 22.6511 18.8658C22.8121 18.8155 22.9612 18.7387 23.0902 18.628C23.1454 18.5809 23.2025 18.5297 23.2213 18.4586C23.2629 18.298 23.2964 18.1354 23.3076 17.9623Z" fill="#F3F4F6"/>
<path d="M25.795 17.5523C25.4862 17.5567 25.1877 17.5052 24.9028 17.3833C24.7469 17.317 24.6051 17.2291 24.4904 17.1024C24.3657 16.9649 24.3002 16.8151 24.3166 16.6161C24.3397 16.3316 24.3589 16.0467 24.3941 15.763C24.4025 15.6951 24.4145 15.6275 24.4249 15.5596C24.4812 15.1972 24.705 14.9666 25.0242 14.8204C25.3615 14.6657 25.7187 14.6258 26.0859 14.6697C26.4008 14.7077 26.6977 14.8004 26.9583 14.9858C27.1748 15.1408 27.3423 15.3354 27.3934 15.6067C27.421 15.753 27.4338 15.9016 27.4202 16.0503C27.3982 16.2856 27.3758 16.5206 27.3455 16.7548C27.3291 16.8842 27.25 16.9861 27.164 17.0792C27.0486 17.2043 26.9067 17.2938 26.7517 17.3613C26.4468 17.4948 26.1275 17.5575 25.795 17.5523ZM25.7867 14.9147C25.6556 14.9099 25.5005 14.9234 25.3487 14.9658C25.1857 15.0118 25.0334 15.0797 24.9012 15.1876C24.6502 15.3922 24.6159 15.6791 24.8125 15.934C24.9423 16.1018 25.1169 16.2089 25.3111 16.2844C25.6412 16.4131 25.9833 16.4515 26.3329 16.3911C26.5846 16.3476 26.8192 16.2613 27.003 16.0727C27.1844 15.8861 27.2036 15.6419 27.0558 15.4265C26.9814 15.3178 26.8831 15.2343 26.7716 15.1652C26.4779 14.9826 26.1555 14.9087 25.7867 14.9147ZM27.1536 16.2852C26.7629 16.6041 26.3209 16.6944 25.847 16.6581C25.3735 16.6221 24.9507 16.4643 24.6231 16.1082C24.5967 16.123 24.5931 16.1418 24.5923 16.161C24.5835 16.332 24.5755 16.503 24.5667 16.674C24.5615 16.7799 24.6043 16.865 24.6762 16.9398C24.7901 17.0584 24.9299 17.134 25.0826 17.1867C25.5521 17.3493 26.024 17.3426 26.4955 17.1955C26.6566 17.1452 26.806 17.0684 26.9347 16.9574C27.0138 16.889 27.0713 16.8087 27.0889 16.6992C27.1097 16.5678 27.1401 16.4383 27.1536 16.2852Z" fill="#F3F4F6"/>
<path d="M8.1952 17.4149C7.86474 17.4193 7.56665 17.3665 7.28214 17.2447C7.13349 17.1811 6.99763 17.0972 6.88615 16.9789C6.75308 16.8375 6.68196 16.6828 6.69954 16.4746C6.72312 16.1901 6.7423 15.9052 6.77746 15.6215C6.78585 15.5536 6.79784 15.4861 6.80863 15.4185C6.86617 15.0557 7.08794 14.8183 7.41121 14.6829C8.04136 14.4184 8.66072 14.4639 9.25891 14.794C9.38717 14.8647 9.49187 14.9654 9.58697 15.0757C9.7508 15.2647 9.79955 15.4933 9.80515 15.7342C9.81034 15.9596 9.78197 16.1829 9.7524 16.4059C9.7484 16.4359 9.73881 16.4663 9.73921 16.4962C9.74241 16.7328 9.61374 16.8982 9.44312 17.0373C9.22534 17.2151 8.96681 17.3058 8.69629 17.3645C8.52406 17.4017 8.35024 17.4213 8.1952 17.4149ZM8.35624 16.2812C8.56802 16.2804 8.74184 16.2597 8.91007 16.2081C9.09468 16.1518 9.2645 16.0683 9.39796 15.9232C9.5598 15.7474 9.58138 15.5156 9.45391 15.3126C9.38398 15.2012 9.29087 15.1108 9.17819 15.0437C8.65313 14.7308 8.1029 14.6893 7.53268 14.9007C7.4176 14.943 7.31571 15.0125 7.22939 15.1005C7.0332 15.2995 7.01561 15.548 7.17745 15.7742C7.24977 15.8753 7.34168 15.954 7.44517 16.0199C7.73368 16.2045 8.05535 16.2697 8.35624 16.2812ZM9.53462 16.1482C9.14942 16.4667 8.70747 16.5558 8.23436 16.521C7.75805 16.4862 7.33409 16.3256 7.00363 15.9704C6.97965 15.9887 6.97645 16.0039 6.97526 16.0191C6.96686 16.1901 6.95887 16.3612 6.94968 16.5318C6.94409 16.6377 6.98405 16.7236 7.05597 16.7991C7.17225 16.9214 7.31571 16.9981 7.47195 17.0516C7.93787 17.2111 8.40658 17.2043 8.8741 17.0592C9.03913 17.0081 9.19178 16.9302 9.32244 16.8151C9.37958 16.7647 9.43632 16.7104 9.45391 16.6325C9.48907 16.4774 9.52423 16.322 9.53462 16.1482Z" fill="#F3F4F6"/>
<path d="M2.98887 15.8749C2.98008 16.324 2.97249 16.7728 2.9625 17.2215C2.9609 17.2938 2.95011 17.3657 2.94252 17.4373C2.93892 17.4756 2.92733 17.512 2.90735 17.5452C2.87419 17.6019 2.84102 17.6011 2.80865 17.5428C2.78788 17.5056 2.77829 17.4652 2.77429 17.4229C2.74752 17.1532 2.74912 16.8834 2.7667 16.6133C2.77109 16.549 2.77229 16.4843 2.77309 16.4195C2.77829 16.0579 2.80146 15.6975 2.82224 15.3366C2.82464 15.2915 2.83503 15.2459 2.84542 15.2016C2.85341 15.1676 2.86859 15.1336 2.91055 15.1328C2.9545 15.1316 2.96609 15.1672 2.97129 15.2024C2.97808 15.2511 2.98527 15.3003 2.98607 15.3498C2.98767 15.5248 2.98647 15.6999 2.98647 15.8749C2.98727 15.8749 2.98807 15.8749 2.98887 15.8749Z" fill="#F3F4F6"/>
<path d="M2.75073 17.9463C2.75113 17.9048 2.75473 17.8632 2.77551 17.826C2.80747 17.7681 2.86501 17.7657 2.89938 17.8201C2.93774 17.8804 2.91736 18.0266 2.86342 18.0738C2.83185 18.1014 2.80228 18.0998 2.77711 18.0654C2.75113 18.0298 2.75073 17.9879 2.75073 17.9463Z" fill="#F3F4F6"/>
<path d="M12.6546 20.3583C12.6582 20.0118 12.659 19.6658 12.6826 19.3202C12.6897 19.2179 12.6993 19.1156 12.7097 19.0137C12.7129 18.9837 12.7213 18.9537 12.7301 18.9246C12.7421 18.8874 12.7601 18.8506 12.8064 18.8518C12.8528 18.8526 12.8688 18.8882 12.878 18.9278C12.8895 18.9761 12.8911 19.0257 12.8915 19.0752C12.8979 19.6686 12.8744 20.2616 12.8708 20.855C12.8704 20.9381 12.8544 21.0212 12.8432 21.1043C12.8396 21.1303 12.8316 21.1567 12.8212 21.1806C12.8044 21.2194 12.7836 21.2614 12.7337 21.2586C12.6814 21.2554 12.6698 21.209 12.6622 21.1679C12.6558 21.1307 12.655 21.0923 12.655 21.0544C12.6542 20.8222 12.6546 20.59 12.6546 20.3583Z" fill="#F3F4F6"/>
<path d="M12.8216 21.5638C12.814 21.6014 12.8184 21.6478 12.7716 21.6665C12.7409 21.6793 12.7069 21.6382 12.6925 21.5754C12.6829 21.5331 12.6829 21.4927 12.7181 21.4615C12.7329 21.4484 12.7525 21.4464 12.7704 21.4556C12.8132 21.4783 12.8152 21.5211 12.8216 21.5638Z" fill="#F3F4F6"/>
<path d="M29.478 14.2294C29.353 14.2186 29.2271 14.2134 29.1044 14.183C28.9686 14.1498 28.8483 14.0879 28.754 13.9808C28.6401 13.8517 28.6109 13.6991 28.6301 13.5333C28.6317 13.5185 28.6369 13.5033 28.6433 13.4897C28.6537 13.4681 28.6693 13.4518 28.696 13.4542C28.7168 13.4561 28.7316 13.4701 28.7376 13.4885C28.7496 13.5245 28.762 13.5608 28.7684 13.5984C28.8059 13.8162 28.9434 13.9361 29.148 13.9932C29.2543 14.0228 29.3622 14.0455 29.4712 14.0627C29.5432 14.0739 29.6131 14.0923 29.679 14.1227C29.6962 14.1307 29.715 14.1402 29.7154 14.1622C29.7158 14.1918 29.6914 14.199 29.6698 14.205C29.6071 14.2214 29.5436 14.2334 29.478 14.2294Z" fill="#F3F4F6"/>
<path d="M26.1259 11.915C26.0104 11.8994 25.8917 11.9018 25.777 11.8698C25.479 11.7871 25.3267 11.4211 25.4782 11.1501C25.4913 11.1266 25.5057 11.1042 25.5285 11.0886C25.5545 11.0702 25.5832 11.0582 25.6128 11.0782C25.6404 11.097 25.6312 11.125 25.6228 11.1509C25.6012 11.2205 25.5908 11.2916 25.5952 11.3647C25.6064 11.5453 25.6859 11.6464 25.8606 11.6892C25.9637 11.714 26.0691 11.7303 26.1742 11.7487C26.2382 11.7599 26.3001 11.7771 26.3608 11.8011C26.3788 11.8083 26.3988 11.8191 26.3992 11.839C26.4 11.8666 26.3748 11.8742 26.3529 11.881C26.2793 11.9034 26.203 11.9066 26.1259 11.915Z" fill="#F3F4F6"/>
<path d="M15.343 17.4629C15.1968 17.4549 15.0649 17.4393 14.9374 17.3953C14.8647 17.3702 14.7984 17.3346 14.7365 17.2894C14.4843 17.1064 14.4851 16.8611 14.6094 16.6221C14.6182 16.6053 14.6306 16.5906 14.6433 16.5766C14.6593 16.5582 14.6805 16.5486 14.7045 16.5578C14.7293 16.5678 14.7365 16.5906 14.7337 16.6141C14.7289 16.6557 14.7221 16.6973 14.7141 16.738C14.6713 16.9606 14.7177 17.0589 14.9147 17.1712C15.0289 17.2363 15.1552 17.2651 15.2807 17.297C15.3546 17.3162 15.4277 17.337 15.4933 17.3774C15.5105 17.3877 15.5268 17.4009 15.522 17.4221C15.5176 17.4421 15.4977 17.4509 15.4785 17.4529C15.4289 17.4577 15.3798 17.4605 15.343 17.4629Z" fill="#F3F4F6"/>
<path d="M5.14511 13.6975C4.89936 13.6899 4.69238 13.6048 4.54533 13.3998C4.39348 13.188 4.44703 12.8703 4.66041 12.7205C4.67879 12.7073 4.70037 12.6985 4.72155 12.6917C4.73993 12.6861 4.75991 12.6897 4.77349 12.7061C4.78788 12.7233 4.78228 12.7417 4.77269 12.7585C4.74792 12.8016 4.71955 12.8424 4.69797 12.8863C4.58649 13.1089 4.62245 13.2512 4.82504 13.3982C4.90616 13.4573 4.99846 13.4913 5.09476 13.5165C5.16429 13.5349 5.23582 13.5504 5.29616 13.5924C5.34131 13.6236 5.33891 13.6555 5.28976 13.6743C5.24341 13.6919 5.19426 13.7003 5.14511 13.6975Z" fill="#F3F4F6"/>
<path d="M11.869 14.0519C11.6272 14.0619 11.4318 13.9644 11.2724 13.7898C11.1238 13.6272 11.103 13.3455 11.2217 13.1609C11.23 13.1485 11.2384 13.1353 11.2492 13.1245C11.274 13.1001 11.3012 13.0737 11.3383 13.0953C11.3711 13.1141 11.3643 13.1477 11.3563 13.1776C11.3383 13.2476 11.3188 13.3167 11.3156 13.3898C11.3088 13.5409 11.3699 13.6559 11.493 13.7391C11.6053 13.815 11.7279 13.8633 11.863 13.8797C11.9421 13.8893 12.0224 13.8969 12.0964 13.9309C12.1163 13.9401 12.1407 13.9496 12.1395 13.9776C12.1383 14.0052 12.1135 14.0132 12.0936 14.0224C12.0216 14.0555 11.9449 14.0515 11.869 14.0519Z" fill="#F3F4F6"/>
<path d="M22.8633 13.8885C22.5935 13.9037 22.3686 13.8038 22.194 13.5932C22.0773 13.4526 22.0365 13.2919 22.0909 13.1129C22.1041 13.069 22.124 13.0278 22.1616 12.9978C22.1804 12.983 22.202 12.9763 22.2251 12.9874C22.2503 12.9998 22.2507 13.0226 22.2475 13.0462C22.2467 13.0498 22.2455 13.0534 22.2451 13.0574C22.2055 13.3874 22.3706 13.6172 22.7062 13.6907C22.8137 13.7143 22.9244 13.7227 23.0331 13.7407C23.0779 13.7483 23.1218 13.761 23.1654 13.775C23.1825 13.7802 23.2017 13.791 23.1993 13.8146C23.1973 13.8378 23.1777 13.8446 23.1602 13.851C23.0659 13.8853 22.9676 13.8929 22.8633 13.8885Z" fill="#F3F4F6"/>
<path d="M8.5876 11.8027C8.41458 11.7879 8.23956 11.7615 8.08891 11.6468C7.85316 11.467 7.8048 11.1689 7.97663 10.926C7.98542 10.9136 7.99501 10.9012 8.0058 10.8908C8.03737 10.8604 8.07333 10.8345 8.11728 10.862C8.15804 10.888 8.14605 10.93 8.13367 10.9655C8.1057 11.049 8.08412 11.1329 8.08532 11.2225C8.08652 11.3168 8.12368 11.3911 8.1952 11.4506C8.27592 11.5182 8.36863 11.5597 8.46932 11.5869C8.54644 11.6073 8.62356 11.628 8.69988 11.652C8.72865 11.6608 8.75623 11.6756 8.781 11.6928C8.81976 11.7199 8.81616 11.7475 8.77181 11.7687C8.71627 11.7951 8.65593 11.8047 8.5876 11.8027Z" fill="#F3F4F6"/>
<path d="M18.7871 15.6691C18.6648 15.6583 18.535 15.6583 18.4083 15.6271C18.2724 15.5936 18.1502 15.5352 18.0551 15.4289C17.914 15.2715 17.8976 15.0893 17.9532 14.8943C17.9636 14.8575 17.9843 14.8188 18.0311 14.8255C18.0782 14.8319 18.083 14.8751 18.0862 14.9139C18.089 14.9478 18.0886 14.9822 18.0894 15.0166C18.0946 15.2048 18.1857 15.3322 18.3611 15.3998C18.4942 15.4513 18.6337 15.4689 18.7743 15.4805C18.9074 15.4913 19.0388 15.51 19.1675 15.548C19.1895 15.5544 19.2167 15.5612 19.2171 15.5876C19.2171 15.6143 19.1899 15.6211 19.1679 15.6263C19.0444 15.6539 18.9194 15.6619 18.7871 15.6691Z" fill="#F3F4F6"/>
<path d="M18.4147 19.8005C18.2025 19.7881 18.0275 19.7425 17.876 19.6278C17.6778 19.4776 17.5943 19.2211 17.6718 18.9961C17.6918 18.9381 17.719 18.883 17.7701 18.8454C17.7961 18.8263 17.8253 18.8143 17.8544 18.8358C17.8804 18.855 17.8724 18.883 17.864 18.9094C17.8572 18.9309 17.8492 18.9525 17.8433 18.9745C17.7833 19.1927 17.8564 19.3749 18.0514 19.4916C18.1373 19.5427 18.2305 19.5759 18.326 19.6039C18.3843 19.621 18.4446 19.6346 18.4974 19.6658C18.5317 19.6858 18.5869 19.6994 18.5761 19.7501C18.5677 19.7921 18.5166 19.7897 18.4794 19.7949C18.4494 19.7989 18.4191 19.8001 18.4147 19.8005Z" fill="#F3F4F6"/>
<path d="M21.4703 17.128C21.4635 17.325 21.5267 17.4221 21.7109 17.4956C21.8064 17.534 21.9055 17.56 22.0054 17.5844C22.0721 17.6003 22.1376 17.6195 22.1984 17.6523C22.2272 17.6679 22.2735 17.6759 22.2699 17.7158C22.2663 17.759 22.2192 17.7514 22.1872 17.759C22.0805 17.7845 21.9754 17.7598 21.8703 17.7466C21.7293 17.729 21.5958 17.687 21.4799 17.5999C21.3297 17.4873 21.2593 17.2871 21.3113 17.1136C21.3233 17.0733 21.3389 17.0345 21.3708 17.005C21.3912 16.9866 21.4148 16.9726 21.4432 16.9826C21.4739 16.9934 21.4767 17.0209 21.4755 17.0485C21.4743 17.0749 21.4719 17.1017 21.4703 17.128Z" fill="#F3F4F6"/>
<path d="M25.7795 16.1542C25.6572 16.1578 25.5361 16.1526 25.4182 16.1142C25.3267 16.0839 25.2416 16.0419 25.1741 15.9724C25.0362 15.8305 25.0322 15.6231 25.1221 15.4649C25.1297 15.4521 25.1397 15.4401 25.1505 15.4293C25.1673 15.4126 25.1885 15.4026 25.212 15.4126C25.2364 15.4229 25.2428 15.4453 25.2408 15.4693C25.2364 15.5184 25.2276 15.5676 25.226 15.6167C25.2204 15.7786 25.2704 15.8549 25.4222 15.9108C25.5817 15.9696 25.7507 15.9724 25.9169 15.9828C26.0008 15.988 26.0843 15.9916 26.1655 16.0119C26.193 16.0191 26.233 16.0207 26.2318 16.0615C26.231 16.0927 26.1978 16.099 26.1735 16.1074C26.072 16.1426 25.9665 16.155 25.859 16.1546C25.8326 16.1542 25.8062 16.1542 25.7795 16.1542Z" fill="#F3F4F6"/>
<path d="M8.00738 16.0088C7.90149 15.9972 7.80119 15.982 7.70289 15.948C7.44516 15.8589 7.27373 15.4006 7.51429 15.1257C7.53946 15.0969 7.56703 15.0701 7.60339 15.0561C7.62937 15.0461 7.65614 15.0449 7.67612 15.0693C7.6933 15.0893 7.68851 15.1121 7.67852 15.1333C7.66853 15.1536 7.65534 15.1728 7.64415 15.1924C7.4991 15.4489 7.60459 15.7266 7.88431 15.8245C7.95224 15.8481 8.02376 15.8633 8.0857 15.9017C8.10768 15.9153 8.13804 15.9272 8.13365 15.9592C8.12885 15.9912 8.09729 15.994 8.07131 15.9992C8.04894 16.0032 8.02616 16.006 8.00738 16.0088Z" fill="#F3F4F6"/>
<defs>
<linearGradient id="paint0_linear_116_281" x1="6.11841e-05" y1="17.5" x2="34.9999" y2="17.5" gradientUnits="userSpaceOnUse">
<stop/>
<stop offset="0.00390625" stop-color="#000001"/>
<stop offset="0.0078125" stop-color="#000002"/>
<stop offset="0.0117188" stop-color="#010102"/>
<stop offset="0.015625" stop-color="#010103"/>
<stop offset="0.0195312" stop-color="#010104"/>
<stop offset="0.0234375" stop-color="#010105"/>
<stop offset="0.0273438" stop-color="#010106"/>
<stop offset="0.03125" stop-color="#020206"/>
<stop offset="0.0351562" stop-color="#020207"/>
<stop offset="0.0390625" stop-color="#020208"/>
<stop offset="0.0429687" stop-color="#020209"/>
<stop offset="0.046875" stop-color="#02020A"/>
<stop offset="0.0507812" stop-color="#03030A"/>
<stop offset="0.0546875" stop-color="#03030B"/>
<stop offset="0.0585937" stop-color="#03030C"/>
<stop offset="0.0625" stop-color="#03030D"/>
<stop offset="0.0664063" stop-color="#04030E"/>
<stop offset="0.0703125" stop-color="#04040E"/>
<stop offset="0.0742188" stop-color="#04040F"/>
<stop offset="0.078125" stop-color="#040410"/>
<stop offset="0.0820312" stop-color="#040411"/>
<stop offset="0.0859375" stop-color="#050412"/>
<stop offset="0.0898438" stop-color="#050512"/>
<stop offset="0.09375" stop-color="#050513"/>
<stop offset="0.0976563" stop-color="#050514"/>
<stop offset="0.101562" stop-color="#050515"/>
<stop offset="0.105469" stop-color="#060516"/>
<stop offset="0.109375" stop-color="#060616"/>
<stop offset="0.113281" stop-color="#060617"/>
<stop offset="0.117188" stop-color="#060618"/>
<stop offset="0.121094" stop-color="#060619"/>
<stop offset="0.125" stop-color="#07061A"/>
<stop offset="0.128906" stop-color="#07071A"/>
<stop offset="0.132812" stop-color="#07071B"/>
<stop offset="0.136719" stop-color="#07071C"/>
<stop offset="0.140625" stop-color="#07071D"/>
<stop offset="0.144531" stop-color="#08071E"/>
<stop offset="0.148438" stop-color="#08081E"/>
<stop offset="0.152344" stop-color="#08081F"/>
<stop offset="0.15625" stop-color="#080820"/>
<stop offset="0.160156" stop-color="#080821"/>
<stop offset="0.164062" stop-color="#090822"/>
<stop offset="0.167969" stop-color="#090922"/>
<stop offset="0.171875" stop-color="#090923"/>
<stop offset="0.175781" stop-color="#090924"/>
<stop offset="0.179687" stop-color="#0A0925"/>
<stop offset="0.183594" stop-color="#0A0926"/>
<stop offset="0.1875" stop-color="#0A0A26"/>
<stop offset="0.191406" stop-color="#0A0A27"/>
<stop offset="0.195312" stop-color="#0A0A28"/>
<stop offset="0.199219" stop-color="#0B0A29"/>
<stop offset="0.203125" stop-color="#0B0A2A"/>
<stop offset="0.207031" stop-color="#0B0B2A"/>
<stop offset="0.210938" stop-color="#0B0B2B"/>
<stop offset="0.214844" stop-color="#0B0B2C"/>
<stop offset="0.21875" stop-color="#0C0B2D"/>
<stop offset="0.222656" stop-color="#0C0B2E"/>
<stop offset="0.226562" stop-color="#0C0C2E"/>
<stop offset="0.230469" stop-color="#0C0C2F"/>
<stop offset="0.234375" stop-color="#0C0C30"/>
<stop offset="0.238281" stop-color="#0D0C31"/>
<stop offset="0.242188" stop-color="#0D0C32"/>
<stop offset="0.246094" stop-color="#0D0D32"/>
<stop offset="0.25" stop-color="#0D0D33"/>
<stop offset="0.253906" stop-color="#0D0D34"/>
<stop offset="0.257812" stop-color="#0E0D35"/>
<stop offset="0.261719" stop-color="#0E0D36"/>
<stop offset="0.265625" stop-color="#0E0E36"/>
<stop offset="0.269531" stop-color="#0E0E37"/>
<stop offset="0.273438" stop-color="#0F0E38"/>
<stop offset="0.277344" stop-color="#0F0E39"/>
<stop offset="0.28125" stop-color="#0F0E3A"/>
<stop offset="0.285156" stop-color="#0F0F3A"/>
<stop offset="0.289062" stop-color="#0F0F3B"/>
<stop offset="0.292969" stop-color="#100F3C"/>
<stop offset="0.296875" stop-color="#100F3D"/>
<stop offset="0.300781" stop-color="#100F3E"/>
<stop offset="0.304688" stop-color="#10103E"/>
<stop offset="0.308594" stop-color="#10103F"/>
<stop offset="0.3125" stop-color="#111040"/>
<stop offset="0.316406" stop-color="#111041"/>
<stop offset="0.320312" stop-color="#111042"/>
<stop offset="0.324219" stop-color="#111142"/>
<stop offset="0.328125" stop-color="#111143"/>
<stop offset="0.332031" stop-color="#121144"/>
<stop offset="0.335937" stop-color="#121145"/>
<stop offset="0.339844" stop-color="#121146"/>
<stop offset="0.34375" stop-color="#121246"/>
<stop offset="0.347656" stop-color="#121247"/>
<stop offset="0.351562" stop-color="#131248"/>
<stop offset="0.355469" stop-color="#131249"/>
<stop offset="0.359375" stop-color="#13124A"/>
<stop offset="0.363281" stop-color="#13134A"/>
<stop offset="0.367188" stop-color="#13134B"/>
<stop offset="0.371094" stop-color="#14134C"/>
<stop offset="0.375" stop-color="#14134D"/>
<stop offset="0.378906" stop-color="#14134E"/>
<stop offset="0.382812" stop-color="#14144E"/>
<stop offset="0.386719" stop-color="#15144F"/>
<stop offset="0.390625" stop-color="#151450"/>
<stop offset="0.394531" stop-color="#151451"/>
<stop offset="0.398438" stop-color="#151452"/>
<stop offset="0.402344" stop-color="#151552"/>
<stop offset="0.40625" stop-color="#161553"/>
<stop offset="0.410156" stop-color="#161554"/>
<stop offset="0.414062" stop-color="#161555"/>
<stop offset="0.417969" stop-color="#161556"/>
<stop offset="0.421875" stop-color="#161656"/>
<stop offset="0.425781" stop-color="#171657"/>
<stop offset="0.429687" stop-color="#171658"/>
<stop offset="0.433594" stop-color="#171659"/>
<stop offset="0.4375" stop-color="#17165A"/>
<stop offset="0.441406" stop-color="#17175A"/>
<stop offset="0.445312" stop-color="#18175B"/>
<stop offset="0.449219" stop-color="#18175C"/>
<stop offset="0.453125" stop-color="#18175D"/>
<stop offset="0.457031" stop-color="#18175E"/>
<stop offset="0.460937" stop-color="#18185F"/>
<stop offset="0.464844" stop-color="#19185F"/>
<stop offset="0.46875" stop-color="#191860"/>
<stop offset="0.472656" stop-color="#191861"/>
<stop offset="0.476562" stop-color="#191862"/>
<stop offset="0.480469" stop-color="#191963"/>
<stop offset="0.484375" stop-color="#1A1963"/>
<stop offset="0.488281" stop-color="#1A1964"/>
<stop offset="0.492188" stop-color="#1A1965"/>
<stop offset="0.496094" stop-color="#1A1966"/>
<stop offset="0.5" stop-color="#1B1967"/>
<stop offset="0.503906" stop-color="#1B1A67"/>
<stop offset="0.507812" stop-color="#1B1A68"/>
<stop offset="0.511719" stop-color="#1B1A69"/>
<stop offset="0.515625" stop-color="#1B1A6A"/>
<stop offset="0.519531" stop-color="#1C1A6B"/>
<stop offset="0.523438" stop-color="#1C1B6B"/>
<stop offset="0.527344" stop-color="#1C1B6C"/>
<stop offset="0.53125" stop-color="#1C1B6D"/>
<stop offset="0.535156" stop-color="#1C1B6E"/>
<stop offset="0.539062" stop-color="#1D1B6F"/>
<stop offset="0.542969" stop-color="#1D1C6F"/>
<stop offset="0.546875" stop-color="#1D1C70"/>
<stop offset="0.550781" stop-color="#1D1C71"/>
<stop offset="0.554688" stop-color="#1D1C72"/>
<stop offset="0.558594" stop-color="#1E1C73"/>
<stop offset="0.5625" stop-color="#1E1D73"/>
<stop offset="0.566406" stop-color="#1E1D74"/>
<stop offset="0.570312" stop-color="#1E1D75"/>
<stop offset="0.574219" stop-color="#1E1D76"/>
<stop offset="0.578125" stop-color="#1F1D77"/>
<stop offset="0.582031" stop-color="#1F1E77"/>
<stop offset="0.585937" stop-color="#1F1E78"/>
<stop offset="0.589844" stop-color="#1F1E79"/>
<stop offset="0.59375" stop-color="#1F1E7A"/>
<stop offset="0.597656" stop-color="#201E7B"/>
<stop offset="0.601562" stop-color="#201F7B"/>
<stop offset="0.605469" stop-color="#201F7C"/>
<stop offset="0.609375" stop-color="#201F7D"/>
<stop offset="0.613281" stop-color="#211F7E"/>
<stop offset="0.617188" stop-color="#211F7F"/>
<stop offset="0.621094" stop-color="#21207F"/>
<stop offset="0.625" stop-color="#212080"/>
<stop offset="0.628906" stop-color="#212081"/>
<stop offset="0.632812" stop-color="#222082"/>
<stop offset="0.636719" stop-color="#222083"/>
<stop offset="0.640625" stop-color="#222183"/>
<stop offset="0.644531" stop-color="#222184"/>
<stop offset="0.648438" stop-color="#222185"/>
<stop offset="0.652344" stop-color="#232186"/>
<stop offset="0.65625" stop-color="#232187"/>
<stop offset="0.660156" stop-color="#232287"/>
<stop offset="0.664062" stop-color="#232288"/>
<stop offset="0.667969" stop-color="#232289"/>
<stop offset="0.671875" stop-color="#24228A"/>
<stop offset="0.675781" stop-color="#24228B"/>
<stop offset="0.679688" stop-color="#24238B"/>
<stop offset="0.683594" stop-color="#24238C"/>
<stop offset="0.6875" stop-color="#24238D"/>
<stop offset="0.691406" stop-color="#25238E"/>
<stop offset="0.695312" stop-color="#25238F"/>
<stop offset="0.699219" stop-color="#25248F"/>
<stop offset="0.703125" stop-color="#252490"/>
<stop offset="0.707031" stop-color="#252491"/>
<stop offset="0.710938" stop-color="#262492"/>
<stop offset="0.714844" stop-color="#262493"/>
<stop offset="0.71875" stop-color="#262593"/>
<stop offset="0.722656" stop-color="#262594"/>
<stop offset="0.726563" stop-color="#272595"/>
<stop offset="0.730469" stop-color="#272596"/>
<stop offset="0.734375" stop-color="#272597"/>
<stop offset="0.738281" stop-color="#272697"/>
<stop offset="0.742188" stop-color="#272698"/>
<stop offset="0.746094" stop-color="#282699"/>
<stop offset="0.75" stop-color="#28269A"/>
<stop offset="0.753906" stop-color="#28269B"/>
<stop offset="0.757812" stop-color="#28279B"/>
<stop offset="0.761719" stop-color="#28279C"/>
<stop offset="0.765625" stop-color="#29279D"/>
<stop offset="0.769531" stop-color="#29279E"/>
<stop offset="0.773437" stop-color="#29279F"/>
<stop offset="0.777344" stop-color="#29289F"/>
<stop offset="0.78125" stop-color="#2928A0"/>
<stop offset="0.785156" stop-color="#2A28A1"/>
<stop offset="0.789062" stop-color="#2A28A2"/>
<stop offset="0.792969" stop-color="#2A28A3"/>
<stop offset="0.796875" stop-color="#2A29A3"/>
<stop offset="0.800781" stop-color="#2A29A4"/>
<stop offset="0.804687" stop-color="#2B29A5"/>
<stop offset="0.808594" stop-color="#2B29A6"/>
<stop offset="0.8125" stop-color="#2B29A7"/>
<stop offset="0.816406" stop-color="#2B2AA7"/>
<stop offset="0.820312" stop-color="#2C2AA8"/>
<stop offset="0.824219" stop-color="#2C2AA9"/>
<stop offset="0.828125" stop-color="#2C2AAA"/>
<stop offset="0.832031" stop-color="#2C2AAB"/>
<stop offset="0.835938" stop-color="#2C2BAB"/>
<stop offset="0.839844" stop-color="#2D2BAC"/>
<stop offset="0.84375" stop-color="#2D2BAD"/>
<stop offset="0.847656" stop-color="#2D2BAE"/>
<stop offset="0.851562" stop-color="#2D2BAF"/>
<stop offset="0.855469" stop-color="#2D2CAF"/>
<stop offset="0.859375" stop-color="#2E2CB0"/>
<stop offset="0.863281" stop-color="#2E2CB1"/>
<stop offset="0.867188" stop-color="#2E2CB2"/>
<stop offset="0.871094" stop-color="#2E2CB3"/>
<stop offset="0.875" stop-color="#2E2DB3"/>
<stop offset="0.878906" stop-color="#2F2DB4"/>
<stop offset="0.882812" stop-color="#2F2DB5"/>
<stop offset="0.886719" stop-color="#2F2DB6"/>
<stop offset="0.890625" stop-color="#2F2DB7"/>
<stop offset="0.894531" stop-color="#2F2EB7"/>
<stop offset="0.898438" stop-color="#302EB8"/>
<stop offset="0.902344" stop-color="#302EB9"/>
<stop offset="0.90625" stop-color="#302EBA"/>
<stop offset="0.910156" stop-color="#302EBB"/>
<stop offset="0.914062" stop-color="#302FBB"/>
<stop offset="0.917969" stop-color="#312FBC"/>
<stop offset="0.921875" stop-color="#312FBD"/>
<stop offset="0.925781" stop-color="#312FBE"/>
<stop offset="0.929688" stop-color="#312FBF"/>
<stop offset="0.933594" stop-color="#3230BF"/>
<stop offset="0.9375" stop-color="#3230C0"/>
<stop offset="0.941406" stop-color="#3230C1"/>
<stop offset="0.945313" stop-color="#3230C2"/>
<stop offset="0.949219" stop-color="#3230C3"/>
<stop offset="0.953125" stop-color="#3331C3"/>
<stop offset="0.957031" stop-color="#3331C4"/>
<stop offset="0.960938" stop-color="#3331C5"/>
<stop offset="0.964844" stop-color="#3331C6"/>
<stop offset="0.96875" stop-color="#3331C7"/>
<stop offset="0.972656" stop-color="#3432C7"/>
<stop offset="0.976563" stop-color="#3432C8"/>
<stop offset="0.980469" stop-color="#3432C9"/>
<stop offset="0.984375" stop-color="#3432CA"/>
<stop offset="0.988281" stop-color="#3432CB"/>
<stop offset="0.992188" stop-color="#3533CB"/>
<stop offset="0.996094" stop-color="#3533CC"/>
<stop offset="1" stop-color="#3533CD"/>
</linearGradient>
</defs>
</svg>
